<?xml version="1.0" encoding="utf-8"?>
<!-- Generator: Adobe Illustrator 23.0.1, SVG Export Plug-In . SVG Version: 6.00 Build 0)  -->
<svg version="1.1" id="Layer_1" xmlns="http://www.w3.org/2000/svg" xmlns:xlink="http://www.w3.org/1999/xlink" x="0px" y="0px"
	 viewBox="0 0 1200 466.05" style="enable-background:new 0 0 1200 466.05;" xml:space="preserve">
<style type="text/css">
	.st0{fill:#330099;}
	.st1{enable-background:new    ;}
	.st2{clip-path:url(#SVGID_2_);}
	.st3{fill:#9966FF;}
	.st4{clip-path:url(#SVGID_4_);}
	.st5{fill:#00EDB8;}
	.st6{clip-path:url(#SVGID_6_);}
	.st7{fill:none;stroke:#9966FF;stroke-miterlimit:10;}
	.st8{clip-path:url(#SVGID_8_);}
	.st9{clip-path:url(#SVGID_10_);}
	.st10{clip-path:url(#SVGID_12_);}
	.st11{clip-path:url(#SVGID_14_);}
	.st12{clip-path:url(#SVGID_16_);}
	.st13{clip-path:url(#SVGID_18_);}
	.st14{clip-path:url(#SVGID_20_);}
	.st15{clip-path:url(#SVGID_22_);}
	.st16{clip-path:url(#SVGID_24_);}
	.st17{clip-path:url(#SVGID_26_);}
	.st18{clip-path:url(#SVGID_28_);}
</style>
<rect x="0.5" y="-43.39" class="st0" width="1200" height="509.33"/>
<g>
	<g>
		<g class="st1">
			<defs>
				<polygon id="SVGID_1_" class="st1" points="1064.24,69.8 1098.46,49.91 1126.38,66.03 1092.16,85.92 				"/>
			</defs>
			<clipPath id="SVGID_2_">
				<use xlink:href="#SVGID_1_"  style="overflow:visible;"/>
			</clipPath>
			<g class="st2">
				<g>
					<g>
						<g>
							<path class="st3" d="M1092.12,85.08l-26.44-15.3l32.82-19.03l26.43,15.3L1092.12,85.08 M1098.49,49.93l-34.23,19.85
								l27.85,16.12l34.23-19.84L1098.49,49.93"/>
						</g>
					</g>
				</g>
			</g>
		</g>
	</g>
</g>
<g>
	<g>
		<g class="st1">
			<defs>
				<polygon id="SVGID_3_" class="st1" points="1102.47,88.37 1136.69,68.48 1164.62,84.61 1130.4,104.5 				"/>
			</defs>
			<clipPath id="SVGID_4_">
				<use xlink:href="#SVGID_3_"  style="overflow:visible;"/>
			</clipPath>
			<g class="st4">
				<g>
					<g>
						<g>
							<polyline class="st3" points="1136.74,69.33 1103.92,88.35 1130.36,103.65 1163.17,84.62 1136.74,69.33 							"/>
							<path class="st5" d="M1130.36,103.65l-26.44-15.29l32.82-19.03l26.43,15.3L1130.36,103.65 M1136.73,68.51l-34.23,19.84
								l27.86,16.12l34.23-19.84L1136.73,68.51"/>
						</g>
					</g>
				</g>
			</g>
		</g>
	</g>
</g>
<g>
	<g>
		<g class="st1">
			<defs>
				<polygon id="SVGID_5_" class="st1" points="935.49,166.87 1032.23,110.66 1110.93,156.09 1014.19,212.31 				"/>
			</defs>
			<clipPath id="SVGID_6_">
				<use xlink:href="#SVGID_5_"  style="overflow:visible;"/>
			</clipPath>
			<g class="st6">
				<g>
					<g>
						<g>
							<path class="st3" d="M1014.07,211.42L937,166.82l95.35-55.28l77.08,44.6L1014.07,211.42 M1032.34,110.72l-96.41,55.89
								l-0.35,0.2l78.49,45.42l96.41-55.89l0.35-0.2L1032.34,110.72"/>
						</g>
					</g>
				</g>
			</g>
		</g>
	</g>
</g>
<path class="st7" d="M922.97,59.99"/>
<line class="st7" x1="922.59" y1="465.94" x2="922.59" y2="57.99"/>
<line class="st7" x1="825.97" y1="113.73" x2="825.97" y2="465.94"/>
<g>
	<g>
		<g class="st1">
			<defs>
				<polygon id="SVGID_7_" class="st1" points="825.92,113.65 922.66,57.44 1001.35,102.87 904.62,159.09 				"/>
			</defs>
			<clipPath id="SVGID_8_">
				<use xlink:href="#SVGID_7_"  style="overflow:visible;"/>
			</clipPath>
			<g class="st8">
				<g>
					<g>
						<g>
							<polyline class="st3" points="922.77,58.32 827.43,113.6 904.5,158.21 999.85,102.92 922.77,58.32 							"/>
							<path class="st5" d="M904.5,158.21l-77.08-44.6l95.34-55.28l77.08,44.6L904.5,158.21 M922.77,57.5l-96.41,55.9l-0.35,0.2
								l78.49,45.42l96.4-55.9l0.35-0.2L922.77,57.5"/>
						</g>
					</g>
				</g>
			</g>
		</g>
	</g>
</g>
<line class="st7" x1="1001.22" y1="102.9" x2="1001.22" y2="465.94"/>
<line class="st7" x1="904.21" y1="157.81" x2="904.21" y2="465.94"/>
<line class="st7" x1="935.8" y1="167.47" x2="935.8" y2="465.94"/>
<line class="st7" x1="1110.49" y1="156.81" x2="1110.49" y2="465.94"/>
<line class="st7" x1="1032.35" y1="111.37" x2="1032.35" y2="465.94"/>
<line class="st7" x1="1013.82" y1="212.38" x2="1013.82" y2="465.94"/>
<g>
	<g>
		<g class="st1">
			<defs>
				<polygon id="SVGID_9_" class="st1" points="306.32,271.88 357.49,242.15 399.32,266.3 348.15,296.03 				"/>
			</defs>
			<clipPath id="SVGID_10_">
				<use xlink:href="#SVGID_9_"  style="overflow:visible;"/>
			</clipPath>
			<g class="st9">
				<g>
					<g>
						<g>
							<path class="st3" d="M348.09,294.36l-38.89-22.5l48.35-28.03l38.88,22.5L348.09,294.36 M357.55,242.18l-51.18,29.67
								L348.09,296l51.18-29.67L357.55,242.18"/>
						</g>
					</g>
				</g>
			</g>
		</g>
	</g>
</g>
<line class="st7" x1="250.19" y1="244.52" x2="250.19" y2="465.98"/>
<line class="st7" x1="290.79" y1="267.44" x2="290.79" y2="465.98"/>
<line class="st7" x1="341.9" y1="238.29" x2="341.9" y2="465.98"/>
<line class="st7" x1="398.34" y1="266.44" x2="398.34" y2="465.98"/>
<line class="st7" x1="348.34" y1="465.98" x2="348.34" y2="294.77"/>
<line class="st7" x1="306.81" y1="465.98" x2="306.81" y2="271.92"/>
<line class="st7" x1="629.68" y1="466.05" x2="629.68" y2="257.54"/>
<line class="st7" x1="377.14" y1="465.98" x2="377.14" y2="125.21"/>
<line class="st7" x1="654.7" y1="465.94" x2="654.7" y2="122.29"/>
<line class="st7" x1="759.1" y1="465.94" x2="759.1" y2="183.06"/>
<line class="st7" x1="524.94" y1="465.94" x2="524.94" y2="196.38"/>
<line class="st7" x1="481.88" y1="465.94" x2="481.88" y2="185.77"/>
<line class="st7" x1="612.43" y1="465.94" x2="612.43" y2="110.7"/>
<line class="st7" x1="506.91" y1="465.94" x2="506.91" y2="50.97"/>
<g>
	<g>
		<g class="st1">
			<defs>
				<polygon id="SVGID_11_" class="st1" points="524.6,196.9 654.43,121.45 760,182.4 630.17,257.85 				"/>
			</defs>
			<clipPath id="SVGID_12_">
				<use xlink:href="#SVGID_11_"  style="overflow:visible;"/>
			</clipPath>
			<g class="st10">
				<g>
					<g>
						<g>
							<polyline class="st3" points="654.58,122.36 526.14,196.84 630.01,256.95 758.47,182.47 654.58,122.36 							"/>
							<path class="st5" d="M630.01,256.95l-103.87-60.11l128.44-74.47l103.89,60.11L630.01,256.95 M654.58,121.54l-129.86,75.29
								l105.3,60.93l129.51-75.09l0.36-0.21L654.58,121.54"/>
						</g>
					</g>
				</g>
			</g>
		</g>
	</g>
</g>
<g>
	<g>
		<g class="st1">
			<defs>
				<polygon id="SVGID_13_" class="st1" points="377.28,125.35 507.11,49.9 612.68,110.85 482.85,186.3 				"/>
			</defs>
			<clipPath id="SVGID_14_">
				<use xlink:href="#SVGID_13_"  style="overflow:visible;"/>
			</clipPath>
			<g class="st11">
				<g>
					<g>
						<g>
							<path class="st3" d="M482.69,185.39l-103.88-60.11l128.45-74.47l103.87,60.11L482.69,185.39 M507.26,49.99L377.4,125.28
								l105.3,60.93l129.86-75.29L507.26,49.99"/>
						</g>
					</g>
				</g>
			</g>
		</g>
	</g>
</g>
<g>
	<g>
		<g class="st1">
			<defs>
				<polygon id="SVGID_15_" class="st1" points="139.35,186.54 212.12,144.24 271.58,178.57 198.81,220.87 				"/>
			</defs>
			<clipPath id="SVGID_16_">
				<use xlink:href="#SVGID_15_"  style="overflow:visible;"/>
			</clipPath>
			<g class="st12">
				<g>
					<g>
						<g>
							<path class="st3" d="M198.72,219.18l-56.48-32.68l69.97-40.57l56.47,32.69L198.72,219.18 M212.21,144.29l-72.79,42.2
								l59.31,34.32l72.79-42.2L212.21,144.29"/>
						</g>
					</g>
				</g>
			</g>
		</g>
	</g>
</g>
<line class="st7" x1="57.59" y1="147.31" x2="57.59" y2="465.94"/>
<line class="st7" x1="116.31" y1="180.19" x2="116.31" y2="465.94"/>
<line class="st7" x1="189.7" y1="138.38" x2="189.7" y2="465.98"/>
<line class="st7" x1="270.53" y1="178.76" x2="270.53" y2="465.94"/>
<line class="st7" x1="198.88" y1="465.94" x2="198.88" y2="219.38"/>
<line class="st7" x1="140.19" y1="465.94" x2="140.19" y2="186.62"/>
<g>
	<g>
		<g class="st1">
			<defs>
				<polygon id="SVGID_17_" class="st1" points="238.76,108.16 272.98,88.28 300.9,104.4 266.68,124.29 				"/>
			</defs>
			<clipPath id="SVGID_18_">
				<use xlink:href="#SVGID_17_"  style="overflow:visible;"/>
			</clipPath>
			<g class="st13">
				<g>
					<g>
						<g>
							<path class="st3" d="M266.64,123.45l-26.44-15.3l32.81-19.02l26.44,15.29L266.64,123.45 M273.01,88.3l-34.23,19.85
								l27.86,16.12l34.23-19.85L273.01,88.3"/>
						</g>
					</g>
				</g>
			</g>
		</g>
	</g>
</g>
<g>
	<g>
		<g class="st1">
			<defs>
				<polygon id="SVGID_19_" class="st1" points="277,126.74 311.22,106.85 339.14,122.97 304.92,142.86 				"/>
			</defs>
			<clipPath id="SVGID_20_">
				<use xlink:href="#SVGID_19_"  style="overflow:visible;"/>
			</clipPath>
			<g class="st14">
				<g>
					<g>
						<g>
							<polyline class="st3" points="311.26,107.69 278.44,126.72 304.87,142.02 337.69,122.99 311.26,107.69 							"/>
							<path class="st5" d="M304.87,142.02l-26.43-15.3l32.82-19.03l26.43,15.3L304.87,142.02 M311.26,106.87l-34.23,19.85
								l27.85,16.12l34.23-19.84L311.26,106.87"/>
						</g>
					</g>
				</g>
			</g>
		</g>
	</g>
</g>
<line class="st7" x1="826.21" y1="238.35" x2="826.21" y2="466.05"/>
<g>
	<g>
		<g class="st1">
			<defs>
				<polygon id="SVGID_21_" class="st1" points="735.57,244.37 786.03,215.05 827.15,238.79 776.69,268.11 				"/>
			</defs>
			<clipPath id="SVGID_22_">
				<use xlink:href="#SVGID_21_"  style="overflow:visible;"/>
			</clipPath>
			<g class="st15">
				<g>
					<g>
						<g>
							<path class="st3" d="M776.63,267.26l-39.59-22.91l49.06-28.45l39.6,22.91L776.63,267.26 M786.09,215.08l-50.12,29.06
								l-0.36,0.21l41.02,23.73l50.12-29.06l0.36-0.21L786.09,215.08"/>
						</g>
					</g>
				</g>
			</g>
		</g>
	</g>
</g>
<line class="st7" x1="736.5" y1="244.58" x2="736.5" y2="466.05"/>
<line class="st7" x1="776.1" y1="267.51" x2="776.1" y2="466.05"/>
<line class="st7" x1="883.65" y1="266.51" x2="883.65" y2="466.05"/>
<line class="st7" x1="833.65" y1="466.05" x2="833.65" y2="294.83"/>
<line class="st7" x1="793.12" y1="466.05" x2="793.12" y2="271.99"/>
<line class="st7" x1="842.99" y1="243.06" x2="842.99" y2="466.05"/>
<line class="st7" x1="786.3" y1="215.67" x2="786.3" y2="466.05"/>
<g>
	<g>
		<g class="st1">
			<defs>
				<polygon id="SVGID_23_" class="st1" points="792.35,271.95 842.81,242.62 883.92,266.36 833.46,295.69 				"/>
			</defs>
			<clipPath id="SVGID_24_">
				<use xlink:href="#SVGID_23_"  style="overflow:visible;"/>
			</clipPath>
			<g class="st16">
				<g>
					<g>
						<g>
							<polyline class="st3" points="842.87,243.47 793.8,271.92 833.4,294.83 882.47,266.39 842.87,243.47 							"/>
							<path class="st5" d="M833.4,294.83l-39.6-22.91l49.06-28.45l39.6,22.91L833.4,294.83 M842.86,242.66l-50.12,29.06l-0.36,0.21
								l41.02,23.73l50.12-29.06l0.36-0.21L842.86,242.66"/>
						</g>
					</g>
				</g>
			</g>
		</g>
	</g>
</g>
<line class="st7" x1="212.39" y1="465.94" x2="212.39" y2="146.42"/>
<line class="st7" x1="130.51" y1="465.94" x2="130.51" y2="106.68"/>
<g>
	<g>
		<g class="st1">
			<defs>
				<polygon id="SVGID_25_" class="st1" points="57.79,146.99 130.57,104.7 190.03,139.03 117.26,181.32 				"/>
			</defs>
			<clipPath id="SVGID_26_">
				<use xlink:href="#SVGID_25_"  style="overflow:visible;"/>
			</clipPath>
			<g class="st17">
				<g>
					<g>
						<g>
							<polyline class="st3" points="130.66,106.38 60.69,146.95 117.17,179.63 187.14,139.06 130.66,106.38 							"/>
							<path class="st5" d="M117.17,179.63l-56.48-32.68l69.97-40.57l56.48,32.68L117.17,179.63 M130.65,104.74l-72.79,42.2
								l59.31,34.33l72.79-42.21L130.65,104.74"/>
						</g>
					</g>
				</g>
			</g>
		</g>
	</g>
</g>
<line class="st7" x1="357.19" y1="465.94" x2="357.19" y2="243.42"/>
<line class="st7" x1="301.04" y1="465.94" x2="301.04" y2="216.02"/>
<g>
	<g>
		<g class="st1">
			<defs>
				<polygon id="SVGID_27_" class="st1" points="249.55,244.31 300.72,214.57 342.55,238.72 291.38,268.46 				"/>
			</defs>
			<clipPath id="SVGID_28_">
				<use xlink:href="#SVGID_27_"  style="overflow:visible;"/>
			</clipPath>
			<g class="st18">
				<g>
					<g>
						<g>
							<polyline class="st3" points="300.78,216.25 252.43,244.28 291.32,266.78 339.67,238.75 300.78,216.25 							"/>
							<path class="st5" d="M291.32,266.78l-38.89-22.5l48.35-28.03l38.89,22.5L291.32,266.78 M300.78,214.61l-51.18,29.67
								l41.72,24.14l51.18-29.67L300.78,214.61"/>
						</g>
					</g>
				</g>
			</g>
		</g>
	</g>
</g>
</svg>
