<?xml version="1.0" encoding="utf-8"?>
<!-- Generator: Adobe Illustrator 23.0.1, SVG Export Plug-In . SVG Version: 6.00 Build 0)  -->
<svg version="1.1" id="Layer_1" xmlns="http://www.w3.org/2000/svg" xmlns:xlink="http://www.w3.org/1999/xlink" x="0px" y="0px"
	 viewBox="0 0 1200 350.89" style="enable-background:new 0 0 1200 350.89;" xml:space="preserve">
<style type="text/css">
	.st0{fill:none;stroke:#9966FF;stroke-miterlimit:10;}
	.st1{enable-background:new    ;}
	.st2{clip-path:url(#SVGID_2_);}
	.st3{fill:#05054C;}
	.st4{fill:#9966FF;}
	.st5{clip-path:url(#SVGID_4_);}
	.st6{fill:#2312F4;}
	.st7{clip-path:url(#SVGID_6_);}
	.st8{clip-path:url(#SVGID_8_);}
	.st9{clip-path:url(#SVGID_10_);}
	.st10{clip-path:url(#SVGID_12_);}
	.st11{clip-path:url(#SVGID_14_);}
	.st12{clip-path:url(#SVGID_16_);}
	.st13{clip-path:url(#SVGID_18_);}
	.st14{clip-path:url(#SVGID_20_);}
	.st15{clip-path:url(#SVGID_22_);}
	.st16{clip-path:url(#SVGID_24_);}
	.st17{clip-path:url(#SVGID_26_);}
	.st18{clip-path:url(#SVGID_28_);}
</style>
<line class="st0" x1="290.7" y1="228.38" x2="290.7" y2="350.89"/>
<line class="st0" x1="398.26" y1="248.38" x2="398.26" y2="350.89"/>
<line class="st0" x1="348.17" y1="350.89" x2="348.17" y2="255.7"/>
<line class="st0" x1="306.92" y1="350.89" x2="306.92" y2="253.86"/>
<line class="st0" x1="776.44" y1="228.44" x2="776.44" y2="350.88"/>
<line class="st0" x1="883.05" y1="248.44" x2="883.05" y2="350.88"/>
<line class="st0" x1="833.37" y1="350.88" x2="833.37" y2="255.76"/>
<line class="st0" x1="793.53" y1="350.88" x2="793.53" y2="254.45"/>
<g>
	<g>
		<g class="st1">
			<defs>
				<polygon id="SVGID_1_" class="st1" points="1064.24,51.73 1098.45,31.84 1126.38,47.97 1092.16,67.85 				"/>
			</defs>
			<clipPath id="SVGID_2_">
				<use xlink:href="#SVGID_1_"  style="overflow:visible;"/>
			</clipPath>
			<g class="st2">
				<g>
					<g>
						<g>
							<polyline class="st3" points="1098.5,32.68 1065.68,51.71 1092.12,67.01 1124.93,47.98 1098.5,32.68 							"/>
							<path class="st4" d="M1092.12,67.01l-26.44-15.3l32.81-19.02l26.43,15.3L1092.12,67.01 M1098.49,31.87l-34.22,19.84
								l27.85,16.12l34.23-19.84L1098.49,31.87"/>
						</g>
					</g>
				</g>
			</g>
		</g>
	</g>
</g>
<g>
	<g>
		<g class="st1">
			<defs>
				<polygon id="SVGID_3_" class="st1" points="1102.47,70.3 1136.69,50.41 1164.62,66.54 1130.4,86.43 				"/>
			</defs>
			<clipPath id="SVGID_4_">
				<use xlink:href="#SVGID_3_"  style="overflow:visible;"/>
			</clipPath>
			<g class="st5">
				<g>
					<g>
						<g>
							<polyline class="st6" points="1136.73,51.26 1103.92,70.28 1130.35,85.58 1163.17,66.55 1136.73,51.26 							"/>
							<path class="st4" d="M1130.35,85.58l-26.43-15.3l32.81-19.02l26.44,15.29L1130.35,85.58 M1136.73,50.44l-34.23,19.84
								l27.86,16.12l34.23-19.84L1136.73,50.44"/>
						</g>
					</g>
				</g>
			</g>
		</g>
	</g>
</g>
<g>
	<g>
		<g class="st1">
			<defs>
				<polygon id="SVGID_5_" class="st1" points="935.49,148.81 1032.23,92.59 1110.93,138.02 1014.19,194.24 				"/>
			</defs>
			<clipPath id="SVGID_6_">
				<use xlink:href="#SVGID_5_"  style="overflow:visible;"/>
			</clipPath>
			<g class="st7">
				<g>
					<g>
						<g>
							<polyline class="st3" points="1032.35,93.47 936.99,148.76 1014.07,193.36 1109.43,138.08 1032.35,93.47 							"/>
							<path class="st4" d="M1014.07,193.36l-77.08-44.6l95.36-55.28l77.08,44.6L1014.07,193.36 M1032.35,92.65l-96.41,55.89
								l-0.36,0.21l78.49,45.42l96.41-55.89l0.36-0.21L1032.35,92.65"/>
						</g>
					</g>
				</g>
			</g>
		</g>
	</g>
</g>
<path class="st0" d="M922.97,41.93"/>
<line class="st0" x1="826.32" y1="95.66" x2="826.32" y2="350.89"/>
<g>
	<g>
		<g class="st1">
			<defs>
				<polygon id="SVGID_7_" class="st1" points="825.92,95.59 922.66,39.37 1001.35,84.81 904.62,141.02 				"/>
			</defs>
			<clipPath id="SVGID_8_">
				<use xlink:href="#SVGID_7_"  style="overflow:visible;"/>
			</clipPath>
			<g class="st8">
				<g>
					<g>
						<g>
							<polyline class="st6" points="922.78,40.25 827.43,95.54 904.51,140.14 999.85,84.86 922.78,40.25 							"/>
							<path class="st4" d="M904.51,140.14l-77.08-44.6l95.35-55.29l77.08,44.6L904.51,140.14 M922.77,39.44l-96.4,55.9l-0.36,0.21
								l78.49,45.42l96.4-55.9l0.36-0.21L922.77,39.44"/>
						</g>
					</g>
				</g>
			</g>
		</g>
	</g>
</g>
<line class="st0" x1="1000.94" y1="84.84" x2="1000.94" y2="350.89"/>
<line class="st0" x1="904.16" y1="139.74" x2="904.16" y2="350.89"/>
<line class="st0" x1="629.11" y1="350.88" x2="629.11" y2="218.47"/>
<line class="st0" x1="935.54" y1="149.4" x2="935.54" y2="350.89"/>
<line class="st0" x1="1109.93" y1="138.74" x2="1109.93" y2="350.88"/>
<line class="st0" x1="1032.47" y1="93.3" x2="1032.47" y2="350.89"/>
<line class="st0" x1="1014.27" y1="194.31" x2="1014.27" y2="350.88"/>
<g>
	<g>
		<g class="st1">
			<defs>
				<polygon id="SVGID_9_" class="st1" points="306.33,253.82 357.49,224.08 399.32,248.23 348.15,277.96 				"/>
			</defs>
			<clipPath id="SVGID_10_">
				<use xlink:href="#SVGID_9_"  style="overflow:visible;"/>
			</clipPath>
			<g class="st9">
				<g>
					<g>
						<g>
							<polyline class="st3" points="357.56,225.75 309.2,253.79 348.09,276.3 396.44,248.25 357.56,225.75 							"/>
							<path class="st4" d="M348.09,276.3l-38.89-22.5l48.36-28.04l38.88,22.5L348.09,276.3 M357.55,224.12l-51.18,29.67
								l41.72,24.14l51.18-29.67L357.55,224.12"/>
						</g>
					</g>
				</g>
			</g>
		</g>
	</g>
</g>
<line class="st0" x1="250.44" y1="226.45" x2="250.44" y2="350.89"/>
<line class="st0" x1="922.09" y1="350.88" x2="922.09" y2="39.93"/>
<line class="st0" x1="341.53" y1="220.22" x2="341.53" y2="350.89"/>
<line class="st0" x1="377.83" y1="350.88" x2="377.83" y2="107.14"/>
<line class="st0" x1="525.66" y1="350.88" x2="525.66" y2="178.32"/>
<line class="st0" x1="482.46" y1="350.89" x2="482.46" y2="167.7"/>
<g>
	<g>
		<g class="st1">
			<defs>
				<polygon id="SVGID_11_" class="st1" points="524.6,178.83 654.43,103.39 760,164.34 630.17,239.78 				"/>
			</defs>
			<clipPath id="SVGID_12_">
				<use xlink:href="#SVGID_11_"  style="overflow:visible;"/>
			</clipPath>
			<g class="st10">
				<g>
					<g>
						<g>
							<polyline class="st6" points="654.58,104.29 526.14,178.77 630.01,238.88 758.46,164.41 654.58,104.29 							"/>
							<path class="st4" d="M630.01,238.88l-103.87-60.11l128.44-74.47l103.88,60.11L630.01,238.88 M654.58,103.48l-129.86,75.29
								l105.3,60.93l129.51-75.09l0.35-0.2L654.58,103.48"/>
						</g>
					</g>
				</g>
			</g>
		</g>
	</g>
</g>
<g>
	<g>
		<g class="st1">
			<defs>
				<polygon id="SVGID_13_" class="st1" points="377.28,107.27 507.11,31.83 612.68,92.78 482.85,168.23 				"/>
			</defs>
			<clipPath id="SVGID_14_">
				<use xlink:href="#SVGID_13_"  style="overflow:visible;"/>
			</clipPath>
			<g class="st11">
				<g>
					<g>
						<g>
							<polyline class="st3" points="507.26,32.73 378.81,107.21 482.69,167.32 611.14,92.85 507.26,32.73 							"/>
							<path class="st4" d="M482.69,167.32l-103.89-60.11l128.46-74.47l103.87,60.11L482.69,167.32 M507.26,31.92l-129.86,75.29
								l105.3,60.93l129.86-75.29L507.26,31.92"/>
						</g>
					</g>
				</g>
			</g>
		</g>
	</g>
</g>
<g>
	<g>
		<g class="st1">
			<defs>
				<polygon id="SVGID_15_" class="st1" points="139.35,168.47 212.12,126.17 271.58,160.5 198.81,202.8 				"/>
			</defs>
			<clipPath id="SVGID_16_">
				<use xlink:href="#SVGID_15_"  style="overflow:visible;"/>
			</clipPath>
			<g class="st12">
				<g>
					<g>
						<g>
							<polyline class="st3" points="212.21,127.86 142.24,168.43 198.72,201.11 268.69,160.54 212.21,127.86 							"/>
							<path class="st4" d="M198.72,201.11l-56.48-32.68l69.97-40.57l56.48,32.68L198.72,201.11 M212.21,126.22l-72.79,42.21
								l59.31,34.32l72.79-42.2L212.21,126.22"/>
						</g>
					</g>
				</g>
			</g>
		</g>
	</g>
</g>
<line class="st0" x1="57.03" y1="129.24" x2="57.03" y2="350.88"/>
<line class="st0" x1="116.22" y1="162.13" x2="116.22" y2="350.88"/>
<line class="st0" x1="188.98" y1="120.32" x2="188.98" y2="350.88"/>
<line class="st0" x1="506.52" y1="350.89" x2="506.52" y2="32.9"/>
<line class="st0" x1="198.18" y1="350.88" x2="198.18" y2="201.31"/>
<line class="st0" x1="653.87" y1="350.89" x2="653.87" y2="104.23"/>
<line class="st0" x1="140.14" y1="350.88" x2="140.14" y2="168.55"/>
<g>
	<g>
		<g class="st1">
			<defs>
				<polygon id="SVGID_17_" class="st1" points="238.76,90.1 272.98,70.21 300.9,86.34 266.68,106.22 				"/>
			</defs>
			<clipPath id="SVGID_18_">
				<use xlink:href="#SVGID_17_"  style="overflow:visible;"/>
			</clipPath>
			<g class="st13">
				<g>
					<g>
						<g>
							<polyline class="st3" points="273.02,71.05 240.2,90.08 266.64,105.38 299.45,86.35 273.02,71.05 							"/>
							<path class="st4" d="M266.64,105.38l-26.44-15.3l32.82-19.03l26.43,15.3L266.64,105.38 M273.01,70.24l-34.23,19.85
								l27.86,16.12l34.23-19.85L273.01,70.24"/>
						</g>
					</g>
				</g>
			</g>
		</g>
	</g>
</g>
<g>
	<g>
		<g class="st1">
			<defs>
				<polygon id="SVGID_19_" class="st1" points="277,108.67 311.21,88.79 339.14,104.91 304.93,124.79 				"/>
			</defs>
			<clipPath id="SVGID_20_">
				<use xlink:href="#SVGID_19_"  style="overflow:visible;"/>
			</clipPath>
			<g class="st14">
				<g>
					<g>
						<g>
							<polyline class="st6" points="311.26,89.63 278.44,108.65 304.88,123.95 337.69,104.92 311.26,89.63 							"/>
							<path class="st4" d="M304.88,123.95l-26.43-15.3l32.81-19.02l26.43,15.3L304.88,123.95 M311.25,88.81l-34.22,19.84
								l27.85,16.12l34.23-19.84L311.25,88.81"/>
						</g>
					</g>
				</g>
			</g>
		</g>
	</g>
</g>
<line class="st0" x1="611.93" y1="350.88" x2="611.93" y2="92.63"/>
<g>
	<g>
		<g class="st1">
			<defs>
				<polygon id="SVGID_21_" class="st1" points="735.57,226.31 786.04,196.98 827.15,220.72 776.69,250.04 				"/>
			</defs>
			<clipPath id="SVGID_22_">
				<use xlink:href="#SVGID_21_"  style="overflow:visible;"/>
			</clipPath>
			<g class="st15">
				<g>
					<g>
						<g>
							<polyline class="st6" points="786.1,197.83 737.04,226.28 776.63,249.19 825.69,220.75 786.1,197.83 							"/>
							<path class="st4" d="M776.63,249.19l-39.59-22.91l49.06-28.45l39.59,22.92L776.63,249.19 M786.09,197.01l-50.12,29.06
								l-0.35,0.2l41.01,23.74l50.12-29.06l0.35-0.2L786.09,197.01"/>
						</g>
					</g>
				</g>
			</g>
		</g>
	</g>
</g>
<line class="st0" x1="735.83" y1="226.51" x2="735.83" y2="350.88"/>
<line class="st0" x1="759" y1="350.88" x2="759" y2="164.99"/>
<line class="st0" x1="786.67" y1="197.6" x2="786.67" y2="350.88"/>
<g>
	<g>
		<g class="st1">
			<defs>
				<polygon id="SVGID_23_" class="st1" points="792.35,253.88 842.81,224.55 883.92,248.29 833.46,277.61 				"/>
			</defs>
			<clipPath id="SVGID_24_">
				<use xlink:href="#SVGID_23_"  style="overflow:visible;"/>
			</clipPath>
			<g class="st16">
				<g>
					<g>
						<g>
							<polyline class="st3" points="842.87,225.4 793.8,253.85 833.4,276.76 882.47,248.32 842.87,225.4 							"/>
							<path class="st4" d="M833.4,276.76l-39.6-22.91l49.06-28.45l39.6,22.91L833.4,276.76 M842.86,224.58l-50.12,29.06l-0.35,0.2
								l41.02,23.73l50.12-29.06l0.36-0.21L842.86,224.58"/>
						</g>
					</g>
				</g>
			</g>
		</g>
	</g>
</g>
<line class="st0" x1="211.82" y1="350.88" x2="211.82" y2="128.35"/>
<g>
	<g>
		<g class="st1">
			<defs>
				<polygon id="SVGID_25_" class="st1" points="57.79,128.92 130.57,86.63 190.03,120.96 117.26,163.25 				"/>
			</defs>
			<clipPath id="SVGID_26_">
				<use xlink:href="#SVGID_25_"  style="overflow:visible;"/>
			</clipPath>
			<g class="st17">
				<g>
					<g>
						<g>
							<polyline class="st6" points="130.65,88.31 60.69,128.88 117.17,161.57 187.13,121 130.65,88.31 							"/>
							<path class="st4" d="M117.17,161.57l-56.47-32.69l69.96-40.57L187.13,121L117.17,161.57 M130.65,86.67l-72.79,42.2
								l59.31,34.33l72.79-42.2L130.65,86.67"/>
						</g>
					</g>
				</g>
			</g>
		</g>
	</g>
</g>
<line class="st0" x1="826.29" y1="220.29" x2="826.29" y2="350.88"/>
<line class="st0" x1="357.35" y1="350.88" x2="357.35" y2="225.36"/>
<g>
	<g>
		<g class="st1">
			<defs>
				<polygon id="SVGID_27_" class="st1" points="249.56,226.24 300.72,196.51 342.55,220.66 291.38,250.39 				"/>
			</defs>
			<clipPath id="SVGID_28_">
				<use xlink:href="#SVGID_27_"  style="overflow:visible;"/>
			</clipPath>
			<g class="st18">
				<g>
					<g>
						<g>
							<polyline class="st6" points="300.79,198.18 252.43,226.21 291.31,248.72 339.68,220.68 300.79,198.18 							"/>
							<path class="st4" d="M291.31,248.72l-38.89-22.5l48.36-28.04l38.89,22.5L291.31,248.72 M300.78,196.54l-51.18,29.67
								l41.72,24.14l51.18-29.67L300.78,196.54"/>
						</g>
					</g>
				</g>
			</g>
		</g>
	</g>
</g>
<line class="st0" x1="270.88" y1="160.69" x2="270.88" y2="350.89"/>
<line class="st0" x1="300.34" y1="350.88" x2="300.34" y2="197.96"/>
<line class="st0" x1="842.57" y1="224.99" x2="842.57" y2="350.89"/>
<line class="st0" x1="130.55" y1="350.88" x2="130.55" y2="88.61"/>
</svg>
