<?xml version="1.0" encoding="utf-8"?>
<!-- Generator: Adobe Illustrator 23.0.1, SVG Export Plug-In . SVG Version: 6.00 Build 0)  -->
<svg version="1.1" id="Layer_1" xmlns="http://www.w3.org/2000/svg" xmlns:xlink="http://www.w3.org/1999/xlink" x="0px" y="0px"
	 viewBox="0 0 224.94 3056.1" style="enable-background:new 0 0 224.94 3056.1;" xml:space="preserve">
<style type="text/css">
	.st0{fill:#000033;}
	.st1{fill:none;}
	.st2{enable-background:new    ;}
	.st3{fill:#00002C;}
	.st4{fill:#000024;}
	.st5{fill:#00001A;}
	.st6{fill:#377D6B;}
	.st7{fill:#4CAC93;}
	.st8{fill:#5FD8B9;}
	.st9{fill:#000023;}
	.st10{fill:#4D3380;}
	.st11{fill:#6A46B0;}
	.st12{fill:#8558DD;}
</style>
<g>
	<path class="st0" d="M74.34,1330.67c1.6,0.2,2.47-0.11,2.4-2.12c-0.27-7.65-0.62-15.31-0.45-22.96c0.24-10.85,1.26-21.6,8.13-30.75
		c0.61-0.81,1.26-1.58,2.12-2.26c-9.9,13.46-9.34,28.64-8.07,43.96c0.24,0.03,0.49,0.07,0.73,0.1c0-2.22,0-4.44,0-6.66
		c0.27-0.02,0.54-0.03,0.81-0.05c0.1,2.22,0.2,4.45,0.3,6.67c0.15-0.02,0.3-0.03,0.45-0.05c0-4.56,0-9.12,0-13.68
		c-0.25,0-0.5,0.01-0.75,0.01c0,1.04,0,2.07,0,3.11c-0.21,0.01-0.42,0.03-0.63,0.04c-0.08-1.06-0.31-2.14-0.2-3.18
		c0.35-3.45,0.83-6.89,1.25-10.33c0.19-1.54,0.62-2.46,2.29-0.42c1.39-6.69,5.01-11.65,8.62-16.78c2.99-4.26,7.43-5.25,11.54-6.95
		c16.61-6.88,34.87,1.91,39.77,19.29c1.52,5.38,1.62,11.14,2.61,16.68c0.4,2.26,0.24,4.42,0.19,6.66c-0.04,1.96,0.85,3.94,1.33,5.92
		c0.31-0.03,0.62-0.06,0.93-0.09c-0.42-7.44-0.8-14.88-1.28-22.31c-0.51-7.74-3.89-14.38-8.62-20.46c0.34-0.22,0.68-0.44,1.03-0.66
		c1.23,1.69,2.6,3.29,3.65,5.08c3.73,6.34,5.45,13.29,5.7,20.57c0.34,9.61,0.44,19.23,0.64,28.84c0.03,1.39-0.1,2.93,2.35,2.31
		c0-3.2,0-6.48,0-9.76c0.18,0,0.36,0,0.55-0.01c0,3.21,0,6.42,0,10.04c2.61,0,4.92,0.14,7.2-0.04c2.56-0.19,3.32,0.71,3.32,3.32
		c-0.01,25.37,0.1,50.74,0.2,76.11c0.01,2.82,0.16,5.64,0.25,8.46c0.12,3.52-0.04,3.75-3.72,3.82c-6.05,0.11-12.1,0.19-18.15,0.2
		c-23.11,0.02-46.23,0.01-69.34,0.02c-1.06,0-2.12,0-3.48,0c-0.07-1.21-0.18-2.25-0.19-3.28c-0.14-27.99-0.27-55.97-0.41-83.96
		c-0.02-4.77-0.05-4.77,4.62-4.57c0.78,0.03,1.55,0.08,2.34,0.12c-0.88,0.49-1.77,0.99-3.21,1.79c1.44,0.58,2.54,1.04,3.64,1.47
		c1.57,0.62,4.06,0.82,4.54,1.91c0.91,2.09,1.96,1.36,3.33,1.23c2.74-0.27,5.49-0.48,8.23-0.42c0.81,0.02,1.6,1,2.5,1.61
		c1.09-1.13,2.42-2.49,3.79-3.9c-3.43-2.04-6.84-3.93-5.74-8.93c0.43-1.96,0.07-4.09,0.07-6.14c0.16,0,0.32,0,0.48,0.01
		c0,3.74,0,7.49,0,11.16c14.95,0,29.63,0,44.34,0c0-10.85,0-21.47,0-32.1c0.1-0.01,0.21-0.03,0.31-0.04
		c0.31,1.97,0.62,3.94,0.93,5.91c0.23-0.03,0.46-0.07,0.69-0.1c-0.24-3.04-0.48-6.08-0.72-9.12c0.15-0.02,0.29-0.04,0.44-0.06
		c0.34,1.39,0.68,2.78,1.02,4.17c0.31-0.04,0.61-0.07,0.92-0.11c-0.2-3.52,0.12-7.17-0.69-10.55
		c-4.56-19.16-27.69-26.34-42.57-13.41c-4.81,4.18-7.49,9.61-8.38,15.63c-0.67,4.58,0.08,9.37,0.18,14.07
		c0.17,8.14,0.35,16.28,0.45,24.42c0.01,0.72-0.53,1.45-0.82,2.17c-0.36-0.1-0.73-0.2-1.09-0.3c0-1.97,0-3.94,0-5.91
		c-0.67,1.2-0.9,2.42-0.62,3.51c0.64,2.48-1.12,2.73-2.41,2.19c-2.41-1.01-4.43-0.03-6.63,0.36
		C76.41,1331.36,75.35,1330.87,74.34,1330.67z M93.22,1381.9c-2.62-1.63-3.69-1.36-6.08,1.68c2.2-0.63,4.18-1.2,6.16-1.76
		c-0.44,0.53-0.88,1.06-1.21,1.47c5.29-0.33,10.59-0.65,16.29-1.01c-3.35-2.35-7.41,1.35-9.68-1.69
		C96.73,1381.06,94.98,1381.47,93.22,1381.9z M106.48,1336.87c2.4-2.15-1.25-1.76-1.24-2.79c0.4-0.47,0.73-0.85,1.29-1.52
		c-1.67,0.12-2.84,0.21-4.18,0.31c0.55,2.29,0.71,4.82,4.21,3.93c6.5,2.16,18.13,1.16,19.47-1.96c0.95,2.43,2.38,2.81,4.38,1.38
		c0.58-0.42,1.48-0.46,2.25-0.53c6.74-0.6,13.5-1.09,20.23-1.79c2.73-0.28,5.41-1,8.11-1.53c-0.01-0.25-0.02-0.51-0.04-0.76
		c-0.99-0.11-1.99-0.28-2.98-0.31c-4.65-0.13-9.31-0.25-13.96-0.33c-2.06-0.03-3.01-0.86-2.83-3.05c0.17-1.99,0.04-4.01,0.04-6.01
		c-0.58,2.13-0.67,4.25-0.55,6.36c0.12,2.33-0.7,3.32-3.16,3.17c-1.38-0.08-2.84,0.41-4.2,0.84c-1.98,0.62-3.86,1.85-5.86,2.06
		c-3.64,0.38-7.33,0.2-11,0.26c-1.22,0.02-2.44,0.03-3.66,0.12c-1.37,0.11-2.73,0.3-4.58,0.52
		C108.01,1335.41,107.24,1336.14,106.48,1336.87z M87.45,1295.91c-0.08-0.03-0.15-0.06-0.23-0.09c-0.23,0.85-0.64,1.68-0.68,2.54
		c-0.33,8.42-0.61,16.84-0.83,25.26c-0.01,0.33,0.76,0.68,1.74,1.49C87.45,1314.86,87.45,1305.39,87.45,1295.91z M95.35,1397.9
		c3.02-0.24,5.93-0.46,8.83-0.69c-0.02-0.28-0.03-0.56-0.05-0.84c-1.11-0.06-2.22-0.13-2.6-0.15c-1.15-1.07-2.09-2.37-2.45-2.22
		C97.56,1394.61,95.07,1394.3,95.35,1397.9z M114.34,1361.14c-0.12-1.98-0.29-3.6-0.29-5.21c0.01-1.42,0.16-2.98-1.82-2.83
		c-1.2,0.09-2.35,0.83-3.53,1.28c0.11,0.19,0.23,0.37,0.34,0.56c1.21,0.25,2.43,0.51,4.06,0.85c-0.93,0.79-1.37,1.15-1.39,1.17
		C112.63,1358.42,113.36,1359.59,114.34,1361.14z M107.09,1384.03c-1.45,1.33-2.62,2.41-3.79,3.49c0.19,0.18,0.37,0.36,0.56,0.53
		c0.51-0.43,1.01-0.85,1.52-1.28c0.22,0.22,0.44,0.45,0.66,0.67c-0.91,0.95-1.83,1.89-2.91,3.01c0.54,1.14,1.19,2.51,1.83,3.87
		c0.26-0.06,0.52-0.12,0.78-0.18c-0.21-1.08-0.42-2.16-0.7-3.57c0.23-0.12,0.94-0.51,1.44-0.77
		C106.68,1387.93,106.86,1386.24,107.09,1384.03z M102.03,1385.8c-0.24-0.16-0.48-0.33-0.73-0.49c-3.32,1.59-5.63,5.36-10.14,4.48
		c4.15,3,6.38-1.58,9.59-2.19C101.27,1387.49,101.61,1386.42,102.03,1385.8z M95.21,1411.06c1,2.22,3.1,2.38,10.3,0
		C102.1,1411.06,98.69,1411.06,95.21,1411.06z M92.34,1412.32c-0.23-3.78-2.49-0.93-3.63-1.19c-1.57-0.35-3.29-0.09-5.02-0.09
		c0.47,0.87,1.04,1.94,1.61,3c0.02-0.28,0.04-0.56,0.05-0.85C87.63,1412.91,89.9,1412.63,92.34,1412.32z M102.21,1405.65
		c3.79-1.75,6.45-0.46,8.31,3.23c0.42-1.79,0.69-2.92,1.04-4.42c-0.7,0.54-1.16,0.9-1.61,1.26
		C106.88,1402.6,104.38,1402.42,102.21,1405.65z M84.94,1369.15c2.67-0.82,4.8-1.48,6.93-2.14c-0.01-0.14-0.02-0.28-0.03-0.41
		c-1.35-0.14-2.69-0.28-4.04-0.42c0.18-0.68,0.3-1.13,0.52-1.96c-1.66,0.48-2.87,0.83-4.08,1.18c0.04,0.18,0.09,0.35,0.13,0.53
		c0.49,0.09,0.98,0.17,1.51,0.26C85.58,1367.14,85.33,1367.92,84.94,1369.15z M105.42,1368.23c-0.03-0.36-0.05-0.71-0.08-1.07
		c-3.81,0.12-7.69-1.15-11.38,1.07C97.78,1368.23,101.6,1368.23,105.42,1368.23z M109.51,1377.49c1.52,0,2.9,0.4,3.65-0.12
		c0.69-0.48,0.71-1.93,1.03-2.96c-0.22-0.05-0.44-0.1-0.66-0.15c-0.35,0.77-0.71,1.53-1.34,2.92c-0.22-1.45-0.33-2.14-0.47-3.05
		c-1.21,0.33-2.19,0.6-3.21,0.87C108.98,1376.16,109.34,1377.06,109.51,1377.49z M84.97,1389.32c-2.22,0-3.99,0-5.76,0
		c1.01,1.41,2.09,2.57,3.34,2.82C83.09,1392.24,84.01,1390.48,84.97,1389.32z M79.76,1374.34c-0.15,0.31-0.29,0.61-0.44,0.92
		c1.23,0.69,2.46,1.39,3.69,2.08c0.05-0.6,0.1-1.2,0.15-1.82c1.1-0.11,2.33-0.24,3.57-0.36c-0.01-0.27-0.02-0.54-0.02-0.81
		C84.39,1374.34,82.07,1374.34,79.76,1374.34z M90.54,1403.96c0.37,0.79,0.6,1.69,0.81,1.69c2.84-0.04,5.67-0.21,8.51-0.34
		c0.01-0.28,0.02-0.56,0.04-0.84C96.96,1404.3,94.03,1404.14,90.54,1403.96z M140.45,1320.06c0.19-0.04,0.38-0.08,0.57-0.12
		c0-5.24,0-10.48,0-15.72c-0.19,0.01-0.38,0.02-0.57,0.02C140.45,1309.52,140.45,1314.79,140.45,1320.06z M77.33,1412.22
		c2.18-0.33,3.36-0.5,4.75-0.71c-0.72-1.26-1.3-2.29-2.44-4.28C78.75,1409.16,78.18,1410.39,77.33,1412.22z M102.19,1351.89
		c-1.02,0.11-1.67,0.18-1.97,0.21c-0.21,1.22-0.38,2.19-0.48,2.74c-1.08-0.77-1.93-1.38-2.78-2c-0.16,0.23-0.32,0.47-0.47,0.7
		C99.75,1357.15,99.85,1357.13,102.19,1351.89z M78.33,1349.02c0.68,2.66,3.23,1.59,4.93,2.15c0.3,0.1,1.01-1.06,1.69-1.82
		C82.43,1349.22,80.49,1349.12,78.33,1349.02z M87.12,1405.31c-0.85-1.74-6.67-2.6-9.04-0.79
		C81.32,1404.8,84.17,1405.05,87.12,1405.31z M80.82,1386.16c0.04,0.26,0.07,0.52,0.11,0.78c1.59-0.38,3.4-0.42,4.65-1.28
		c0.59-0.4,0.1-2.38,0.1-3.64c-0.27,0.02-0.53,0.03-0.8,0.05C84.87,1384.51,84.87,1384.51,80.82,1386.16z M86.39,1395.61
		c-0.04,0.31-0.07,0.62-0.11,0.93c1.79,0.21,3.36,3.49,5.77-0.46C89.95,1395.91,88.17,1395.76,86.39,1395.61z M93.71,1386.64
		c0.07-0.26,0.13-0.52,0.2-0.78c-2.14-0.14-4.28-0.31-6.42-0.37c-0.14,0-0.3,0.77-0.56,1.46
		C89.38,1386.84,91.55,1386.74,93.71,1386.64z M102.25,1372.68c0.37-1.21,0.72-2.38,1.11-3.63c-1.43,0.75-4.05,0.49-2.97,3.63
		C101.22,1372.68,102.01,1372.68,102.25,1372.68z M84.52,1371.75c2.02,0.58,4.04,1.16,5.99,1.72
		C89.85,1369.52,86.83,1371.56,84.52,1371.75z M146.71,1324.91c0.14-0.02,0.28-0.05,0.42-0.07c0-2.31,0-4.61,0-6.92
		c-0.14,0-0.28,0-0.42,0C146.71,1320.24,146.71,1322.57,146.71,1324.91z"/>
</g>
<path class="st1" d="M-12.22,137c2.63-0.37,2.26,1.26,2.12,2.61c-1.67,15.64-1.88,31.34-1.65,47.05c0.05,3.34,0.17,6.69,0.44,10.02
	c0.22,2.66-0.85,4.3-3.31,5.19c0.19-14.98,0.27-29.94,0.62-44.88c0.14-5.95,0.86-11.88,1.35-17.82
	C-12.6,138.46-12.38,137.76-12.22,137z"/>
<g>
	<g>
		<g class="st2">
			<g>
				<polygon class="st3" points="85.11,485.79 131.85,480.03 133.75,586.57 87.01,592.34 				"/>
			</g>
			<g>
				<polygon class="st4" points="87.01,592.34 133.75,586.57 193.98,630.32 147.23,636.09 				"/>
			</g>
			<g>
				<path class="st5" d="M84.74,484.58l60.93,44.27l1.94,108.46l-60.93-44.27L84.74,484.58z M147.23,636.09l-1.9-106.54
					l-60.22-43.76l1.9,106.54L147.23,636.09"/>
			</g>
			<g>
				<polygon class="st4" points="84.74,484.58 131.48,478.81 192.41,523.08 145.67,528.85 				"/>
			</g>
			<g>
				<polygon class="st3" points="145.67,528.85 192.41,523.08 194.35,631.54 147.6,637.31 				"/>
			</g>
		</g>
	</g>
</g>
<g>
	<g>
		<g class="st2">
			<g>
				<polygon class="st3" points="26.83,494.54 73.58,488.77 75.46,594.36 28.72,600.13 				"/>
			</g>
			<g>
				<polygon class="st4" points="28.72,600.13 75.46,594.36 135.33,637.85 88.58,643.62 				"/>
			</g>
			<g>
				<path class="st5" d="M26.09,492.11l61.29,44.53l1.95,109.42l-61.29-44.53L26.09,492.11z M88.58,643.62L86.7,538.04l-59.87-43.5
					l1.88,105.58L88.58,643.62"/>
			</g>
			<g>
				<polygon class="st4" points="26.09,492.11 72.83,486.34 134.12,530.87 87.38,536.64 				"/>
			</g>
			<g>
				<polygon class="st3" points="87.38,536.64 134.12,530.87 136.07,640.29 89.33,646.05 				"/>
			</g>
		</g>
	</g>
</g>
<path class="st0" d="M78.44,1790.52c6.58-20.24,13.16-40.48,19.83-60.99c-7.36,0-14.46,0-21.79,0c0.39-0.85,0.65-1.45,0.95-2.03
	c4.17-7.99,8.35-15.98,12.54-23.96c3.07-5.85,6.15-11.69,9.21-17.54c2-3.82,3.97-7.66,5.97-11.49c3.22-6.14,6.45-12.28,9.67-18.42
	c1.06-2.02,2.15-4.01,3.15-6.06c0.4-0.83,0.92-1.13,1.82-1.12c11.11,0.02,22.21,0.02,33.32,0.02c1.03,0,2.06,0,3.09,0
	c0.08,0.12,0.17,0.23,0.25,0.35c-12.17,20.42-24.33,40.84-36.67,61.55c8.18,0,15.93,0,23.69,0c0.08,0.11,0.15,0.22,0.23,0.34
	c-21.66,26.51-43.31,53.03-64.97,79.54C78.62,1790.64,78.53,1790.58,78.44,1790.52z"/>
<g>
	<g>
		<g class="st2">
			<g>
				<polygon class="st3" points="181.06,2102.25 180.23,2150.72 123.64,2154.68 124.48,2106.21 				"/>
			</g>
			<g>
				<polygon class="st5" points="196.8,2113.46 195.97,2161.93 180.23,2150.72 181.06,2102.25 				"/>
			</g>
			<g>
				<polygon class="st6" points="140.22,2117.42 139.38,2165.89 123.64,2154.68 124.48,2106.21 				"/>
			</g>
			<g>
				<polygon class="st7" points="181.06,2102.25 196.8,2113.46 140.22,2117.42 124.48,2106.21 				"/>
			</g>
			<g>
				<polygon class="st8" points="196.8,2113.46 195.97,2161.93 139.38,2165.89 140.22,2117.42 				"/>
			</g>
			<g>
				<polygon class="st5" points="138.99,2118.02 138.15,2166.49 121.09,2154.34 121.92,2105.87 				"/>
			</g>
			<g>
				<polygon class="st3" points="199.35,2113.8 198.52,2162.27 138.15,2166.49 138.99,2118.02 				"/>
			</g>
			<g>
				<path class="st9" d="M121.92,2105.87l60.36-4.22l17.06,12.15l-60.36,4.22L121.92,2105.87z M196.8,2113.46l-15.74-11.21
					l-56.59,3.96l15.74,11.21L196.8,2113.46"/>
			</g>
		</g>
	</g>
</g>
<g>
	<g>
		<g class="st2">
			<g>
				<polygon class="st3" points="99.43,2015.34 96.93,2160.76 40.34,2164.72 42.84,2019.3 				"/>
			</g>
			<g>
				<polygon class="st5" points="115.17,2026.55 112.67,2171.97 96.93,2160.76 99.43,2015.34 				"/>
			</g>
			<g>
				<polygon class="st10" points="58.58,2030.51 56.08,2175.92 40.34,2164.72 42.84,2019.3 				"/>
			</g>
			<g>
				<path class="st9" d="M40.3,2018.96l60.36-4.22l17.06,12.15l-60.36,4.22L40.3,2018.96z M115.17,2026.55l-15.74-11.21l-56.59,3.96
					l15.74,11.21L115.17,2026.55"/>
			</g>
			<g>
				<polygon class="st11" points="99.43,2015.34 115.17,2026.55 58.58,2030.51 42.84,2019.3 				"/>
			</g>
			<g>
				<polygon class="st12" points="115.17,2026.55 112.67,2171.97 56.08,2175.92 58.58,2030.51 				"/>
			</g>
			<g>
				<polygon class="st5" points="57.36,2031.11 54.86,2176.53 37.79,2164.38 40.3,2018.96 				"/>
			</g>
			<g>
				<polygon class="st3" points="117.72,2026.89 115.22,2172.31 54.86,2176.53 57.36,2031.11 				"/>
			</g>
		</g>
	</g>
</g>
<g>
	<path class="st0" d="M47.02,1014.96c3.27,3.81,6.19,7.21,9.11,10.6c5.01,5.83,10.08,11.61,15,17.51c2.22,2.66,1.56,7.23-1.09,9.22
		c-3.1,2.33-7.15,1.72-9.58-1.22c-3.85-4.64-7.84-9.16-11.77-13.74c-4.7-5.47-9.39-10.95-14.09-16.42c-2.19-2.56-4.47-5.05-6.54-7.7
		c-2.5-3.18-2-6.78,0.7-9.69c3.53-3.81,6.85-7.82,10.21-11.79c4.05-4.78,8.04-9.61,12.06-14.41c2.88-3.44,5.81-6.85,8.63-10.34
		c2.41-2.97,5.18-4.09,8.17-3.09c4.62,1.54,5.96,7.1,2.69,10.97c-7.13,8.44-14.23,16.91-21.34,25.37c-0.33,0.39-0.58,0.85-1.04,1.55
		c0.94,0,1.63,0,2.31,0c43.46-0.07,86.93-0.15,130.39-0.22c3.52-0.01,6.22,2.36,6.79,5.92c0.45,2.81-1.74,6.02-4.82,6.96
		c-0.71,0.22-1.49,0.27-2.24,0.28c-43.64,0.09-87.28,0.16-130.92,0.23C48.96,1014.96,48.26,1014.96,47.02,1014.96z"/>
	<path class="st0" d="M166.6,929.7c-3.94-4.6-7.51-8.77-11.09-12.93c-4.32-5.02-8.68-10.01-12.94-15.08
		c-2.24-2.67-1.72-7.17,0.91-9.24c3.02-2.38,7.2-1.85,9.61,1.03c3.98,4.76,8.09,9.42,12.13,14.13c4.62,5.38,9.22,10.78,13.83,16.17
		c2.23,2.6,4.55,5.14,6.66,7.84c2.29,2.92,1.82,6.6-0.63,9.29c-3.58,3.93-7.02,7.99-10.45,12.04c-4.05,4.78-8.04,9.61-12.06,14.41
		c-2.88,3.45-5.8,6.86-8.63,10.34c-2.34,2.88-5.09,4.01-8.02,3.1c-4.71-1.46-6.1-7.13-2.77-11.06c7.13-8.44,14.23-16.91,21.34-25.37
		c0.32-0.39,0.57-0.84,1.02-1.51c-0.99,0-1.68,0-2.37,0c-43.4,0.07-86.81,0.15-130.21,0.22c-3.67,0.01-6.39-2.34-6.94-5.96
		c-0.42-2.81,1.79-6.02,4.86-6.94c0.71-0.21,1.5-0.25,2.25-0.25c43.64-0.08,87.28-0.16,130.93-0.23
		C164.71,929.71,165.39,929.71,166.6,929.7z"/>
</g>
<g>
	<path class="st0" d="M82.81,174.9c-0.2,0.27-0.35,0.63-0.62,0.81c-0.86,0.56-1.75,1.07-2.64,1.57c-0.56,0.31-1.14,0.57-1.71,0.86
		c-1.57,0.81-3.16,1.59-4.7,2.45c-0.52,0.29-0.94,0.77-1.41,1.16c-0.12,0.1-0.24,0.3-0.36,0.3c-1.35-0.01-2.26,0.8-3.24,1.58
		c-0.86,0.69-1.68,1.49-2.99,1.46c-0.47-0.01-0.96,0.61-1.6,1.05c1.43,0.6,2.18-0.41,3.04-0.8c2.31-1.07,4.58-2.24,6.82-3.46
		c1.42-0.77,2.75-1.69,4.14-2.52c0.98-0.59,1.98-1.15,2.98-1.7c1.71-0.95,3.43-1.91,5.16-2.83c0.66-0.35,1.41-0.54,2.03-0.95
		c1.55-1.04,3.24-1.75,4.97-2.42c0.76-0.3,0.86-1.14,0.29-2.52c0.41-0.23,0.85-0.44,1.23-0.73c0.27-0.2,0.66-0.55,0.63-0.78
		c-0.29-1.92,1.25-2.73,2.28-3.83c0.39-0.41,1.17-0.57,1.37-1.02c0.4-0.9,1.1-1.03,1.83-0.99c1.26,0.08,2.52,0.32,3.77,0.49
		c0.01,0.15,0.03,0.31,0.04,0.46c-0.93,0.48-2,0.81-2.76,1.49c-0.72,0.64-1.1,1.64-1.49,2.63c1.93-0.85,4.21-0.72,5.64-2.53
		c0.41-0.51,0.97-0.89,1.46-1.33c-0.06-0.1-0.12-0.19-0.18-0.29c0.26,0,0.52,0,0.77,0c0.03-0.07,0.05-0.14,0.08-0.22
		c-0.3-0.16-0.61-0.31-1-0.52c1.93-2.19,3.84-4.36,5.72-6.49c0.04,0.34,0.1,0.81,0.15,1.28c0.12,0.04,0.24,0.08,0.36,0.13
		c0.46-0.96,0.82-2.01,1.42-2.87c0.6-0.85,0.58-2.29,2.15-2.36c-0.69-3.35-1.35-6.65-2.08-9.93c-0.07-0.32-0.54-0.62-0.89-0.79
		c-2.62-1.3-4.33-3.25-4.17-6.29c0.12-2.24,0.91-4.21,3.36-5.02c0.53-0.17,0.97-0.62,1.47-0.9c1.24-0.7,2.49-1.38,3.74-2.07
		c1.71-0.94,3.65-1.45,5.1-2.88c0.31-0.31,1.04-0.15,1.54-0.32c1.1-0.37,2.16-0.86,3.26-1.23c0.99-0.33,2.03-0.52,3.03-0.83
		c0.73-0.23,1.44-0.58,2.15-0.88c0.08-0.03,0.18-0.17,0.2-0.15c0.82,0.55,1.29-0.32,1.93-0.48c1.75-0.43,3.5-0.87,5.25-1.29
		c1.36-0.33,2.71-0.73,4.08-0.97c0.98-0.17,2.01-0.06,3-0.17c0.95-0.1,1.88-0.33,2.77-0.72c-12.28,1.1-24.12,3.78-34.92,9.92
		c-1.65-0.87-3.32-1.69-4.94-2.62c-4.49-2.56-5.88-9.16-2.84-13.06c0.16,0.3,0.27,0.73,0.55,0.92c0.22,0.16,0.64,0.03,1.03,0.03
		c0.02-0.55,0.14-1.17,1.14-0.7c-0.14-1.49,1.03-1.42,1.88-1.77c0.85-0.34,1.66-0.77,2.48-1.17c0.09-0.04,0.14-0.2,0.22-0.21
		c1.32-0.19,2.16-0.95,2.62-2.18c0.03-0.08,0.17-0.15,0.27-0.17c0.89-0.13,1.77-0.16,2.45-0.96c0.22-0.25,0.92-0.08,1.49-0.11
		c0.26-0.54,0.57-1.21,0.92-1.94c0.15,0.27,0.3,0.52,0.53,0.93c0.36-0.39,0.68-0.73,0.83-0.89c0.48,0.13,0.94,0.41,1.19,0.29
		c0.38-0.19,0.61-0.67,0.92-1.07c0.04,0.07,0.19,0.31,0.44,0.73c0.45-0.46,0.85-0.88,1.23-1.27c0.05,0.15,0.14,0.45,0.28,0.91
		c0.53-0.39,1.07-0.68,1.46-1.1c0.63-0.68,1.43-0.7,2.23-0.84c0.25-0.04,0.44-0.38,0.71-0.62c0.71,0.56,1.44,0.87,2.05-0.17
		c0.06-0.1,0.3-0.09,0.46-0.11c1.04-0.16,2.07-0.31,3.11-0.46c0.17-0.03,0.4-0.01,0.5-0.12c0.89-0.9,1.95-0.82,3.09-0.69
		c0.48,0.05,1.11-0.13,1.5-0.43c1.34-1.03,2.92-0.79,4.41-0.88c0.68-0.04,1.38,0.27,2.07,0.42c0.26-0.39,0.55-0.84,0.93-1.42
		c-6.33-0.27-12.42,0.54-18.47,1.93c-5.99,1.38-11.69,3.53-17.27,6.17c0.14-0.17,0.24-0.4,0.42-0.51c1.92-1.19,3.76-2.54,5.79-3.49
		c2.81-1.32,5.71-2.53,8.68-3.43c4.15-1.25,8.44-1.95,12.77-2.41c2.47-0.26,4.9-0.64,7.39-0.37c2.64,0.29,5.23,0.69,7.69,1.76
		c1.48,0.65,2.96,1.3,4.47,1.85c5.01,1.85,7.8,6.21,7.08,11.13c-0.34,2.3-1.65,4.04-3.19,5.68c-0.66,0.7-1.22,1.51-1.93,2.41
		c1.34,0.4,2.37,0.71,3.39,1.02c-4-0.66-7.99-1.05-12.06-0.19c0.59,0.11,1.18,0.32,1.77,0.31c0.81-0.01,1.62-0.18,2.42-0.29
		c0.1-0.01,0.22-0.13,0.3-0.1c1.1,0.33,2.19,0.7,3.3,0.99c0.43,0.11,0.92-0.01,1.37,0.05c0.32,0.04,0.63,0.22,0.94,0.33
		c1.45,0.53,2.91,1.03,4.34,1.61c0.56,0.23,1.03,0.67,1.55,0.99c0.46,0.29,0.86,0.4,0.66-0.56c1.72,2.6,1.61,5.34-0.46,7.75
		c-0.87,1.02-0.97,1.89-0.7,3.11c1.34,6.12,2.63,12.25,3.85,18.39c0.2,1,0.66,1.48,1.54,1.81c2.12,0.82,3.44,2.36,3.87,4.6
		c0.33,1.7-0.22,3.12-1.45,4.3c-0.27,0.26-0.51,0.57-0.85,0.94c-0.37-0.98-0.73-1.86-1.98-1.54c-0.16,0.04-0.42-0.34-0.55-0.45
		c-3.67,0.76-2.84,3.42-2.35,5.81c-1.71-0.18-3.21-0.38-4.71-0.47c-1.36-0.08-2.72-0.02-4.21-0.02c0.43,0.67,0.74,1.16,1.13,1.77
		c0.13-0.33,0.23-0.59,0.34-0.89c0.41,0.29,0.77,0.71,1.21,0.83c0.42,0.12,0.93-0.06,1.49-0.12c0.04-0.21,0.1-0.54,0.17-0.88
		c0.21,1.87,1.8,0.71,2.61,1.26c0.03-0.29,0.05-0.55,0.09-0.91c1.1,0.23,2.33,0.19,3.2,0.72c2.51,1.52,5.6,1.97,7.71,4.21
		c-0.57-0.29-1.12-0.68-1.73-0.86c-3.33-1.01-6.71-1.7-10.22-1.52c-0.26,0.01-0.61,0.23-0.76,0.12c-0.99-0.7-1.76-0.09-2.39,0.27
		c-0.78-0.12-1.39-0.22-1.98-0.32c0.07,0.48,0.15,1.08,0.24,1.67c-0.45-1.37-1.16-2.09-2.49-1.95c-0.48,0.05-1.04,0.73-1.28,1.25
		c-0.18,0.4,0.09,1.01,0.17,1.63c0.2-0.22,0.33-0.36,0.25-0.27c0.44,0.12,0.91,0.35,0.99,0.26c0.44-0.53,0.79-0.11,1.2-0.02
		c0.55,0.12,1.13,0.15,1.7,0.15c0.22,0,0.42-0.22,0.65-0.28c0.23-0.06,0.47-0.05,0.8-0.07c0.54,0.78,0.62,0.77,1.16-0.17
		c1.18,0.67,2.34,0.8,3.62,0.29c0,0,0.06,0.16,0.12,0.31c0.15-0.12,0.29-0.32,0.39-0.3c0.5,0.08,1,0.32,1.49,0.31
		c0.49,0,0.99-0.33,1.48-0.33c1.07-0.01,2.14,0.07,3.2,0.18c0.35,0.04,0.69,0.26,1.03,0.4c0,0.01,0.01,0.02,0.01,0.03
		c0.77,0.24,1.55,0.49,2.46,0.78c-0.06-0.55-0.11-1.07-0.16-1.59c1.56,1.63,2.27,3.6,2.27,5.82c0,0.96-0.16,1.82-1,2.6
		c-0.79,0.74-1.11,1.97-1.8,2.85c-0.76,0.97-1.71,1.8-2.38,2.48c-0.59,1.03-0.9,2.04-1.57,2.66c-3.49,3.28-7.72,5.37-12.15,7.01
		c-6.86,2.55-11.56,3.53-19.21,4.29c0.35,0.11,0.53,0.19,0.71,0.21c4.01,0.5,8.01,1.17,12.03,1.45c3.39,0.23,6.8,0.02,10.2-0.04
		c4.35-0.07,8.69-0.18,13.04-0.24c0.41-0.01,0.83,0.27,1.25,0.35c0.21,0.04,0.74,0.6,0.63-0.25c0.55-0.06,1.09-0.2,1.63-0.17
		c0.69,0.04,1.37,0.29,2.06,0.31c1.47,0.05,2.95,0.02,4.45-0.2c-0.17-0.09-0.34-0.18-0.67-0.36c3.2,0,6.23,0,9.26,0
		c0-0.04,0-0.08,0-0.12c-1.2,0-2.4,0-3.6,0c0-0.02,0-0.04,0-0.06c1.8-0.16,3.59-0.36,5.39-0.43c0.32-0.01,0.89,0.53,0.93,0.87
		c0.12,1,0.61,1.6,1.44,2.14c2.06,1.34,3.07,3.34,3.19,5.76c0.07,1.42,0.48,2.56,1.64,3.48c1.59,1.28,2.28,3.06,2.3,5.08
		c0.04,3.35,0.02,6.71,0.07,10.06c0.03,2.14,0.12,4.28,0.25,6.42c0.13,2.19-0.25,2.83-2.37,3.51c-0.89,0.29-1.81,0.51-2.72,0.71
		c-9.11,2.02-11.87,2.25-22.4,2.78c-14.34,0.72-28.68,0.88-43.03,0.77c-0.89-0.01-1.95,0.41-2.56-0.84
		c-0.13-0.26-1.02-0.15-1.58,0.05c0.39,0.03,0.78,0.05,1.18,0.08c-0.45,0.62-0.99,0.84-1.58,0.37c-0.66-0.52-1.27-0.54-1.99-0.11
		c-0.34,0.21-0.83,0.28-1.24,0.27c-6.37-0.25-12.74-0.46-19.11-0.83c-4.66-0.27-9.31-0.73-13.96-1.16c-1.21-0.11-2.4-0.42-3.66-0.65
		c0.19-0.14,0.29-0.21,0.45-0.32c-1.18-0.32-2.33-0.59-3.46-0.95c-2.04-0.66-2.5-1.25-2.48-3.37c0.04-5.5,0.12-11,0.2-16.51
		c0.03-1.99,0.79-3.72,2.33-4.95c1.16-0.92,1.51-2.07,1.53-3.4c0.02-2.62,1.2-4.58,3.39-5.94c0.74-0.46,1.03-1.08,1.07-1.89
		c0.04-0.82,0.42-1.19,1.26-1.03c1.29,0.25,2.57,0.55,3.87,0.7c1.03,0.13,2.09,0.09,3.13,0.1c4.62,0.05,9.25,0.09,13.87,0.12
		c1.26,0.01,2.52-0.07,3.78-0.03c0.88,0.03,1.75,0.25,2.63,0.28c1.45,0.05,2.91,0.01,4.39-0.16c-0.33-0.16-0.67-0.31-1.25-0.59
		c2.73-0.4,5.21-0.76,7.69-1.12c0.01-0.03,0.02-0.06,0.03-0.09c-1.16-0.13-2.33-0.2-3.48-0.4c-1.64-0.29-3.27-0.63-4.88-1.05
		c-1.2-0.31-2.3-0.83-3.06-1.92c-0.21-0.3-0.73-0.42-1.13-0.52c-2.09-0.57-4.09-1.3-5.57-2.97c-2.79-3.15-2.78-7.64,0.01-10.81
		c0.36-0.41,0.75-0.79,1.14-1.17c0.68-0.67,1.38-1.21,1.59-2.32c0.15-0.79,0.97-1.48,1.56-2.15c0.71-0.8,0.57-2.03-0.45-2.36
		c-1.47-0.48-2.93-0.95-4.55-0.15c-0.57,0.28-1.65-0.09-2.32-0.48c-0.78-0.46-1.41-1.22-2.02-1.92c-0.59-0.68-0.81-1.7-2.08-0.57
		c-0.93,0.82-2.34,1.06-3.5,1.63c-0.95,0.47-1.84,1.05-2.76,1.58c0.05,0.09,0.1,0.18,0.14,0.27c0.5-0.22,1-0.43,1.5-0.65
		c0.24,1.43-1,3.82-2.56,4.94c-2.96,2.12-6.02,1.86-8.92,0.44c-0.91,0.65-1.7,1.32-2.58,1.83c-3.33,1.93-6.71,3.77-10.03,5.72
		c-1.52,0.89-2.91,2-4.4,2.95c-4.62,2.96-9.29,5.85-13.89,8.84c-3.81,2.48-7.52,5.11-11.32,7.6c-8.64,5.68-17.59,10.85-26.71,15.72
		c-1.56,0.84-3.04,1.86-4.66,2.56c-1.4,0.6-2.95,0.87-4.44,1.29c-0.31,0.09-0.64,0.13-0.92,0.28c-1.51,0.83-3.05,0.74-4.62,0.2
		c-0.43-0.15-0.9-0.27-1.35-0.24c-1.55,0.1-2.67-0.6-3.43-1.86c-0.77-1.27-0.61-2.55,0.12-3.81c0.28-0.49,0.43-1.05,0.67-1.57
		c0.42-0.91,0.7-1.96,1.35-2.67c2.44-2.66,5.09-5.01,8.33-6.79c7.83-4.32,15.41-9.09,23.29-13.31c8.58-4.59,17.4-8.75,26.1-13.12
		c4.08-2.05,8.12-4.16,12.18-6.25c0.32-0.16,0.65-0.32,0.98-0.47C82.83,174.93,82.81,174.9,82.81,174.9z M176.34,206.26
		c0.51,0.02,1.02,0.05,1.71,0.08c-0.29,0.32-0.43,0.46-0.57,0.62c1.04,0.35,1.28,0.02,1.04-1.33c0.24,0.21,0.48,0.43,0.62,0.56
		c1.08-0.16,2.05-0.44,3.01-0.42c1.03,0.02,2.05,0.37,3.08,0.44c0.58,0.04,1.19-0.19,1.78-0.3c-0.02-0.06-0.04-0.12-0.06-0.18
		c1.14,0.2,2.29,0.4,3.43,0.6c0.65-0.08,1.35-0.7,1.97-0.62c1.06,0.13,2.11,0.08,3.15,0.16c0.7,0.05,1.3-0.02,1.95-0.18
		c0.52-0.13,1.06-0.18,1.59-0.28c0.28-0.05,0.55-0.18,0.83-0.22c0.82-0.1,1.68-0.34,2.47-0.2c1.06,0.19,1.71-0.09,2.35-1.23
		c-0.62-0.22-1.15-0.56-1.67-0.56c-1.43,0-2.86,0.14-4.28,0.21c-2.59,0.14-5.18,0.24-7.77,0.41c-2.43,0.16-4.85,0.41-7.27,0.56
		c-0.94,0.06-1.89-0.11-2.83-0.07c-0.44,0.02-0.87,0.28-1.31,0.43c0.01,0.1,0.02,0.2,0.03,0.3c-0.51-0.25-1.03-0.49-1.54-0.74
		c-0.06,0.07-0.13,0.15-0.19,0.22c0.23,0.38,0.47,0.75,0.7,1.13c-0.51-0.32-1.02-0.63-1.62-1c-1.02,0.43-1.05,0.49-0.56,1.64
		c-0.93-0.5-1.69-0.34-2.33,0.68c0.8,0,1.53,0,2.42,0C176.44,206.83,176.39,206.55,176.34,206.26z M137.45,147.56l0.03,0.03
		c-0.23-0.31-0.4-0.7-0.7-0.9c-1.32-0.92-2.05,0.65-3.41,0.62c0.45,0.33,0.62,0.45,0.8,0.58c-0.83,0-1.65,0-2.76,0
		c0.62-0.32,1-0.52,1.19-0.62c-0.29-0.37-0.6-0.68-0.81-1.04c-0.59-0.98-0.25-1.81,0.76-2.57c-0.56,0.05-0.88,0.08-1.2,0.11
		c-0.01-0.06-0.02-0.12-0.03-0.18c0.54-0.28,1.08-0.56,1.62-0.83c-0.05-0.12-0.11-0.25-0.16-0.37c-0.54,0.13-1.07,0.26-1.54,0.37
		c-0.29-0.22-0.55-0.42-0.92-0.7c0.48-0.57,1.03-1.24,1.58-1.9c-0.33,0.03-0.83,0.07-1.15,0.09c-0.22-0.32-0.39-0.55-0.51-0.73
		c0.38-0.36,0.75-0.7,1.16-1.08c0.19,0.04,0.46,0.1,0.73,0.16c-0.04-0.08-0.08-0.16-0.12-0.24c0.49-0.37,0.99-0.74,1.54-1.16
		c-1.32-0.98-2.31,0.69-3.62,0.18c1.15-0.78,2.18-1.47,3.47-2.33c-0.74,0.14-1.17,0.22-1.66,0.31c-0.02-0.42-0.04-0.83-0.06-1.3
		c0.34,0.16,0.58,0.28,0.95,0.46c-0.14-0.46-0.23-0.76-0.33-1.07c-0.32,0.04-0.59,0.07-0.95,0.11c0-1,0-1.93,0-2.92
		c-0.2,0.02-0.49,0.05-0.78,0.08c-0.01-0.04-0.01-0.08-0.02-0.12c0.42-0.17,0.84-0.34,1.27-0.51c-1.27,0.06-2.53-0.77-3.71,0.05
		c-0.03,0.02-0.14-0.02-0.2-0.07c-1.49-1.18-2.93,0.33-4.41,0.11c-0.13-0.02-0.36,0.15-0.43,0.29c-0.52,1.05-1.2,2.07-1.46,3.18
		c-0.27,1.16,0.8,2.26,0.57,3.51c-0.01,0.05,0.09,0.11,0.11,0.18c0.21,0.85,0.42,1.71,0.61,2.57c0.02,0.08-0.16,0.2-0.06,0.09
		c0.26,0.58,0.43,0.99,0.61,1.4c0.15,0.34,0.33,0.68,0.47,1.02c0.08,0.21,0.1,0.44,0.16,0.66c0.12,0.47,0.24,0.93,0.38,1.4
		c0.09,0.3,0.35,0.64,0.27,0.87c-0.27,0.78,0.02,1.21,0.43,1.36c0.19,0.68,0.32,1.13,0.47,1.62c0.24,0,0.54,0,0.66,0
		c-0.12,0.55-0.48,1.37-0.3,1.52c1.11,0.9,0.29,1.87,0.28,2.7c0.4,0.15,0.79,0.3,1.18,0.45c0,0.1,0,0.2,0,0.3
		c-1.36,0.47-2.07,1.35-1.96,2.79c0.01,0.08-0.13,0.17-0.19,0.25c-0.01,0.01,0,0.03,0.01,0.07c-0.56-0.31-1.11-0.63-1.67-0.94
		c-0.11,0.11-0.21,0.23-0.32,0.34c0.62,0.82,1.23,1.65,1.89,2.52c-1.4,0.79-1.27-1.14-2.41-0.98c0.35,0.58,0.66,1.07,0.96,1.56
		c-1.43,1.04-2.8,2.05-4.18,3.06c0.63,0.69,1.52,0.74,2.18,0c1.26-1.41,2.97-1.85,4.63-2.45c0.4-0.15,0.71-0.56,1.07-0.84
		c-0.06-0.11-0.12-0.22-0.17-0.33c0.46,0,0.93,0,1.39,0c0.02,0.11,0.05,0.23,0.07,0.34c0.36-0.29,0.84-0.52,1.04-0.89
		c0.46-0.83,1.06-1.24,2.01-1.21c0.55,0.02,1.18,0.06,1.64-0.17c0.68-0.33,1.21-0.97,1.88-1.34c0.44-0.24,1.01-0.28,1.53-0.33
		c0.81-0.06,1.63,0.02,2.43-0.08c1.08-0.15,1.9-1.14,3.1-1.03c0.09,0.01,0.18-0.11,0.28-0.15c0.85-0.34,1.71-0.67,2.52-0.99
		c-0.63,0-1.39-0.1-2.11,0.02c-1.53,0.26-3.04,0.69-4.56,0.97c-1.05,0.19-2.12,0.26-3.18,0.38c-0.01-0.09-0.02-0.17-0.03-0.26
		c0.23-0.18,0.45-0.36,0.7-0.57c-0.83-0.19-1.59-0.36-2.59-0.59c1.29-0.92-0.21-1.59,0.32-2.35c0.59,0.42,1.24,1.07,2,0.03
		c-1.01-0.42-2.34-0.65-1.58-2.24c0.05-0.13,0.11-0.26,0.21-0.49c0.53,1.78,0.93,2.21,1.84,2.04
		C137.05,149.28,137.56,148.52,137.45,147.56z M145.92,123.99c0.59,2.01,1.72,3.68,1.65,5.75c-0.02,0.76,0.37,1.53,0.55,2.3
		c0.09,0.41,0.11,0.83,0.19,1.25c0.21,1.12,0.43,2.24,0.64,3.36c0.22,1.19,0.42,2.38,0.66,3.57c0.24,1.25,0.53,2.48,0.76,3.73
		c0.43,2.26,0.83,4.53,1.25,6.9c7.38-0.79,14.68-1.35,22.06-0.1c-0.1-0.6-0.18-1.09-0.27-1.58c-1.39-7.07-2.83-14.13-4.12-21.22
		c-0.31-1.72-1.1-2.7-2.64-3.36c-2.45-1.06-5.02-1.35-7.63-1.48C154.64,122.87,150.28,123.12,145.92,123.99z M144.78,213.45
		c-0.03,0.09-0.06,0.18-0.1,0.26c-0.34-0.03-0.77,0.06-1-0.11c-1.16-0.92-2.57-0.92-3.89-0.97c-4.14-0.15-8.28-0.16-12.42-0.23
		c-3.22-0.05-6.43-0.11-9.65-0.16c-2.35-0.04-4.71-0.01-7.05-0.16c-2.99-0.19-5.96-0.51-8.94-0.83c-1.71-0.18-2.83,0.56-3.62,1.99
		c-0.46,0.84-0.31,1.24,0.66,1.38c1.53,0.23,3.04,0.74,4.63,0.33c0.55-0.14,1.18-0.1,1.75,0c0.82,0.14,1.61,0.49,2.43,0.57
		c0.7,0.07,1.42-0.17,2.13-0.16c1.52,0.03,3.04,0.18,4.56,0.21c1.04,0.03,2.08-0.02,3.12-0.11c0.22-0.02,0.43-0.31,0.69-0.52
		c1.03,1.03,1.94-0.3,2.98-0.27c-0.21,0.2-0.41,0.39-0.62,0.59c0.46,0.11,0.92,0.28,1.39,0.33c0.65,0.07,1.31,0.1,1.97,0.06
		c0.54-0.03,1.07-0.23,1.61-0.28c1.44-0.12,2.89-0.17,4.33-0.3c0.57-0.05,1.14-0.37,1.7-0.34c1.42,0.07,2.84,0.44,4.25,0.36
		c0.9-0.05,2.15,0.39,2.73-0.89c0.02-0.04,0.43,0,0.54,0.12c1.07,1.11,3.47,1.59,4.58,0.62c0.81-0.71,1.49-0.54,2.33-0.4
		c0.69,0.12,1.4,0.12,2.1,0.13c1.29,0.01,2.57,0,3.86-0.05c0.67-0.02,1.33-0.14,2.02-0.22c-0.56-1.47-0.84-1.66-2.19-1.65
		c-0.51,0-1.01-0.04-1.52-0.04c-1.97-0.01-3.94,0-6.02,0C144.38,213.02,144.58,213.23,144.78,213.45z M144.32,205.07
		c-0.01-0.03-0.02-0.07-0.04-0.1c0.82-0.05,1.64-0.18,2.45-0.13c2.92,0.18,5.83-0.62,8.78,0.04c0.99,0.22,2.16-0.32,3.24-0.51
		c0.32-0.06,0.63-0.16,0.94-0.16c1.09-0.02,2.17-0.01,3.26-0.01c0.02-0.13,0.04-0.26,0.06-0.4c-0.83-0.21-1.65-0.43-2.48-0.64
		c-0.02,0.06-0.03,0.12-0.05,0.19c0.25,0.09,0.51,0.17,0.76,0.26c-0.97-0.29-1.95,0.38-2.99-0.27c-0.76-0.47-1.96-0.24-2.97-0.26
		c-1.23-0.03-2.46-0.01-3.69-0.01c0,0.04,0,0.08,0,0.11c0.48,0.04,0.96,0.08,1.44,0.12c-0.21,0.19-0.41,0.21-0.61,0.19
		c-1.54-0.16-3.08-0.4-4.63-0.48c-1.51-0.08-3.03-0.01-4.54,0c-2.6,0-5.21-0.02-7.81,0.02c-0.59,0.01-1.17,0.35-1.76,0.35
		c-0.83-0.01-1.65-0.27-2.48-0.3c-0.74-0.03-1.49,0.17-2.22,0.14c-1.63-0.07-3.26-0.29-4.89-0.34c-2.35-0.07-4.71,0-7.06-0.08
		c-3.79-0.14-7.58-0.36-11.37-0.54c-1.46-0.07-2.4,0.93-3.46,1.69c-0.13,0.09-0.25,0.18-0.39,0.27c-0.47,0.31-0.58,1.39-0.11,1.53
		c0.66,0.21,1.36,0.34,2.06,0.43c0.93,0.13,1.84-0.22,2.8-0.16c0.96,0.06,1.94-0.3,2.91-0.38c1.01-0.08,2.04-0.09,3.06-0.06
		c0.55,0.02,1.11,0.32,1.63,0.24c1.05-0.18,2.05-0.62,3.1-0.8c0.4-0.07,0.88,0.27,1.32,0.42c-0.02,0.07-0.05,0.13-0.07,0.2
		c2.43-0.31,4.87-0.62,7.41-0.95c-0.14,0.28-0.24,0.48-0.29,0.58c1.39,0.63,2.79,1,4.28,0.09c1.55,1.1,3.26,0.47,5,0.03
		c-0.11,0.32-0.17,0.52-0.29,0.87c0.29-0.18,0.43-0.33,0.59-0.35c1.15-0.17,2.29-0.32,3.44-0.46c0.09-0.01,0.19,0.09,0.28,0.12
		c0.54,0.15,1.09,0.42,1.62,0.4c2.62-0.09,5.24-0.24,7.86-0.39c1.15-0.07,2.3-0.19,3.45-0.28c-0.01-0.07-0.02-0.14-0.03-0.21
		C149.33,205.07,146.83,205.07,144.32,205.07z M184.2,215.43c0,0.04,0.01,0.08,0.01,0.11c0.46-0.08,0.91-0.21,1.37-0.23
		c0.4-0.02,0.8,0.12,1.2,0.14c0.38,0.02,0.83-0.17,1.14-0.02c1.5,0.72,2.89,1.02,4.09-0.53c0.1-0.13,0.48-0.13,0.7-0.08
		c0.85,0.16,1.69,0.53,2.53,0.52c1.59-0.01,3.17-0.22,4.75-0.35c0.09-0.01,0.18-0.12,0.27-0.15c0.86-0.25,1.71-0.59,2.59-0.72
		c1.66-0.25,3.35-0.35,5.02-0.59c0.23-0.03,0.58-0.53,0.55-0.79c-0.05-0.48-2.64-1.95-3.15-1.91c-2,0.17-4,0.39-6.01,0.5
		c-4.78,0.25-9.57,0.45-14.36,0.67c-0.1,0-0.2,0.03-0.31,0.04c0.12,0.28,0.23,0.53,0.34,0.79c0.9-0.81,3.8-0.71,4.24,0.14
		c-0.46,0.08-0.92,0.19-1.38,0.24c-1.06,0.12-2.08,0.09-3.14,0.59c-0.85,0.4-1.93-0.31-3.09,0.24c-1.12,0.53-2.7,0.02-3.92,0.43
		c-1.33,0.44-2.66,0.18-3.95,0.48c-0.38,0.09-0.77,0.14-1.39,0.25c1.53,0.82,2.81,0.51,4.14,0.1c0.02,0.3,0.03,0.49,0.04,0.69
		c0.26-0.23,0.5-0.63,0.75-0.63c1.15-0.02,2.29,0.07,3.44,0.13c0.64,0.03,1.27,0.11,1.91,0.1
		C183.13,215.57,183.67,215.48,184.2,215.43z M139.19,174.26c0.44,0.05,0.79,0.09,1.15,0.13c0.03-0.95,0.85-0.76,1.32-0.74
		c0.79,0.04,1.44-0.94,2.29-0.28c0.05,0.04,0.25-0.12,0.37-0.19c0.47-0.29,0.93-0.81,1.4-0.82c0.61-0.01,1.58-0.73,1.76,0.44
		c0.48-0.35,0.93-0.7,1.54-1.15c0.24-1.13,0.64-1.3,1.26-0.75c1.03,0,1.73,0.03,2.42,0c0.45-0.02,1.17,0.01,1.3-0.24
		c0.68-1.26,1.2-0.62,1.68-0.07c0.31-0.55,0.64-1.12,0.96-1.68c-1.28,0.07-2.32,0.39-3.4,0.59c-1.62,0.3-3.26,0.5-4.9,0.76
		c-0.52,0.08-1.14-0.28-1.51,0.46c-0.08,0.17-0.73,0.29-0.84,0.17c-0.62-0.67-1.19-0.02-1.68,0.1c-1.53,0.38-3.01,0.97-4.51,1.43
		c-0.32,0.1-0.72-0.05-1.02,0.07c-1.62,0.6-3.22,1.24-4.83,1.89c-0.53,0.21-1.04,0.04-1.66,0.45c-1.51,0.98-3.33,1.46-4.98,2.24
		c-1.03,0.49-1.98,1.15-2.91,1.82c-0.22,0.16-0.18,0.67-0.28,1.13c1.15-0.33,2.1-0.6,3.04-0.88c0.27-0.08,0.59-0.12,0.77-0.3
		c0.94-0.93,2-1.18,3.15-0.6c0.13-0.32,0.26-0.63,0.38-0.92c0.2,0.29,0.41,0.6,0.49,0.71c0.66-0.22,1.11-0.38,1.56-0.51
		c0.62-0.18,1.2-0.39,0.93-1.24c-0.01-0.02,0.07-0.06,0.08-0.07c0.16,0.18,0.3,0.34,0.51,0.59c0.15-0.53,0.26-0.93,0.37-1.32
		c1.4,0.43,2.34,0.09,2.97-1.04c0.19,0.21,0.38,0.41,0.63,0.68C139.1,174.72,139.16,174.42,139.19,174.26z M168.39,104.58
		c0.09-0.04,0.17-0.08,0.26-0.13c-0.57-0.98-1.04-2.04-1.72-2.94c-1.37-1.81-3.44-2.31-5.52-2.84c-1.68-0.43-1.56-0.05-1.72,1.27
		c1.54,0.64,3.1,1.16,4.54,1.93C165.68,102.66,167,103.67,168.39,104.58z M149.85,108.79c4.82,0.29,9.59,0.46,13.84,3.1
		c-1.65-2.79-4.63-2.75-7.23-3.47c-0.26-0.07-0.61,0.21-0.92,0.33c-0.13-0.15-0.27-0.44-0.4-0.44c-1.07-0.01-2.15,0.01-3.22,0.06
		c-0.57,0.03-1.14,0.12-1.7,0.2C150.07,108.59,149.96,108.71,149.85,108.79z M171.66,151.5c2.29,0.79,4.33,1.5,6.36,2.21
		C176.88,152.02,173.42,150.83,171.66,151.5z M161.13,115.71c-0.59-1.28-6.38-2.73-7.42-1.92
		C156.11,114.41,158.63,115.06,161.13,115.71z M157.52,214.34c-0.94-1.57-1.82-1.88-3.41-1.13c0.73,0,1.15,0,1.63,0
		c0.06,0.19,0.13,0.41,0.22,0.67c-0.57,0.08-1.06,0.15-1.55,0.23c0.01,0.08,0.02,0.16,0.03,0.24
		C155.42,214.34,156.39,214.34,157.52,214.34z M147.36,200.61c-0.02-0.06-0.03-0.12-0.05-0.18c-4.46,0-8.92,0-13.38,0
		c0,0.06,0,0.12,0,0.18C138.41,200.61,142.88,200.61,147.36,200.61z M157.47,96.19c0.04-0.15,0.08-0.3,0.12-0.45
		c-1.58-0.43-3.15-0.86-4.73-1.28c-0.04,0.16-0.08,0.31-0.13,0.47C154.31,95.35,155.89,95.77,157.47,96.19z M112.53,168.34
		c1.33,0.81,1.75,0.35,2.36-2.53c-0.33,0.29-0.71,0.51-0.68,0.62C114.56,167.79,113.83,168.27,112.53,168.34z M152.28,99.55
		c-0.23-0.53-0.39-1.11-0.5-1.1c-0.5,0.04-0.98,0.25-1.47,0.39c0.01,0.15,0.02,0.29,0.02,0.44
		C150.87,99.36,151.42,99.43,152.28,99.55z M10.49,219.79c-0.24,1.67,0.35,3,1.22,2.92C11.34,221.81,10.97,220.94,10.49,219.79z
		 M158.51,169.2c0.03,0.12,0.07,0.24,0.1,0.36c0.83-0.22,1.66-0.44,2.49-0.66C160.11,168.21,159.28,168.55,158.51,169.2z
		 M167.56,215.22c0.03,0.1,0.06,0.2,0.09,0.31c0.54-0.29,1.11-0.53,1.6-0.88c0.18-0.13,0.16-0.53,0.21-0.75
		C168.77,214.38,168.16,214.8,167.56,215.22z M135.94,170.5c-0.06-0.12-0.11-0.25-0.17-0.37c-0.79,0.33-1.58,0.67-2.37,1
		c0.04,0.1,0.09,0.21,0.13,0.31C134.33,171.12,135.14,170.81,135.94,170.5z M137.93,146.4c0.18-0.11,0.37-0.21,0.55-0.32
		c-1.22-0.16-0.9-0.69-0.81-1.24c-0.31,0.34-0.55,0.72-0.52,1.08C137.17,146.1,137.66,146.24,137.93,146.4z"/>
	<path class="st0" d="M181.74,170.85c0.05,0.52,0.11,1.05,0.16,1.59c-0.91-0.29-1.68-0.53-2.46-0.78c0-0.01-0.01-0.02-0.01-0.03
		c-0.34-0.14-0.68-0.36-1.03-0.4c-1.06-0.11-2.13-0.19-3.2-0.18c-0.49,0-0.99,0.33-1.48,0.33c-0.5,0-0.99-0.23-1.49-0.31
		c-0.1-0.02-0.24,0.18-0.39,0.3c-0.06-0.15-0.12-0.31-0.12-0.31c-1.28,0.51-2.44,0.38-3.62-0.29c-0.55,0.95-0.62,0.95-1.16,0.17
		c-0.33,0.03-0.58,0.01-0.8,0.07c-0.23,0.06-0.43,0.28-0.65,0.28c-0.57,0-1.15-0.03-1.7-0.15c-0.41-0.09-0.76-0.51-1.2,0.02
		c-0.08,0.09-0.55-0.14-0.99-0.26c0.08-0.08-0.05,0.06-0.25,0.27c-0.08-0.62-0.35-1.23-0.17-1.63c0.24-0.52,0.8-1.2,1.28-1.25
		c1.33-0.14,2.03,0.57,2.49,1.95c-0.09-0.6-0.17-1.19-0.24-1.67c0.59,0.09,1.21,0.19,1.98,0.32c0.64-0.36,1.4-0.97,2.39-0.27
		c0.15,0.11,0.5-0.11,0.76-0.12c3.51-0.18,6.89,0.51,10.22,1.52c0.61,0.18,1.15,0.57,1.73,0.86
		C181.78,170.89,181.74,170.85,181.74,170.85z"/>
	<path class="st0" d="M82.83,174.93c2.44-1.42,4.88-2.84,7.32-4.26c0.05,0.07,0.09,0.14,0.14,0.21c-0.47,0.33-0.91,0.7-1.4,0.99
		c-1.62,0.95-3.25,1.9-4.9,2.8c-0.34,0.18-0.78,0.16-1.18,0.23C82.81,174.9,82.83,174.93,82.83,174.93z"/>
	<path class="st0" d="M145.92,123.99c4.36-0.86,8.72-1.12,13.1-0.9c2.61,0.13,5.18,0.42,7.63,1.48c1.53,0.66,2.32,1.65,2.64,3.36
		c1.29,7.09,2.73,14.15,4.12,21.22c0.1,0.49,0.17,0.99,0.27,1.58c-7.38-1.25-14.68-0.69-22.06,0.1c-0.43-2.37-0.83-4.64-1.25-6.9
		c-0.23-1.25-0.52-2.48-0.76-3.73c-0.23-1.19-0.44-2.38-0.66-3.57c-0.21-1.12-0.43-2.24-0.64-3.36c-0.08-0.41-0.1-0.84-0.19-1.25
		c-0.18-0.77-0.57-1.54-0.55-2.3C147.64,127.67,146.51,126,145.92,123.99z"/>
	<path class="st0" d="M125.3,156.33c0.07-0.08,0.2-0.17,0.19-0.25c-0.11-1.43,0.6-2.32,1.96-2.79c0-0.1,0-0.2,0-0.3
		c-0.39-0.15-0.78-0.3-1.18-0.45c0.01-0.83,0.83-1.79-0.28-2.7c-0.18-0.15,0.18-0.97,0.3-1.52c-0.12,0-0.42,0-0.66,0
		c-0.14-0.49-0.27-0.95-0.47-1.62c-0.41-0.14-0.7-0.58-0.43-1.36c0.08-0.23-0.18-0.57-0.27-0.87c-0.14-0.46-0.26-0.93-0.38-1.4
		c-0.06-0.22-0.08-0.45-0.16-0.66c-0.14-0.35-0.32-0.68-0.47-1.02c-0.18-0.4-0.36-0.81-0.61-1.4c-0.09,0.11,0.08-0.01,0.06-0.09
		c-0.18-0.86-0.4-1.71-0.61-2.57c-0.02-0.07-0.12-0.13-0.11-0.18c0.23-1.25-0.84-2.35-0.57-3.51c0.26-1.12,0.94-2.14,1.46-3.18
		c0.07-0.14,0.3-0.31,0.43-0.29c1.48,0.22,2.91-1.28,4.41-0.11c0.05,0.04,0.16,0.09,0.2,0.07c1.18-0.82,2.44,0.01,3.71-0.05
		c-0.42,0.17-0.84,0.34-1.27,0.51c0.01,0.04,0.01,0.08,0.02,0.12c0.29-0.03,0.58-0.06,0.78-0.08c0,0.99,0,1.92,0,2.92
		c0.36-0.04,0.63-0.08,0.95-0.11c0.1,0.32,0.19,0.61,0.33,1.07c-0.37-0.18-0.61-0.3-0.95-0.46c0.02,0.48,0.04,0.89,0.06,1.3
		c0.48-0.09,0.92-0.17,1.66-0.31c-1.29,0.87-2.31,1.56-3.47,2.33c1.31,0.51,2.3-1.17,3.62-0.18c-0.56,0.42-1.05,0.79-1.54,1.16
		c0.04,0.08,0.08,0.16,0.12,0.24c-0.27-0.06-0.54-0.12-0.73-0.16c-0.4,0.38-0.78,0.73-1.16,1.08c0.12,0.17,0.29,0.41,0.51,0.73
		c0.31-0.03,0.81-0.07,1.15-0.09c-0.55,0.66-1.11,1.33-1.58,1.9c0.37,0.28,0.64,0.49,0.92,0.7c0.46-0.11,1-0.24,1.54-0.37
		c0.05,0.12,0.11,0.25,0.16,0.37c-0.54,0.28-1.08,0.56-1.62,0.83c0.01,0.06,0.02,0.12,0.03,0.18c0.32-0.03,0.63-0.06,1.2-0.11
		c-1.01,0.76-1.34,1.59-0.76,2.57c0.22,0.36,0.52,0.67,0.81,1.04c-0.18,0.1-0.57,0.3-1.19,0.62c1.11,0,1.94,0,2.76,0l-0.01,0
		c-0.77,1.58,0.56,1.81,1.57,2.24c-0.76,1.04-1.4,0.39-2-0.03c-0.53,0.76,0.97,1.43-0.32,2.35c1,0.23,1.76,0.4,2.59,0.59
		c-0.25,0.2-0.48,0.38-0.7,0.57c0.01,0.09,0.02,0.17,0.03,0.26c1.06-0.12,2.13-0.18,3.18-0.38c1.53-0.28,3.03-0.7,4.56-0.97
		c0.72-0.12,1.47-0.02,2.11-0.02c-0.81,0.32-1.67,0.65-2.52,0.99c-0.1,0.04-0.19,0.16-0.28,0.15c-1.19-0.12-2.01,0.88-3.1,1.03
		c-0.8,0.11-1.62,0.02-2.43,0.08c-0.52,0.04-1.09,0.08-1.53,0.33c-0.67,0.37-1.2,1.01-1.88,1.34c-0.46,0.23-1.09,0.18-1.64,0.17
		c-0.95-0.03-1.55,0.38-2.01,1.21c-0.21,0.38-0.69,0.6-1.04,0.89c-0.02-0.11-0.05-0.23-0.07-0.34c-0.46,0-0.93,0-1.39,0
		c0.06,0.11,0.12,0.22,0.17,0.33c-0.35,0.29-0.66,0.7-1.07,0.84c-1.66,0.6-3.37,1.04-4.63,2.45c-0.66,0.74-1.54,0.69-2.18,0
		c1.38-1.01,2.76-2.02,4.18-3.06c-0.3-0.49-0.6-0.99-0.96-1.56c1.14-0.16,1.01,1.77,2.41,0.98c-0.66-0.88-1.27-1.7-1.89-2.52
		c0.11-0.11,0.21-0.23,0.32-0.34c0.56,0.31,1.11,0.63,1.67,0.94c-0.16,0.08-0.47,0.19-0.46,0.24c0.13,0.67,0.98,1,1.92,0.57
		C126.2,156.87,125.75,156.6,125.3,156.33z M131.46,151.08c0.02,0.93,0.56,0.88,1.04,0.66c0.23-0.11,0.52-0.66,0.44-0.78
		C132.34,150.07,132.01,151.32,131.46,151.08z"/>
	<path class="st0" d="M144.78,213.45c-0.2-0.22-0.4-0.43-0.67-0.72c2.08,0,4.05,0,6.02,0c0.51,0,1.01,0.05,1.52,0.04
		c1.35-0.01,1.62,0.18,2.19,1.65c-0.69,0.08-1.36,0.2-2.02,0.22c-1.28,0.05-2.57,0.06-3.86,0.05c-0.7,0-1.41-0.01-2.1-0.13
		c-0.84-0.14-1.52-0.31-2.33,0.4c-1.1,0.97-3.51,0.49-4.58-0.62c-0.11-0.11-0.52-0.15-0.54-0.12c-0.58,1.28-1.83,0.84-2.73,0.89
		c-1.41,0.08-2.83-0.29-4.25-0.36c-0.56-0.03-1.13,0.29-1.7,0.34c-1.44,0.13-2.89,0.18-4.33,0.3c-0.54,0.04-1.07,0.25-1.61,0.28
		c-0.65,0.04-1.31,0.01-1.97-0.06c-0.47-0.05-0.93-0.22-1.39-0.33c0.21-0.2,0.41-0.39,0.62-0.59c-1.04-0.02-1.95,1.3-2.98,0.27
		c-0.26,0.2-0.46,0.5-0.69,0.52c-1.04,0.08-2.08,0.13-3.12,0.11c-1.52-0.04-3.04-0.18-4.56-0.21c-0.71-0.02-1.43,0.23-2.13,0.16
		c-0.82-0.08-1.61-0.44-2.43-0.57c-0.57-0.09-1.2-0.14-1.75,0c-1.6,0.41-3.1-0.1-4.63-0.33c-0.97-0.14-1.12-0.55-0.66-1.38
		c0.79-1.43,1.92-2.18,3.62-1.99c2.98,0.32,5.96,0.63,8.94,0.83c2.34,0.15,4.7,0.11,7.05,0.16c3.22,0.06,6.43,0.11,9.65,0.16
		c4.14,0.07,8.28,0.08,12.42,0.23c1.32,0.05,2.73,0.05,3.89,0.97c0.22,0.18,0.66,0.08,1,0.11
		C144.72,213.63,144.75,213.54,144.78,213.45z"/>
	<path class="st0" d="M144.32,205.07c2.51,0,5.02,0,7.53,0c0.01,0.07,0.02,0.14,0.03,0.21c-1.15,0.1-2.3,0.22-3.45,0.28
		c-2.62,0.15-5.24,0.31-7.86,0.39c-0.54,0.02-1.08-0.26-1.62-0.4c-0.1-0.03-0.2-0.13-0.28-0.12c-1.15,0.14-2.3,0.29-3.44,0.46
		c-0.16,0.02-0.3,0.17-0.59,0.35c0.12-0.35,0.19-0.56,0.29-0.87c-1.74,0.45-3.45,1.08-5-0.03c-1.48,0.92-2.89,0.55-4.28-0.09
		c0.05-0.1,0.15-0.3,0.29-0.58c-2.54,0.32-4.97,0.63-7.41,0.95c0.02-0.07,0.05-0.13,0.07-0.2c-0.44-0.15-0.91-0.49-1.32-0.42
		c-1.05,0.18-2.05,0.61-3.1,0.8c-0.51,0.09-1.08-0.22-1.63-0.24c-1.02-0.03-2.04-0.03-3.06,0.06c-0.98,0.08-1.95,0.44-2.91,0.38
		c-0.96-0.06-1.87,0.29-2.8,0.16c-0.69-0.1-1.39-0.22-2.06-0.43c-0.46-0.15-0.36-1.23,0.11-1.53c0.13-0.09,0.26-0.18,0.39-0.27
		c1.06-0.76,1.99-1.76,3.46-1.69c3.79,0.18,7.58,0.4,11.37,0.54c2.35,0.09,4.71,0.01,7.06,0.08c1.63,0.05,3.26,0.27,4.89,0.34
		c0.74,0.03,1.49-0.17,2.22-0.14c0.83,0.03,1.65,0.29,2.48,0.3c0.58,0.01,1.17-0.34,1.76-0.35c2.6-0.04,5.21-0.02,7.81-0.02
		c1.52,0,3.03-0.08,4.54,0c1.55,0.08,3.08,0.32,4.63,0.48c0.2,0.02,0.4,0,0.61-0.19c-0.48-0.04-0.96-0.08-1.44-0.12
		c0-0.04,0-0.08,0-0.11c1.23,0,2.46-0.02,3.69,0.01c1.01,0.03,2.21-0.2,2.97,0.26c1.04,0.64,2.02-0.02,2.99,0.27
		c-0.25-0.09-0.51-0.17-0.76-0.26c0.02-0.06,0.03-0.12,0.05-0.19c0.83,0.21,1.65,0.43,2.48,0.64c-0.02,0.13-0.04,0.26-0.06,0.4
		c-1.09,0-2.17-0.01-3.26,0.01c-0.32,0.01-0.63,0.11-0.94,0.16c-1.08,0.19-2.25,0.73-3.24,0.51c-2.95-0.66-5.86,0.14-8.78-0.04
		c-0.81-0.05-1.63,0.08-2.45,0.13C144.29,205,144.3,205.04,144.32,205.07z"/>
	<path class="st0" d="M184.2,215.43c-0.54,0.05-1.07,0.14-1.61,0.14c-0.64,0-1.27-0.07-1.91-0.1c-1.15-0.06-2.29-0.15-3.44-0.13
		c-0.25,0-0.5,0.41-0.75,0.63c-0.01-0.19-0.02-0.39-0.04-0.69c-1.33,0.41-2.61,0.72-4.14-0.1c0.62-0.11,1.01-0.16,1.39-0.25
		c1.29-0.3,2.62-0.03,3.95-0.48c1.22-0.41,2.8,0.1,3.92-0.43c1.16-0.55,2.24,0.17,3.09-0.24c1.06-0.5,2.08-0.47,3.14-0.59
		c0.46-0.05,0.92-0.16,1.38-0.24c-0.44-0.85-3.34-0.95-4.24-0.14c-0.11-0.25-0.22-0.51-0.34-0.79c0.11-0.02,0.21-0.04,0.31-0.04
		c4.79-0.22,9.57-0.42,14.36-0.67c2.01-0.11,4.01-0.33,6.01-0.5c0.51-0.04,3.11,1.43,3.15,1.91c0.02,0.25-0.32,0.75-0.55,0.79
		c-1.67,0.24-3.35,0.34-5.02,0.59c-0.88,0.13-1.73,0.47-2.59,0.72c-0.1,0.03-0.18,0.14-0.27,0.15c-1.58,0.13-3.17,0.34-4.75,0.35
		c-0.84,0-1.68-0.36-2.53-0.52c-0.23-0.04-0.6-0.05-0.7,0.08c-1.2,1.55-2.59,1.26-4.09,0.53c-0.3-0.15-0.75,0.04-1.14,0.02
		c-0.4-0.02-0.8-0.15-1.2-0.14c-0.46,0.02-0.91,0.15-1.37,0.23C184.21,215.5,184.21,215.47,184.2,215.43z"/>
	<path class="st0" d="M139.19,174.26c-0.03,0.16-0.1,0.46-0.18,0.85c-0.25-0.27-0.44-0.47-0.63-0.68c-0.63,1.13-1.56,1.47-2.97,1.04
		c-0.11,0.39-0.22,0.79-0.37,1.32c-0.21-0.24-0.35-0.41-0.51-0.59c-0.02,0.01-0.09,0.06-0.08,0.07c0.27,0.85-0.31,1.06-0.93,1.24
		c-0.45,0.13-0.9,0.29-1.56,0.51c-0.08-0.11-0.29-0.42-0.49-0.71c-0.12,0.29-0.25,0.6-0.38,0.92c-1.14-0.58-2.21-0.33-3.15,0.6
		c-0.18,0.18-0.51,0.22-0.77,0.3c-0.94,0.28-1.89,0.55-3.04,0.88c0.1-0.47,0.07-0.98,0.28-1.13c0.92-0.67,1.88-1.32,2.91-1.82
		c1.65-0.79,3.47-1.26,4.98-2.24c0.62-0.41,1.14-0.24,1.66-0.45c1.6-0.65,3.21-1.29,4.83-1.89c0.31-0.11,0.71,0.03,1.02-0.07
		c1.51-0.47,2.98-1.06,4.51-1.43c0.49-0.12,1.05-0.77,1.68-0.1c0.11,0.12,0.76,0,0.84-0.17c0.37-0.74,0.99-0.38,1.51-0.46
		c1.63-0.25,3.27-0.46,4.9-0.76c1.07-0.2,2.12-0.52,3.4-0.59c-0.32,0.57-0.65,1.13-0.96,1.68c-0.48-0.55-1-1.18-1.68,0.07
		c-0.13,0.25-0.85,0.21-1.3,0.24c-0.69,0.03-1.38,0.01-2.42,0c-0.62-0.55-1.02-0.38-1.26,0.75c-0.61,0.45-1.06,0.79-1.54,1.15
		c-0.19-1.17-1.16-0.45-1.76-0.44c-0.47,0.01-0.93,0.53-1.4,0.82c-0.12,0.07-0.32,0.23-0.37,0.19c-0.85-0.65-1.5,0.32-2.29,0.28
		c-0.47-0.02-1.29-0.21-1.32,0.74C139.99,174.35,139.63,174.31,139.19,174.26z"/>
	<path class="st0" d="M178.55,205.65c-0.23-0.38-0.47-0.75-0.7-1.13c0.06-0.07,0.13-0.15,0.19-0.22c0.51,0.25,1.03,0.49,1.54,0.74
		c-0.01-0.1-0.02-0.2-0.03-0.3c0.44-0.15,0.87-0.41,1.31-0.43c0.94-0.04,1.89,0.13,2.83,0.07c2.43-0.15,4.85-0.41,7.27-0.56
		c2.59-0.17,5.18-0.27,7.77-0.41c1.43-0.08,2.86-0.22,4.28-0.21c0.52,0,1.05,0.34,1.67,0.56c-0.64,1.13-1.29,1.42-2.35,1.23
		c-0.78-0.14-1.64,0.1-2.47,0.2c-0.28,0.03-0.55,0.16-0.83,0.22c-0.53,0.1-1.07,0.14-1.59,0.28c-0.65,0.17-1.25,0.24-1.95,0.18
		c-1.04-0.08-2.09-0.02-3.15-0.16c-0.62-0.08-1.32,0.54-1.97,0.62c-1.14-0.2-2.29-0.4-3.43-0.6c0.02,0.06,0.04,0.12,0.06,0.18
		c-0.59,0.11-1.2,0.34-1.78,0.3c-1.03-0.07-2.05-0.43-3.08-0.44c-0.96-0.01-1.92,0.26-3.01,0.42c-0.15-0.13-0.38-0.35-0.62-0.56
		C178.52,205.62,178.55,205.65,178.55,205.65z"/>
	<path class="st0" d="M168.39,104.58c-1.38-0.91-2.71-1.93-4.16-2.7c-1.43-0.76-2.99-1.28-4.54-1.93c0.16-1.32,0.04-1.7,1.72-1.27
		c2.08,0.53,4.16,1.03,5.52,2.84c0.68,0.9,1.15,1.95,1.72,2.94C168.56,104.5,168.47,104.54,168.39,104.58z"/>
	<path class="st0" d="M149.85,108.79c0.11-0.08,0.22-0.2,0.35-0.22c0.57-0.09,1.13-0.18,1.7-0.2c1.07-0.05,2.15-0.07,3.22-0.06
		c0.14,0,0.27,0.29,0.4,0.44c0.32-0.12,0.67-0.41,0.92-0.33c2.61,0.72,5.59,0.68,7.23,3.47
		C159.43,109.25,154.67,109.08,149.85,108.79z"/>
	<path class="st0" d="M171.66,151.5c1.76-0.67,5.22,0.51,6.36,2.21C175.99,153,173.95,152.3,171.66,151.5z"/>
	<path class="st0" d="M134.17,147.89c-0.17-0.13-0.35-0.25-0.8-0.58c1.37,0.03,2.09-1.54,3.41-0.62c0.3,0.21,0.47,0.6,0.69,0.9
		c-0.28-0.14-0.54-0.38-0.82-0.4c-0.37-0.03-0.91,0-1.1,0.23c-0.18,0.22-0.01,0.73,0,1.12c0.39-0.02,0.85,0.08,1.16-0.08
		c0.32-0.16,0.49-0.59,0.73-0.9c0.1,0.96-0.4,1.71-1.26,1.88c-0.91,0.17-1.31-0.25-1.84-2.04c-0.1,0.23-0.15,0.36-0.2,0.49
		C134.16,147.89,134.17,147.89,134.17,147.89z"/>
	<path class="st0" d="M161.13,115.71c-2.5-0.65-5.02-1.3-7.42-1.92C154.75,112.97,160.54,114.43,161.13,115.71z"/>
	<path class="st0" d="M176.37,206.29c-0.49-1.15-0.46-1.22,0.56-1.64c0.6,0.37,1.11,0.69,1.62,1c0,0-0.03-0.03-0.03-0.03
		c0.25,1.35,0,1.68-1.04,1.33c0.14-0.15,0.27-0.3,0.57-0.62c-0.69-0.03-1.2-0.06-1.71-0.08L176.37,206.29z"/>
	<path class="st0" d="M157.52,214.34c-1.14,0-2.11,0-3.07,0c-0.01-0.08-0.02-0.16-0.03-0.24c0.49-0.07,0.98-0.14,1.55-0.23
		c-0.09-0.26-0.16-0.48-0.22-0.67c-0.48,0-0.9,0-1.63,0C155.7,212.46,156.58,212.76,157.52,214.34z"/>
	<path class="st0" d="M147.36,200.61c-4.48,0-8.95,0-13.43,0c0-0.06,0-0.12,0-0.18c4.46,0,8.92,0,13.38,0
		C147.33,200.49,147.34,200.55,147.36,200.61z"/>
	<path class="st0" d="M112.53,168.34c1.3-0.08,2.02-0.55,1.68-1.91c-0.03-0.11,0.36-0.33,0.68-0.62
		C114.28,168.69,113.86,169.15,112.53,168.34z"/>
	<path class="st0" d="M152.28,99.55c-0.87-0.12-1.41-0.2-1.95-0.27c-0.01-0.15-0.02-0.29-0.02-0.44c0.49-0.15,0.97-0.35,1.47-0.39
		C151.89,98.44,152.05,99.02,152.28,99.55z"/>
	<path class="st0" d="M176.34,206.26c0.05,0.29,0.1,0.57,0.13,0.71c-0.89,0-1.62,0-2.42,0c0.64-1.02,1.4-1.18,2.33-0.68
		C176.37,206.29,176.34,206.26,176.34,206.26z"/>
	<path class="st0" d="M10.49,219.79c0.48,1.14,0.84,2.02,1.22,2.92C10.85,222.8,10.25,221.47,10.49,219.79z"/>
	<path class="st0" d="M125.3,156.33c0.45,0.27,0.9,0.54,1.48,0.89c-0.94,0.43-1.79,0.09-1.92-0.57c-0.01-0.05,0.3-0.16,0.46-0.24
		C125.29,156.37,125.29,156.34,125.3,156.33z"/>
	<path class="st0" d="M158.51,169.2c0.78-0.64,1.6-0.99,2.6-0.29c-0.83,0.22-1.66,0.44-2.49,0.66
		C158.57,169.44,158.54,169.32,158.51,169.2z"/>
	<path class="st0" d="M167.56,215.22c0.6-0.42,1.21-0.84,1.9-1.32c-0.06,0.22-0.04,0.62-0.21,0.75c-0.49,0.35-1.06,0.6-1.6,0.88
		C167.62,215.42,167.59,215.32,167.56,215.22z"/>
	<path class="st0" d="M135.94,170.5c-0.8,0.31-1.61,0.62-2.41,0.94c-0.04-0.1-0.09-0.21-0.13-0.31c0.79-0.33,1.58-0.67,2.37-1
		C135.83,170.25,135.89,170.38,135.94,170.5z"/>
	<path class="st0" d="M137.93,146.4c-0.28-0.16-0.77-0.3-0.78-0.48c-0.02-0.36,0.21-0.74,0.52-1.08c-0.09,0.55-0.41,1.08,0.81,1.24
		C138.3,146.19,138.12,146.3,137.93,146.4z"/>
	<path class="st0" d="M131.46,151.08c0.55,0.24,0.88-1.01,1.48-0.12c0.08,0.12-0.21,0.67-0.44,0.78
		C132.03,151.96,131.48,152.01,131.46,151.08z"/>
	<path class="st0" d="M137.45,147.56c-0.24,0.31-0.42,0.74-0.73,0.9c-0.32,0.16-0.77,0.06-1.16,0.08c-0.01-0.38-0.18-0.9,0-1.12
		c0.19-0.23,0.72-0.26,1.1-0.23c0.28,0.02,0.55,0.26,0.82,0.4C137.48,147.59,137.45,147.56,137.45,147.56z"/>
</g>
<g>
	<path class="st0" d="M54.79,2437.81c2.3,3.98,3.9,7.56,6.2,10.6c9.39,12.36,18.98,24.56,28.53,36.79c0.89,1.15,1.93,2.27,3.13,3.06
		c0.7,0.46,2.2,0.67,2.74,0.24c6.64-5.35,14.22-5.31,21.59-2.88c9.12,3.01,17.16,7.91,23.12,15.95
		c9.83,13.24,20.06,26.18,29.72,39.7c-0.78-0.88-1.6-1.74-2.35-2.65c-10.31-12.41-20.54-24.89-30.97-37.2
		c-5.09-6.01-11.01-11.09-18.55-13.97c-2.3-0.88-3.87-0.69-5.85,1.15c-1.87,1.73-4.61,2.6-7.06,3.6c-1.77,0.72-3.7,1.04-6.23,1.72
		c1.24,1.44,2.14,2.47,3.14,3.63c10.39-5.38,18.94-1.83,26.67,5.35c2.23,2.07,4.45,4.22,6.34,6.6
		c9.56,12.08,19.02,24.23,28.48,36.38c4.35,5.59,7.67,11.6,7.91,18.94c0.12,3.85-1.37,6.3-5.47,7.15c0-1.14,0-2.18,0-3.94
		c-7.86,5.65-15.53,7.23-22.7-0.56c2.17-6.35,4.41-6.99,10.25-2.59c-0.47,0.9-0.95,1.86-1.47,2.79c-0.51,0.89-1.07,1.75-1.6,2.63
		c0.24,0.21,0.48,0.41,0.71,0.62c1.85-1.96,3.71-3.92,5.56-5.88c0.3,0.2,0.59,0.41,0.89,0.61c-0.73,1.54-1.46,3.09-2.18,4.63
		c2.67,0.29,5.04-2.41,5.32-6.07c0.18-0.12,0.36-0.32,0.55-0.34c8.35-1.09,9.54-3.19,5.65-10.59c-1.41-2.69-3.15-5.25-5-7.66
		c-8.29-10.74-16.67-21.41-25.03-32.09c-0.52-0.66-1.14-1.24-1.07-1.16c-6.05,4.76-11.91,9.37-18.08,14.22
		c0.77,1.01,1.76,2.35,2.81,3.66c6.23,7.83,12.41,15.69,18.73,23.44c2.74,3.35-0.28,4.85-2,6.52c-2.23,2.16-3.18-0.5-4.16-1.73
		c-6.34-7.92-12.61-15.9-18.81-23.92c-1.46-1.89-2.58-4.03-4.06-6.37c-2.16-0.38-4.78-0.83-8.56-1.49
		c8.87,11.6,17.11,22.37,25.34,33.14c-0.12,0.12-0.23,0.23-0.35,0.35c-0.31-0.26-0.67-0.47-0.92-0.78
		c-8.35-10.53-16.59-21.14-25.13-31.52c-1.35-1.64-4.02-2.19-6.67-2.57c0.51,1.27,1.01,2.54,1.54,3.87
		c-0.25,0.01-0.57,0.09-0.61,0.02c-2.93-5.4-8.09-8.54-12.34-12.65c-5.67-5.49-10.55-11.83-15.49-18.03
		c-9.67-12.14-19.12-24.45-28.69-36.67c-4.53-5.77-7.95-12.06-8.77-19.44c-0.32-2.86-0.78-6.21,0.34-8.63
		c2.9-6.23,5.76-12.85,10.28-17.84c5.93-6.56,14.51-6.27,22.66-4.4c11.15,2.57,20.93,8.15,28.24,16.77
		c12.31,14.52,23.81,29.71,35.83,44.83c-6.02,0.39-7.2-0.17-10.46-4.35c-7.89-10.13-15.72-20.3-23.76-30.3
		c-2.43-3.02-5.4-5.63-8.26-8.26c-0.84-0.77-2.18-1-3.69-1.64c12.01,14.86,23.58,29.19,35.27,43.66c-3.37,1.39-6.28,2.6-9.19,3.81
		c0.09,0.23,0.17,0.47,0.26,0.7c2.58,0.33,5.16,0.67,7.74,1c-0.02,0.13-0.04,0.25-0.06,0.38c-4.76,0.41-9.53,0.83-14.32,1.24
		c0.6-0.54,1.28-1.17,2.41-2.2c-8.59-10.49-16.77-21.15-25.71-31.12C71.74,2440.06,64.75,2436.17,54.79,2437.81z M97.33,2510.31
		c0.34-0.35,0.68-0.7,1.03-1.04c-16.84-21.55-33.67-43.11-50.51-64.66c-0.55,0.27-1.1,0.53-1.65,0.8c0.4,1.62,0.34,3.6,1.28,4.8
		c14.18,18.08,28.44,36.09,42.83,54C92.22,2506.59,94.97,2508.29,97.33,2510.31z"/>
	<path class="st0" d="M156.81,2589.26c2.04,0.54,3.25,0.85,4.45,1.17c-11.08,0.49-19.05-5.79-26.35-11.34
		c5.23,2.21,11.12,5.29,17.37,7.16c4.43,1.33,9.37,1.53,14.05,1.35c7.35-0.28,12.77-4.27,16.61-11.25
		c-0.6,7.51-4.18,11.41-11.59,11.82C166.83,2588.41,162.32,2588.84,156.81,2589.26z"/>
	<path class="st0" d="M161.25,2576.43c-9.53,5.59-24.71-0.18-30.59-11.37c4.39,3.54,8.55,7.69,13.44,10.64
		C149.34,2578.86,155.36,2578.14,161.25,2576.43z"/>
	<path class="st0" d="M184.08,2548.39c-1.24-1.74-2-2.81-2.87-4.02c1.46-2.24,2.89-4.44,4.39-6.75
		C190.39,2541.87,184.85,2544.46,184.08,2548.39z"/>
	<path class="st0" d="M185.85,2556.65c2.65,4.52,1.82,9.11-0.69,13.75c-0.24-4.54-0.49-9.07-0.73-13.61
		C184.91,2556.74,185.38,2556.69,185.85,2556.65z"/>
	<path class="st0" d="M193.7,2562.77c-1.79,4.63-3.26,8.42-5.08,13.11C189.04,2564.53,188.49,2564.7,193.7,2562.77z"/>
	<path class="st0" d="M109.24,2481.95c-3.53,0.53-7.31,1.1-10.91,1.64C100.14,2480.21,101.35,2480.01,109.24,2481.95z"/>
	<path class="st0" d="M180.73,2557.78c0.85,2.68,1.71,5.36,2.56,8.03c-0.36,0.11-0.72,0.23-1.08,0.34
		c-0.92-2.73-1.84-5.46-2.76-8.18C179.88,2557.91,180.31,2557.85,180.73,2557.78z"/>
	<path class="st0" d="M97.33,2510.31c-2.36-2.02-5.11-3.72-7.02-6.1c-14.39-17.91-28.65-35.92-42.83-54
		c-0.94-1.2-0.88-3.18-1.28-4.8c0.55-0.27,1.1-0.53,1.65-0.8c16.84,21.55,33.67,43.11,50.51,64.66
		C98.02,2509.62,97.68,2509.96,97.33,2510.31z"/>
</g>
<g>
	<path class="st0" d="M121.35,2932.72c4.41,4.85,8.56,9.43,12.66,13.94c9.32-4.39,16.31-10.66,22.07-19.14
		c5.97,7.96,11.74,15.64,17.46,23.26c-22.41,29.31-67.65,37.87-100.42,18.03C89,2956.93,104.7,2945.19,121.35,2932.72z"/>
	<path class="st0" d="M43.89,2860.92c11.93,15.65,23.78,31.19,36.2,47.48c-4.82,4.28-9.53,8.46-14.12,12.54
		c4.57,9.67,10.77,16.69,19.35,22.43c-8.08,6.07-15.74,11.81-23.32,17.51C31.15,2936.93,25.19,2890.88,43.89,2860.92z"/>
	<path class="st0" d="M68.44,2871.29c-5.07-6.79-10.81-14.49-16.49-22.11c23.05-29.23,67.27-37.65,100.52-17.92
		c-16.17,11.62-32.11,23.08-48.42,34.8c-3.64-3.53-7.31-6.91-10.75-10.52c-1.59-1.67-3.02-2.06-4.78-0.63
		C81.88,2860.3,75.27,2865.72,68.44,2871.29z"/>
	<path class="st0" d="M181.8,2938.88c-11.77-15.56-23.48-31.04-36.06-47.67c3.56-3.17,6.96-6.49,10.68-9.4
		c2.99-2.34,2.95-4.61,0.77-7.23c-5.11-6.14-10.27-12.24-15.76-18.79c6.69-5.04,14.35-10.81,21.96-16.54
		C194.19,2862.53,200.33,2908.99,181.8,2938.88z"/>
</g>
</svg>
