<?xml version="1.0" encoding="utf-8"?>
<!-- Generator: Adobe Illustrator 23.0.1, SVG Export Plug-In . SVG Version: 6.00 Build 0)  -->
<svg version="1.1" id="Layer_1" xmlns="http://www.w3.org/2000/svg" xmlns:xlink="http://www.w3.org/1999/xlink" x="0px" y="0px"
	 viewBox="0 0 1200 450.99" style="enable-background:new 0 0 1200 450.99;" xml:space="preserve">
<style type="text/css">
	.st0{fill:none;stroke:#CCCCFF;stroke-miterlimit:10;}
	.st1{enable-background:new    ;}
	.st2{clip-path:url(#SVGID_2_);}
	.st3{fill:#FCFAFC;}
	.st4{fill:#9966FF;}
	.st5{clip-path:url(#SVGID_4_);}
	.st6{fill:#E1E1F4;}
	.st7{fill:none;stroke:#9966FF;stroke-miterlimit:10;}
	.st8{clip-path:url(#SVGID_6_);}
	.st9{clip-path:url(#SVGID_8_);}
	.st10{clip-path:url(#SVGID_10_);}
	.st11{clip-path:url(#SVGID_12_);}
	.st12{clip-path:url(#SVGID_14_);}
	.st13{clip-path:url(#SVGID_16_);}
	.st14{clip-path:url(#SVGID_18_);}
	.st15{clip-path:url(#SVGID_20_);}
	.st16{clip-path:url(#SVGID_22_);}
	.st17{clip-path:url(#SVGID_24_);}
	.st18{clip-path:url(#SVGID_26_);}
	.st19{clip-path:url(#SVGID_28_);}
</style>
<line class="st0" x1="290.79" y1="251.55" x2="290.79" y2="450.09"/>
<line class="st0" x1="398.34" y1="251.55" x2="398.34" y2="451.09"/>
<line class="st0" x1="348.3" y1="450.09" x2="348.3" y2="258.88"/>
<line class="st0" x1="306.81" y1="451.09" x2="306.81" y2="257.03"/>
<line class="st0" x1="629.26" y1="450.99" x2="629.26" y2="221.65"/>
<line class="st0" x1="776.58" y1="231.61" x2="776.58" y2="450.99"/>
<line class="st0" x1="883.65" y1="251.61" x2="883.65" y2="451.15"/>
<line class="st0" x1="833.65" y1="451.15" x2="833.65" y2="279.94"/>
<line class="st0" x1="793.12" y1="451.15" x2="793.12" y2="257.1"/>
<g>
	<g>
		<g class="st1">
			<defs>
				<polygon id="SVGID_1_" class="st1" points="1064.24,54.9 1098.45,35.02 1126.38,51.14 1092.16,71.03 				"/>
			</defs>
			<clipPath id="SVGID_2_">
				<use xlink:href="#SVGID_1_"  style="overflow:visible;"/>
			</clipPath>
			<g class="st2">
				<g>
					<g>
						<g>
							<polyline class="st3" points="1098.5,35.86 1065.68,54.88 1092.12,70.19 1124.93,51.16 1098.5,35.86 							"/>
							<path class="st4" d="M1092.12,70.19l-26.44-15.3l32.81-19.02l26.43,15.3L1092.12,70.19 M1098.49,35.04l-34.22,19.84
								L1092.12,71l34.23-19.84L1098.49,35.04"/>
						</g>
					</g>
				</g>
			</g>
		</g>
	</g>
</g>
<g>
	<g>
		<g class="st1">
			<defs>
				<polygon id="SVGID_3_" class="st1" points="1102.47,73.47 1136.69,53.59 1164.62,69.71 1130.4,89.6 				"/>
			</defs>
			<clipPath id="SVGID_4_">
				<use xlink:href="#SVGID_3_"  style="overflow:visible;"/>
			</clipPath>
			<g class="st5">
				<g>
					<g>
						<g>
							<polyline class="st6" points="1136.73,54.44 1103.92,73.46 1130.35,88.76 1163.17,69.73 1136.73,54.44 							"/>
							<path class="st4" d="M1130.35,88.76l-26.43-15.3l32.81-19.02l26.44,15.29L1130.35,88.76 M1136.73,53.61l-34.23,19.84
								l27.86,16.12l34.23-19.84L1136.73,53.61"/>
						</g>
					</g>
				</g>
			</g>
		</g>
	</g>
</g>
<path class="st7" d="M922.97,45.1"/>
<line class="st0" x1="1001.22" y1="88.01" x2="1001.22" y2="451.05"/>
<line class="st0" x1="904.21" y1="142.92" x2="904.21" y2="451.05"/>
<line class="st0" x1="935.8" y1="152.58" x2="935.8" y2="451.05"/>
<line class="st0" x1="1110.49" y1="141.92" x2="1110.49" y2="451.05"/>
<line class="st0" x1="1032.35" y1="96.48" x2="1032.35" y2="451.05"/>
<line class="st0" x1="1013.82" y1="197.49" x2="1013.82" y2="451.05"/>
<line class="st0" x1="250.19" y1="229.62" x2="250.19" y2="451.09"/>
<line class="st0" x1="922.59" y1="451.05" x2="922.59" y2="43.1"/>
<line class="st0" x1="341.9" y1="223.4" x2="341.9" y2="451.09"/>
<line class="st0" x1="377.14" y1="451.09" x2="377.14" y2="110.32"/>
<line class="st0" x1="654.7" y1="451.05" x2="654.7" y2="107.4"/>
<line class="st0" x1="759.1" y1="451.05" x2="759.1" y2="168.17"/>
<g>
	<g>
		<g class="st1">
			<defs>
				<polygon id="SVGID_7_" class="st1" points="935.49,151.98 1032.23,95.76 1110.93,141.2 1014.19,197.42 				"/>
			</defs>
			<clipPath id="SVGID_6_">
				<use xlink:href="#SVGID_7_"  style="overflow:visible;"/>
			</clipPath>
			<g class="st8">
				<g>
					<g>
						<g>
							<polyline class="st3" points="1032.35,96.65 936.99,151.93 1014.07,196.53 1109.43,141.25 1032.35,96.65 							"/>
							<path class="st4" d="M1014.07,196.53l-77.08-44.6l95.36-55.28l77.08,44.6L1014.07,196.53 M1032.35,95.83l-96.41,55.89
								l-0.36,0.21l78.49,45.42l96.41-55.89l0.36-0.21L1032.35,95.83"/>
						</g>
					</g>
				</g>
			</g>
		</g>
	</g>
</g>
<line class="st0" x1="524.94" y1="451.05" x2="524.94" y2="181.49"/>
<g>
	<g>
		<g class="st1">
			<defs>
				<polygon id="SVGID_9_" class="st1" points="825.92,98.77 922.66,42.55 1001.35,87.98 904.62,144.2 				"/>
			</defs>
			<clipPath id="SVGID_8_">
				<use xlink:href="#SVGID_9_"  style="overflow:visible;"/>
			</clipPath>
			<g class="st9">
				<g>
					<g>
						<g>
							<polyline class="st6" points="922.78,43.43 827.43,98.72 904.51,143.32 999.85,88.03 922.78,43.43 							"/>
							<path class="st4" d="M904.51,143.32l-77.08-44.6l95.35-55.29l77.08,44.6L904.51,143.32 M922.77,42.61l-96.4,55.9l-0.36,0.21
								l78.49,45.42l96.4-55.9l0.36-0.21L922.77,42.61"/>
						</g>
					</g>
				</g>
			</g>
		</g>
	</g>
</g>
<line class="st0" x1="481.88" y1="451.05" x2="481.88" y2="170.88"/>
<line class="st0" x1="612.43" y1="451.05" x2="612.43" y2="95.81"/>
<g>
	<g>
		<g class="st1">
			<defs>
				<polygon id="SVGID_5_" class="st1" points="524.6,182.01 654.43,106.56 760,167.51 630.17,242.96 				"/>
			</defs>
			<clipPath id="SVGID_10_">
				<use xlink:href="#SVGID_5_"  style="overflow:visible;"/>
			</clipPath>
			<g class="st10">
				<g>
					<g>
						<g>
							<polyline class="st6" points="654.58,107.47 526.14,181.94 630.01,242.05 758.46,167.58 654.58,107.47 							"/>
							<path class="st4" d="M630.01,242.05l-103.87-60.11l128.44-74.47l103.88,60.11L630.01,242.05 M654.58,106.65l-129.86,75.29
								l105.3,60.93l129.51-75.09l0.35-0.2L654.58,106.65"/>
						</g>
					</g>
				</g>
			</g>
		</g>
	</g>
</g>
<line class="st0" x1="57.59" y1="132.42" x2="57.59" y2="451.05"/>
<line class="st0" x1="116.31" y1="165.3" x2="116.31" y2="451.05"/>
<line class="st0" x1="189.7" y1="123.49" x2="189.7" y2="451.09"/>
<line class="st0" x1="506.91" y1="451.05" x2="506.91" y2="36.08"/>
<line class="st0" x1="270.53" y1="163.87" x2="270.53" y2="451.05"/>
<line class="st0" x1="198.88" y1="451.05" x2="198.88" y2="204.49"/>
<line class="st0" x1="140.19" y1="451.05" x2="140.19" y2="171.73"/>
<g>
	<g>
		<g class="st1">
			<defs>
				<polygon id="SVGID_17_" class="st1" points="238.76,93.28 272.98,73.39 300.9,89.51 266.68,109.4 				"/>
			</defs>
			<clipPath id="SVGID_12_">
				<use xlink:href="#SVGID_17_"  style="overflow:visible;"/>
			</clipPath>
			<g class="st11">
				<g>
					<g>
						<g>
							<polyline class="st3" points="273.02,74.23 240.2,93.26 266.64,108.56 299.45,89.53 273.02,74.23 							"/>
							<path class="st4" d="M266.64,108.56l-26.44-15.3l32.82-19.03l26.43,15.3L266.64,108.56 M273.01,73.41l-34.23,19.85
								l27.86,16.12l34.23-19.85L273.01,73.41"/>
						</g>
					</g>
				</g>
			</g>
		</g>
	</g>
</g>
<g>
	<g>
		<g class="st1">
			<defs>
				<polygon id="SVGID_13_" class="st1" points="377.28,110.45 507.11,35 612.68,95.95 482.85,171.4 				"/>
			</defs>
			<clipPath id="SVGID_14_">
				<use xlink:href="#SVGID_13_"  style="overflow:visible;"/>
			</clipPath>
			<g class="st12">
				<g>
					<g>
						<g>
							<polyline class="st3" points="507.26,35.91 378.81,110.38 482.69,170.49 611.14,96.02 507.26,35.91 							"/>
							<path class="st4" d="M482.69,170.49l-103.89-60.11l128.46-74.47l103.87,60.11L482.69,170.49 M507.26,35.09l-129.86,75.29
								l105.3,60.93l129.86-75.29L507.26,35.09"/>
						</g>
					</g>
				</g>
			</g>
		</g>
	</g>
</g>
<g>
	<g>
		<g class="st1">
			<defs>
				<polygon id="SVGID_19_" class="st1" points="277,111.85 311.21,91.96 339.14,108.09 304.93,127.97 				"/>
			</defs>
			<clipPath id="SVGID_16_">
				<use xlink:href="#SVGID_19_"  style="overflow:visible;"/>
			</clipPath>
			<g class="st13">
				<g>
					<g>
						<g>
							<polyline class="st6" points="311.26,92.8 278.44,111.83 304.88,127.13 337.69,108.1 311.26,92.8 							"/>
							<path class="st4" d="M304.88,127.13l-26.43-15.3l32.81-19.02l26.43,15.3L304.88,127.13 M311.25,91.98l-34.22,19.84
								l27.85,16.12l34.23-19.84L311.25,91.98"/>
						</g>
					</g>
				</g>
			</g>
		</g>
	</g>
</g>
<line class="st0" x1="826.21" y1="223.46" x2="826.21" y2="451.15"/>
<line class="st0" x1="736.5" y1="229.69" x2="736.5" y2="451.15"/>
<line class="st0" x1="786.3" y1="200.78" x2="786.3" y2="451.15"/>
<line class="st0" x1="212.39" y1="451.05" x2="212.39" y2="131.53"/>
<line class="st0" x1="357.19" y1="451.05" x2="357.19" y2="228.53"/>
<line class="st0" x1="842.99" y1="228.16" x2="842.99" y2="451.15"/>
<line class="st0" x1="301.04" y1="451.05" x2="301.04" y2="201.13"/>
<g>
	<g>
		<g class="st1">
			<defs>
				<polygon id="SVGID_11_" class="st1" points="306.33,256.99 357.49,227.26 399.32,251.41 348.15,281.14 				"/>
			</defs>
			<clipPath id="SVGID_18_">
				<use xlink:href="#SVGID_11_"  style="overflow:visible;"/>
			</clipPath>
			<g class="st14">
				<g>
					<g>
						<g>
							<polyline class="st3" points="357.56,228.93 309.2,256.97 348.09,279.47 396.44,251.43 357.56,228.93 							"/>
							<path class="st4" d="M348.09,279.47l-38.89-22.5l48.36-28.04l38.88,22.5L348.09,279.47 M357.55,227.29l-51.18,29.67
								l41.72,24.14l51.18-29.67L357.55,227.29"/>
						</g>
					</g>
				</g>
			</g>
		</g>
	</g>
</g>
<line class="st0" x1="130.51" y1="451.05" x2="130.51" y2="91.79"/>
<line class="st0" x1="825.97" y1="98.84" x2="825.97" y2="451.05"/>
<g>
	<g>
		<g class="st1">
			<defs>
				<polygon id="SVGID_21_" class="st1" points="735.57,229.48 786.04,200.15 827.15,223.89 776.69,253.22 				"/>
			</defs>
			<clipPath id="SVGID_20_">
				<use xlink:href="#SVGID_21_"  style="overflow:visible;"/>
			</clipPath>
			<g class="st15">
				<g>
					<g>
						<g>
							<polyline class="st3" points="786.1,201.01 737.04,229.46 776.63,252.37 825.69,223.92 786.1,201.01 							"/>
							<path class="st4" d="M776.63,252.37l-39.59-22.91l49.06-28.45l39.59,22.92L776.63,252.37 M786.09,200.19l-50.12,29.06
								l-0.35,0.2l41.01,23.74l50.12-29.06l0.35-0.2L786.09,200.19"/>
						</g>
					</g>
				</g>
			</g>
		</g>
	</g>
</g>
<g>
	<g>
		<g class="st1">
			<defs>
				<polygon id="SVGID_25_" class="st1" points="792.35,257.05 842.81,227.73 883.92,251.47 833.46,280.79 				"/>
			</defs>
			<clipPath id="SVGID_22_">
				<use xlink:href="#SVGID_25_"  style="overflow:visible;"/>
			</clipPath>
			<g class="st16">
				<g>
					<g>
						<g>
							<polyline class="st6" points="842.87,228.58 793.8,257.03 833.4,279.94 882.47,251.49 842.87,228.58 							"/>
							<path class="st4" d="M833.4,279.94l-39.6-22.91l49.06-28.45l39.6,22.91L833.4,279.94 M842.86,227.76l-50.12,29.06l-0.35,0.2
								l41.02,23.73l50.12-29.06l0.36-0.21L842.86,227.76"/>
						</g>
					</g>
				</g>
			</g>
		</g>
	</g>
</g>
<g>
	<g>
		<g class="st1">
			<defs>
				<polygon id="SVGID_15_" class="st1" points="139.35,171.64 212.12,129.35 271.58,163.68 198.81,205.97 				"/>
			</defs>
			<clipPath id="SVGID_24_">
				<use xlink:href="#SVGID_15_"  style="overflow:visible;"/>
			</clipPath>
			<g class="st17">
				<g>
					<g>
						<g>
							<polyline class="st3" points="212.21,131.04 142.24,171.61 198.72,204.29 268.69,163.72 212.21,131.04 							"/>
							<path class="st4" d="M198.72,204.29l-56.48-32.68l69.97-40.57l56.48,32.68L198.72,204.29 M212.21,129.4l-72.79,42.21
								l59.31,34.32l72.79-42.2L212.21,129.4"/>
						</g>
					</g>
				</g>
			</g>
		</g>
	</g>
</g>
<g>
	<g>
		<g class="st1">
			<defs>
				<polygon id="SVGID_23_" class="st1" points="57.79,132.09 130.57,89.8 190.03,124.14 117.26,166.43 				"/>
			</defs>
			<clipPath id="SVGID_26_">
				<use xlink:href="#SVGID_23_"  style="overflow:visible;"/>
			</clipPath>
			<g class="st18">
				<g>
					<g>
						<g>
							<polyline class="st6" points="130.65,91.49 60.69,132.06 117.17,164.74 187.13,124.17 130.65,91.49 							"/>
							<path class="st4" d="M117.17,164.74l-56.47-32.69l69.96-40.57l56.48,32.68L117.17,164.74 M130.65,89.85l-72.79,42.2
								l59.31,34.33l72.79-42.2L130.65,89.85"/>
						</g>
					</g>
				</g>
			</g>
		</g>
	</g>
</g>
<g>
	<g>
		<g class="st1">
			<defs>
				<polygon id="SVGID_27_" class="st1" points="249.56,229.42 300.72,199.68 342.55,223.83 291.38,253.56 				"/>
			</defs>
			<clipPath id="SVGID_28_">
				<use xlink:href="#SVGID_27_"  style="overflow:visible;"/>
			</clipPath>
			<g class="st19">
				<g>
					<g>
						<g>
							<polyline class="st6" points="300.79,201.35 252.43,229.39 291.31,251.89 339.68,223.86 300.79,201.35 							"/>
							<path class="st4" d="M291.31,251.89l-38.89-22.5l48.36-28.04l38.89,22.5L291.31,251.89 M300.78,199.72l-51.18,29.67
								l41.72,24.14l51.18-29.67L300.78,199.72"/>
						</g>
					</g>
				</g>
			</g>
		</g>
	</g>
</g>
</svg>
