<?xml version="1.0" encoding="utf-8"?>
<!-- Generator: Adobe Illustrator 23.0.1, SVG Export Plug-In . SVG Version: 6.00 Build 0)  -->
<svg version="1.1" id="Layer_1" xmlns="http://www.w3.org/2000/svg" xmlns:xlink="http://www.w3.org/1999/xlink" x="0px" y="0px"
	 viewBox="0 0 1200 1102.8" style="enable-background:new 0 0 1200 1102.8;" xml:space="preserve">
<style type="text/css">
	.st0{fill:#E6E6FC;}
	.st1{enable-background:new    ;}
	.st2{clip-path:url(#SVGID_2_);}
	.st3{fill:#CCCCFF;}
	.st4{clip-path:url(#SVGID_4_);}
	.st5{clip-path:url(#SVGID_6_);}
</style>
<rect x="1.84" y="226.06" class="st0" width="1198.33" height="876.74"/>
<rect x="0.84" y="-3.94" class="st0" width="1198.33" height="876.74"/>
<g>
	<g>
		<g class="st1">
			<defs>
				<polygon id="SVGID_1_" class="st1" points="11.29,409.68 661.8,31.64 1190.34,336.79 539.83,714.83 				"/>
			</defs>
			<clipPath id="SVGID_2_">
				<use xlink:href="#SVGID_1_"  style="overflow:visible;"/>
			</clipPath>
			<g class="st2">
				<g>
					<g>
						<g>
							<path class="st3" d="M539.07,712.76L14.72,409.33L662.56,33.71l524.34,303.43L539.07,712.76 M663.26,32.49l-0.71-0.41
								L12.6,408.92l-0.7,0.41l526.48,304.66l0.71,0.41l649.95-376.84l0.7-0.41L663.26,32.49"/>
						</g>
					</g>
				</g>
			</g>
		</g>
	</g>
</g>
<g>
	<g>
		<g class="st1">
			<defs>
				<polygon id="SVGID_3_" class="st1" points="11.29,577.85 661.8,199.81 1190.34,504.96 539.82,883 				"/>
			</defs>
			<clipPath id="SVGID_4_">
				<use xlink:href="#SVGID_3_"  style="overflow:visible;"/>
			</clipPath>
			<g class="st4">
				<g>
					<g>
						<g>
							<path class="st3" d="M539.07,880.93L14.72,577.5l647.84-375.62l524.35,303.42L539.07,880.93 M663.27,200.65l-0.71-0.41
								L12.59,577.09l-0.7,0.41l526.48,304.66l0.71,0.41l649.96-376.85l0.7-0.41L663.27,200.65"/>
						</g>
					</g>
				</g>
			</g>
		</g>
	</g>
</g>
<g>
	<g>
		<g class="st1">
			<defs>
				<polygon id="SVGID_5_" class="st1" points="3.91,757.03 654.42,378.99 1182.96,684.14 532.44,1062.18 				"/>
			</defs>
			<clipPath id="SVGID_6_">
				<use xlink:href="#SVGID_5_"  style="overflow:visible;"/>
			</clipPath>
			<g class="st5">
				<g>
					<g>
						<g>
							<path class="st3" d="M531.69,1060.1L7.34,756.68l647.84-375.61l524.35,303.42L531.69,1060.1 M655.89,379.83l-0.71-0.41
								L5.21,756.27l-0.7,0.41l526.48,304.65l0.7,0.41l649.96-376.84l0.7-0.41L655.89,379.83"/>
						</g>
					</g>
				</g>
			</g>
		</g>
	</g>
</g>
</svg>
