<?xml version="1.0" encoding="utf-8"?>
<!-- Generator: Adobe Illustrator 23.0.1, SVG Export Plug-In . SVG Version: 6.00 Build 0)  -->
<svg version="1.1" id="Layer_1" xmlns="http://www.w3.org/2000/svg" xmlns:xlink="http://www.w3.org/1999/xlink" x="0px" y="0px"
	 viewBox="0 0 233 244" style="enable-background:new 0 0 233 244;" xml:space="preserve">
<style type="text/css">
	.st0{fill:none;}
	.st1{fill:#000033;}
</style>
<path class="st0" d="M316.9,58c2.6-0.4,2.3,1.3,2.1,2.6c-1.7,15.6-1.9,31.3-1.6,47c0,3.3,0.2,6.7,0.4,10c0.2,2.7-0.9,4.3-3.3,5.2
	c0.2-15,0.3-29.9,0.6-44.9c0.1-5.9,0.9-11.9,1.4-17.8C316.5,59.5,316.7,58.8,316.9,58z"/>
<g>
	<path class="st1" d="M125.1,152.9c4.4,4.9,8.6,9.4,12.7,13.9c9.3-4.4,16.3-10.7,22.1-19.1c6,8,11.7,15.6,17.5,23.3
		c-22.4,29.3-67.7,37.9-100.4,18C92.8,177.1,108.4,165.4,125.1,152.9z"/>
	<path class="st1" d="M47.6,81.1c11.9,15.7,23.8,31.2,36.2,47.5c-4.8,4.3-9.5,8.5-14.1,12.5c4.6,9.7,10.8,16.7,19.3,22.4
		c-8.1,6.1-15.7,11.8-23.3,17.5C34.9,157.1,28.9,111.1,47.6,81.1z"/>
	<path class="st1" d="M72.2,91.5C67.1,84.7,61.4,77,55.7,69.4c23-29.2,67.3-37.7,100.5-17.9c-16.2,11.6-32.1,23.1-48.4,34.8
		c-3.6-3.5-7.3-6.9-10.8-10.5c-1.6-1.7-3-2.1-4.8-0.6C85.6,80.5,79,85.9,72.2,91.5z"/>
	<path class="st1" d="M185.5,159.1c-11.8-15.6-23.5-31-36.1-47.7c3.6-3.2,7-6.5,10.7-9.4c3-2.3,2.9-4.6,0.8-7.2
		c-5.1-6.1-10.3-12.2-15.8-18.8c6.7-5,14.4-10.8,22-16.5C197.9,82.7,204.1,129.2,185.5,159.1z"/>
</g>
</svg>
