<?xml version="1.0" encoding="utf-8"?>
<!-- Generator: Adobe Illustrator 23.0.1, SVG Export Plug-In . SVG Version: 6.00 Build 0)  -->
<svg version="1.1" id="Layer_1" xmlns="http://www.w3.org/2000/svg" xmlns:xlink="http://www.w3.org/1999/xlink" x="0px" y="0px"
	 viewBox="0 0 233 244" style="enable-background:new 0 0 233 244;" xml:space="preserve">
<style type="text/css">
	.st0{fill:none;}
	.st1{fill:#000033;}
	.st2{fill:#330099;}
</style>
<path class="st0" d="M316.9,58c2.6-0.4,2.3,1.3,2.1,2.6c-1.7,15.6-1.9,31.3-1.6,47c0,3.3,0.2,6.7,0.4,10c0.2,2.7-0.9,4.3-3.3,5.2
	c0.2-15,0.3-29.9,0.6-44.9c0.1-5.9,0.9-11.9,1.4-17.8C316.5,59.5,316.7,58.8,316.9,58z"/>
<path class="st1" d="M78.5,192.7c6.6-20.2,13.2-40.5,19.8-61c-7.4,0-14.5,0-21.8,0c0.4-0.9,0.7-1.4,0.9-2c4.2-8,8.3-16,12.5-24
	c3.1-5.8,6.2-11.7,9.2-17.5c2-3.8,4-7.7,6-11.5c3.2-6.1,6.4-12.3,9.7-18.4c1.1-2,2.2-4,3.2-6.1c0.4-0.8,0.9-1.1,1.8-1.1
	c11.1,0,22.2,0,33.3,0c1,0,2.1,0,3.1,0c0.1,0.1,0.2,0.2,0.2,0.3c-12.2,20.4-24.3,40.8-36.7,61.5c8.2,0,15.9,0,23.7,0
	c0.1,0.1,0.1,0.2,0.2,0.3c-21.7,26.5-43.3,53-65,79.5C78.7,192.9,78.6,192.8,78.5,192.7z"/>
<g>
	<path class="st2" d="M333.6,156.8c-0.2,1.7,0.4,3,1.2,2.9C334.4,158.9,334.1,158,333.6,156.8z"/>
	<path class="st2" d="M333.6,156.8c0.5,1.1,0.8,2,1.2,2.9C333.9,159.8,333.3,158.5,333.6,156.8z"/>
</g>
</svg>
