<?xml version="1.0" encoding="utf-8"?>
<!-- Generator: Adobe Illustrator 23.0.1, SVG Export Plug-In . SVG Version: 6.00 Build 0)  -->
<svg version="1.1" id="Layer_1" xmlns="http://www.w3.org/2000/svg" xmlns:xlink="http://www.w3.org/1999/xlink" x="0px" y="0px"
	 viewBox="0 0 233 244" style="enable-background:new 0 0 233 244;" xml:space="preserve">
<style type="text/css">
	.st0{fill:none;}
	.st1{fill:#000033;}
</style>
<path class="st0" d="M316.9,58c2.6-0.4,2.3,1.3,2.1,2.6c-1.7,15.6-1.9,31.3-1.6,47c0,3.3,0.2,6.7,0.4,10c0.2,2.7-0.9,4.3-3.3,5.2
	c0.2-15,0.3-29.9,0.6-44.9c0.1-5.9,0.9-11.9,1.4-17.8C316.5,59.5,316.7,58.8,316.9,58z"/>
<g>
	<path class="st1" d="M60.8,59.2c2.3,4,3.9,7.6,6.2,10.6c9.4,12.4,19,24.6,28.5,36.8c0.9,1.2,1.9,2.3,3.1,3.1
		c0.7,0.5,2.2,0.7,2.7,0.2c6.6-5.3,14.2-5.3,21.6-2.9c9.1,3,17.2,7.9,23.1,15.9c9.8,13.2,20.1,26.2,29.7,39.7
		c-0.8-0.9-1.6-1.7-2.4-2.6c-10.3-12.4-20.5-24.9-31-37.2c-5.1-6-11-11.1-18.6-14c-2.3-0.9-3.9-0.7-5.8,1.2
		c-1.9,1.7-4.6,2.6-7.1,3.6c-1.8,0.7-3.7,1-6.2,1.7c1.2,1.4,2.1,2.5,3.1,3.6c10.4-5.4,18.9-1.8,26.7,5.3c2.2,2.1,4.4,4.2,6.3,6.6
		c9.6,12.1,19,24.2,28.5,36.4c4.4,5.6,7.7,11.6,7.9,18.9c0.1,3.9-1.4,6.3-5.5,7.1c0-1.1,0-2.2,0-3.9c-7.9,5.6-15.5,7.2-22.7-0.6
		c2.2-6.4,4.4-7,10.2-2.6c-0.5,0.9-0.9,1.9-1.5,2.8c-0.5,0.9-1.1,1.8-1.6,2.6c0.2,0.2,0.5,0.4,0.7,0.6c1.9-2,3.7-3.9,5.6-5.9
		c0.3,0.2,0.6,0.4,0.9,0.6c-0.7,1.5-1.5,3.1-2.2,4.6c2.7,0.3,5-2.4,5.3-6.1c0.2-0.1,0.4-0.3,0.6-0.3c8.4-1.1,9.5-3.2,5.6-10.6
		c-1.4-2.7-3.1-5.2-5-7.7c-8.3-10.7-16.7-21.4-25-32.1c-0.5-0.7-1.1-1.2-1.1-1.2c-6.1,4.8-11.9,9.4-18.1,14.2c0.8,1,1.8,2.4,2.8,3.7
		c6.2,7.8,12.4,15.7,18.7,23.4c2.7,3.4-0.3,4.9-2,6.5c-2.2,2.2-3.2-0.5-4.2-1.7c-6.3-7.9-12.6-15.9-18.8-23.9
		c-1.5-1.9-2.6-4-4.1-6.4c-2.2-0.4-4.8-0.8-8.6-1.5c8.9,11.6,17.1,22.4,25.3,33.1c-0.1,0.1-0.2,0.2-0.4,0.4
		c-0.3-0.3-0.7-0.5-0.9-0.8c-8.3-10.5-16.6-21.1-25.1-31.5c-1.3-1.6-4-2.2-6.7-2.6c0.5,1.3,1,2.5,1.5,3.9c-0.2,0-0.6,0.1-0.6,0
		c-2.9-5.4-8.1-8.5-12.3-12.6c-5.7-5.5-10.6-11.8-15.5-18c-9.7-12.1-19.1-24.4-28.7-36.7c-4.5-5.8-8-12.1-8.8-19.4
		c-0.3-2.9-0.8-6.2,0.3-8.6c2.9-6.2,5.8-12.9,10.3-17.8c5.9-6.6,14.5-6.3,22.7-4.4c11.2,2.6,20.9,8.2,28.2,16.8
		c12.3,14.5,23.8,29.7,35.8,44.8c-6,0.4-7.2-0.2-10.5-4.3c-7.9-10.1-15.7-20.3-23.8-30.3c-2.4-3-5.4-5.6-8.3-8.3
		c-0.8-0.8-2.2-1-3.7-1.6c12,14.9,23.6,29.2,35.3,43.7c-3.4,1.4-6.3,2.6-9.2,3.8c0.1,0.2,0.2,0.5,0.3,0.7c2.6,0.3,5.2,0.7,7.7,1
		c0,0.1,0,0.2-0.1,0.4c-4.8,0.4-9.5,0.8-14.3,1.2c0.6-0.5,1.3-1.2,2.4-2.2c-8.6-10.5-16.8-21.2-25.7-31.1
		C77.8,61.5,70.8,57.6,60.8,59.2z M103.4,131.7c0.3-0.4,0.7-0.7,1-1C87.6,109.1,70.7,87.6,53.9,66c-0.5,0.3-1.1,0.5-1.7,0.8
		c0.4,1.6,0.3,3.6,1.3,4.8c14.2,18.1,28.4,36.1,42.8,54C98.3,128,101,129.7,103.4,131.7z"/>
	<path class="st1" d="M162.9,210.7c2,0.5,3.2,0.9,4.4,1.2c-11.1,0.5-19.1-5.8-26.4-11.3c5.2,2.2,11.1,5.3,17.4,7.2
		c4.4,1.3,9.4,1.5,14.1,1.4c7.4-0.3,12.8-4.3,16.6-11.2c-0.6,7.5-4.2,11.4-11.6,11.8C172.9,209.8,168.4,210.2,162.9,210.7z"/>
	<path class="st1" d="M167.3,197.8c-9.5,5.6-24.7-0.2-30.6-11.4c4.4,3.5,8.6,7.7,13.4,10.6C155.4,200.3,161.4,199.6,167.3,197.8z"/>
	<path class="st1" d="M190.1,169.8c-1.2-1.7-2-2.8-2.9-4c1.5-2.2,2.9-4.4,4.4-6.8C196.4,163.3,190.9,165.9,190.1,169.8z"/>
	<path class="st1" d="M191.9,178.1c2.6,4.5,1.8,9.1-0.7,13.8c-0.2-4.5-0.5-9.1-0.7-13.6C191,178.1,191.4,178.1,191.9,178.1z"/>
	<path class="st1" d="M199.8,184.2c-1.8,4.6-3.3,8.4-5.1,13.1C195.1,185.9,194.5,186.1,199.8,184.2z"/>
	<path class="st1" d="M115.3,103.3c-3.5,0.5-7.3,1.1-10.9,1.6C106.2,101.6,107.4,101.4,115.3,103.3z"/>
	<path class="st1" d="M186.8,179.2c0.9,2.7,1.7,5.4,2.6,8c-0.4,0.1-0.7,0.2-1.1,0.3c-0.9-2.7-1.8-5.5-2.8-8.2
		C185.9,179.3,186.4,179.2,186.8,179.2z"/>
	<path class="st1" d="M103.4,131.7c-2.4-2-5.1-3.7-7-6.1c-14.4-17.9-28.7-35.9-42.8-54c-0.9-1.2-0.9-3.2-1.3-4.8
		c0.5-0.3,1.1-0.5,1.7-0.8c16.8,21.5,33.7,43.1,50.5,64.7C104.1,131,103.7,131.4,103.4,131.7z"/>
</g>
</svg>
