<?xml version="1.0" encoding="utf-8"?>
<!-- Generator: Adobe Illustrator 23.0.1, SVG Export Plug-In . SVG Version: 6.00 Build 0)  -->
<svg version="1.1" id="Layer_1" xmlns="http://www.w3.org/2000/svg" xmlns:xlink="http://www.w3.org/1999/xlink" x="0px" y="0px"
	 viewBox="0 0 233 244" style="enable-background:new 0 0 233 244;" xml:space="preserve">
<style type="text/css">
	.st0{fill:#000033;}
</style>
<g>
	<path class="st0" d="M56.9,163.5c3.3,3.8,6.2,7.2,9.1,10.6c5,5.8,10.1,11.6,15,17.5c2.2,2.7,1.6,7.2-1.1,9.2
		c-3.1,2.3-7.2,1.7-9.6-1.2c-3.8-4.6-7.8-9.2-11.8-13.7c-4.7-5.5-9.4-10.9-14.1-16.4c-2.2-2.6-4.5-5.1-6.5-7.7
		c-2.5-3.2-2-6.8,0.7-9.7c3.5-3.8,6.8-7.8,10.2-11.8c4-4.8,8-9.6,12.1-14.4c2.9-3.4,5.8-6.8,8.6-10.3c2.4-3,5.2-4.1,8.2-3.1
		c4.6,1.5,6,7.1,2.7,11c-7.1,8.4-14.2,16.9-21.3,25.4c-0.3,0.4-0.6,0.9-1,1.6c0.9,0,1.6,0,2.3,0c43.5-0.1,86.9-0.1,130.4-0.2
		c3.5,0,6.2,2.4,6.8,5.9c0.4,2.8-1.7,6-4.8,7c-0.7,0.2-1.5,0.3-2.2,0.3c-43.6,0.1-87.3,0.2-130.9,0.2
		C58.9,163.5,58.2,163.5,56.9,163.5z"/>
	<path class="st0" d="M176.5,78.3c-3.9-4.6-7.5-8.8-11.1-12.9c-4.3-5-8.7-10-12.9-15.1c-2.2-2.7-1.7-7.2,0.9-9.2
		c3-2.4,7.2-1.8,9.6,1c4,4.8,8.1,9.4,12.1,14.1c4.6,5.4,9.2,10.8,13.8,16.2c2.2,2.6,4.6,5.1,6.7,7.8c2.3,2.9,1.8,6.6-0.6,9.3
		c-3.6,3.9-7,8-10.4,12c-4.1,4.8-8,9.6-12.1,14.4c-2.9,3.4-5.8,6.9-8.6,10.3c-2.3,2.9-5.1,4-8,3.1c-4.7-1.5-6.1-7.1-2.8-11.1
		c7.1-8.4,14.2-16.9,21.3-25.4c0.3-0.4,0.6-0.8,1-1.5c-1,0-1.7,0-2.4,0c-43.4,0.1-86.8,0.2-130.2,0.2c-3.7,0-6.4-2.3-6.9-6
		c-0.4-2.8,1.8-6,4.9-6.9c0.7-0.2,1.5-0.2,2.2-0.2c43.6-0.1,87.3-0.2,130.9-0.2C174.6,78.3,175.3,78.3,176.5,78.3z"/>
</g>
</svg>
