<?xml version="1.0" encoding="utf-8"?>
<!-- Generator: Adobe Illustrator 23.0.1, SVG Export Plug-In . SVG Version: 6.00 Build 0)  -->
<svg version="1.1" id="Layer_1" xmlns="http://www.w3.org/2000/svg" xmlns:xlink="http://www.w3.org/1999/xlink" x="0px" y="0px"
	 viewBox="0 0 233 244" style="enable-background:new 0 0 233 244;" xml:space="preserve">
<style type="text/css">
	.st0{fill:none;}
	.st1{fill:#000033;}
</style>
<path class="st0" d="M-1.5,68.8c2.6-0.4,2.3,1.3,2.1,2.6c-1.7,15.6-1.9,31.3-1.6,47.1c0,3.3,0.2,6.7,0.4,10c0.2,2.7-0.8,4.3-3.3,5.2
	c0.2-15,0.3-29.9,0.6-44.9C-3.2,82.9-2.4,76.9-2,71C-1.9,70.3-1.7,69.6-1.5,68.8z"/>
<g>
	<path class="st1" d="M87.5,122.7c-0.2,0.3-0.3,0.6-0.6,0.8c-0.9,0.6-1.8,1.1-2.6,1.6c-0.6,0.3-1.1,0.6-1.7,0.9
		c-1.6,0.8-3.2,1.6-4.7,2.5c-0.5,0.3-0.9,0.8-1.4,1.2c-0.1,0.1-0.2,0.3-0.4,0.3c-1.3,0-2.3,0.8-3.2,1.6c-0.9,0.7-1.7,1.5-3,1.5
		c-0.5,0-1,0.6-1.6,1.1c1.4,0.6,2.2-0.4,3-0.8c2.3-1.1,4.6-2.2,6.8-3.5c1.4-0.8,2.8-1.7,4.1-2.5c1-0.6,2-1.2,3-1.7
		c1.7-0.9,3.4-1.9,5.2-2.8c0.7-0.3,1.4-0.5,2-0.9c1.6-1,3.2-1.8,5-2.4c0.8-0.3,0.9-1.1,0.3-2.5c0.4-0.2,0.8-0.4,1.2-0.7
		c0.3-0.2,0.7-0.6,0.6-0.8c-0.3-1.9,1.2-2.7,2.3-3.8c0.4-0.4,1.2-0.6,1.4-1c0.4-0.9,1.1-1,1.8-1c1.3,0.1,2.5,0.3,3.8,0.5
		c0,0.2,0,0.3,0,0.5c-0.9,0.5-2,0.8-2.8,1.5c-0.7,0.6-1.1,1.6-1.5,2.6c1.9-0.8,4.2-0.7,5.6-2.5c0.4-0.5,1-0.9,1.5-1.3
		c-0.1-0.1-0.1-0.2-0.2-0.3c0.3,0,0.5,0,0.8,0c0-0.1,0.1-0.1,0.1-0.2c-0.3-0.2-0.6-0.3-1-0.5c1.9-2.2,3.8-4.4,5.7-6.5
		c0,0.3,0.1,0.8,0.2,1.3c0.1,0,0.2,0.1,0.4,0.1c0.5-1,0.8-2,1.4-2.9c0.6-0.8,0.6-2.3,2.2-2.4c-0.7-3.3-1.3-6.7-2.1-9.9
		c-0.1-0.3-0.5-0.6-0.9-0.8c-2.6-1.3-4.3-3.2-4.2-6.3c0.1-2.2,0.9-4.2,3.4-5c0.5-0.2,1-0.6,1.5-0.9c1.2-0.7,2.5-1.4,3.7-2.1
		c1.7-0.9,3.7-1.4,5.1-2.9c0.3-0.3,1-0.2,1.5-0.3c1.1-0.4,2.2-0.9,3.3-1.2c1-0.3,2-0.5,3-0.8c0.7-0.2,1.4-0.6,2.1-0.9
		c0.1,0,0.2-0.2,0.2-0.2c0.8,0.6,1.3-0.3,1.9-0.5c1.8-0.4,3.5-0.9,5.2-1.3c1.4-0.3,2.7-0.7,4.1-1c1-0.2,2-0.1,3-0.2
		c0.9-0.1,1.9-0.3,2.8-0.7c-12.3,1.1-24.1,3.8-34.9,9.9c-1.7-0.9-3.3-1.7-4.9-2.6c-4.5-2.6-5.9-9.2-2.8-13.1
		c0.2,0.3,0.3,0.7,0.6,0.9c0.2,0.2,0.6,0,1,0c0-0.5,0.1-1.2,1.1-0.7c-0.1-1.5,1-1.4,1.9-1.8c0.8-0.3,1.7-0.8,2.5-1.2
		c0.1,0,0.1-0.2,0.2-0.2c1.3-0.2,2.2-1,2.6-2.2c0-0.1,0.2-0.2,0.3-0.2c0.9-0.1,1.8-0.2,2.4-1c0.2-0.2,0.9-0.1,1.5-0.1
		c0.3-0.5,0.6-1.2,0.9-1.9c0.2,0.3,0.3,0.5,0.5,0.9c0.4-0.4,0.7-0.7,0.8-0.9c0.5,0.1,0.9,0.4,1.2,0.3c0.4-0.2,0.6-0.7,0.9-1.1
		c0,0.1,0.2,0.3,0.4,0.7c0.4-0.5,0.9-0.9,1.2-1.3c0.1,0.2,0.1,0.5,0.3,0.9c0.5-0.4,1.1-0.7,1.5-1.1c0.6-0.7,1.4-0.7,2.2-0.8
		c0.2,0,0.4-0.4,0.7-0.6c0.7,0.6,1.4,0.9,2.1-0.2c0.1-0.1,0.3-0.1,0.5-0.1c1-0.2,2.1-0.3,3.1-0.5c0.2,0,0.4,0,0.5-0.1
		c0.9-0.9,1.9-0.8,3.1-0.7c0.5,0,1.1-0.1,1.5-0.4c1.3-1,2.9-0.8,4.4-0.9c0.7,0,1.4,0.3,2.1,0.4c0.3-0.4,0.6-0.8,0.9-1.4
		c-6.3-0.3-12.4,0.5-18.5,1.9c-6,1.4-11.7,3.5-17.3,6.2c0.1-0.2,0.2-0.4,0.4-0.5c1.9-1.2,3.8-2.5,5.8-3.5c2.8-1.3,5.7-2.5,8.7-3.4
		c4.1-1.2,8.4-2,12.8-2.4c2.5-0.3,4.9-0.6,7.4-0.4c2.6,0.3,5.2,0.7,7.7,1.8c1.5,0.7,3,1.3,4.5,1.8c5,1.8,7.8,6.2,7.1,11.1
		c-0.3,2.3-1.6,4-3.2,5.7c-0.7,0.7-1.2,1.5-1.9,2.4c1.3,0.4,2.4,0.7,3.4,1c-4-0.7-8-1.1-12.1-0.2c0.6,0.1,1.2,0.3,1.8,0.3
		c0.8,0,1.6-0.2,2.4-0.3c0.1,0,0.2-0.1,0.3-0.1c1.1,0.3,2.2,0.7,3.3,1c0.4,0.1,0.9,0,1.4,0.1c0.3,0,0.6,0.2,0.9,0.3
		c1.4,0.5,2.9,1,4.3,1.6c0.6,0.2,1,0.7,1.6,1c0.5,0.3,0.9,0.4,0.7-0.6c1.7,2.6,1.6,5.3-0.5,7.8c-0.9,1-1,1.9-0.7,3.1
		c1.3,6.1,2.6,12.2,3.9,18.4c0.2,1,0.7,1.5,1.5,1.8c2.1,0.8,3.4,2.4,3.9,4.6c0.3,1.7-0.2,3.1-1.4,4.3c-0.3,0.3-0.5,0.6-0.9,0.9
		c-0.4-1-0.7-1.9-2-1.5c-0.2,0-0.4-0.3-0.6-0.4c-3.7,0.8-2.8,3.4-2.4,5.8c-1.7-0.2-3.2-0.4-4.7-0.5c-1.4-0.1-2.7,0-4.2,0
		c0.4,0.7,0.7,1.2,1.1,1.8c0.1-0.3,0.2-0.6,0.3-0.9c0.4,0.3,0.8,0.7,1.2,0.8c0.4,0.1,0.9-0.1,1.5-0.1c0-0.2,0.1-0.5,0.2-0.9
		c0.2,1.9,1.8,0.7,2.6,1.3c0-0.3,0.1-0.6,0.1-0.9c1.1,0.2,2.3,0.2,3.2,0.7c2.5,1.5,5.6,2,7.7,4.2c-0.6-0.3-1.1-0.7-1.7-0.9
		c-3.3-1-6.7-1.7-10.2-1.5c-0.3,0-0.6,0.2-0.8,0.1c-1-0.7-1.8-0.1-2.4,0.3c-0.8-0.1-1.4-0.2-2-0.3c0.1,0.5,0.1,1.1,0.2,1.7
		c-0.4-1.4-1.2-2.1-2.5-1.9c-0.5,0.1-1,0.7-1.3,1.2c-0.2,0.4,0.1,1,0.2,1.6c0.2-0.2,0.3-0.4,0.2-0.3c0.4,0.1,0.9,0.3,1,0.3
		c0.4-0.5,0.8-0.1,1.2,0c0.6,0.1,1.1,0.2,1.7,0.2c0.2,0,0.4-0.2,0.6-0.3s0.5-0.1,0.8-0.1c0.5,0.8,0.6,0.8,1.2-0.2
		c1.2,0.7,2.3,0.8,3.6,0.3c0,0,0.1,0.2,0.1,0.3c0.1-0.1,0.3-0.3,0.4-0.3c0.5,0.1,1,0.3,1.5,0.3c0.5,0,1-0.3,1.5-0.3
		c1.1,0,2.1,0.1,3.2,0.2c0.4,0,0.7,0.3,1,0.4c0,0,0,0,0,0c0.8,0.2,1.6,0.5,2.5,0.8c-0.1-0.6-0.1-1.1-0.2-1.6
		c1.6,1.6,2.3,3.6,2.3,5.8c0,1-0.2,1.8-1,2.6c-0.8,0.7-1.1,2-1.8,2.8c-0.8,1-1.7,1.8-2.4,2.5c-0.6,1-0.9,2-1.6,2.7
		c-3.5,3.3-7.7,5.4-12.1,7c-6.9,2.6-11.6,3.5-19.2,4.3c0.4,0.1,0.5,0.2,0.7,0.2c4,0.5,8,1.2,12,1.4c3.4,0.2,6.8,0,10.2,0
		c4.4-0.1,8.7-0.2,13-0.2c0.4,0,0.8,0.3,1.2,0.4c0.2,0,0.7,0.6,0.6-0.2c0.6-0.1,1.1-0.2,1.6-0.2c0.7,0,1.4,0.3,2.1,0.3
		c1.5,0.1,2.9,0,4.4-0.2c-0.2-0.1-0.3-0.2-0.7-0.4c3.2,0,6.2,0,9.3,0c0,0,0-0.1,0-0.1c-1.2,0-2.4,0-3.6,0c0,0,0,0,0-0.1
		c1.8-0.2,3.6-0.4,5.4-0.4c0.3,0,0.9,0.5,0.9,0.9c0.1,1,0.6,1.6,1.4,2.1c2.1,1.3,3.1,3.3,3.2,5.8c0.1,1.4,0.5,2.6,1.6,3.5
		c1.6,1.3,2.3,3.1,2.3,5.1c0,3.4,0,6.7,0.1,10.1c0,2.1,0.1,4.3,0.2,6.4c0.1,2.2-0.2,2.8-2.4,3.5c-0.9,0.3-1.8,0.5-2.7,0.7
		c-9.1,2-11.9,2.2-22.4,2.8c-14.3,0.7-28.7,0.9-43,0.8c-0.9,0-1.9,0.4-2.6-0.8c-0.1-0.3-1-0.1-1.6,0.1c0.4,0,0.8,0.1,1.2,0.1
		c-0.4,0.6-1,0.8-1.6,0.4c-0.7-0.5-1.3-0.5-2-0.1c-0.3,0.2-0.8,0.3-1.2,0.3c-6.4-0.2-12.7-0.5-19.1-0.8c-4.7-0.3-9.3-0.7-14-1.2
		c-1.2-0.1-2.4-0.4-3.7-0.6c0.2-0.1,0.3-0.2,0.4-0.3c-1.2-0.3-2.3-0.6-3.5-0.9c-2-0.7-2.5-1.2-2.5-3.4c0-5.5,0.1-11,0.2-16.5
		c0-2,0.8-3.7,2.3-4.9c1.2-0.9,1.5-2.1,1.5-3.4c0-2.6,1.2-4.6,3.4-5.9c0.7-0.5,1-1.1,1.1-1.9c0-0.8,0.4-1.2,1.3-1
		c1.3,0.2,2.6,0.6,3.9,0.7c1,0.1,2.1,0.1,3.1,0.1c4.6,0.1,9.2,0.1,13.9,0.1c1.3,0,2.5-0.1,3.8,0c0.9,0,1.8,0.2,2.6,0.3
		c1.4,0.1,2.9,0,4.4-0.2c-0.3-0.2-0.7-0.3-1.2-0.6c2.7-0.4,5.2-0.8,7.7-1.1c0,0,0-0.1,0-0.1c-1.2-0.1-2.3-0.2-3.5-0.4
		c-1.6-0.3-3.3-0.6-4.9-1.1c-1.2-0.3-2.3-0.8-3.1-1.9c-0.2-0.3-0.7-0.4-1.1-0.5c-2.1-0.6-4.1-1.3-5.6-3c-2.8-3.1-2.8-7.6,0-10.8
		c0.4-0.4,0.8-0.8,1.1-1.2c0.7-0.7,1.4-1.2,1.6-2.3c0.1-0.8,1-1.5,1.6-2.2c0.7-0.8,0.6-2-0.4-2.4c-1.5-0.5-2.9-0.9-4.6-0.2
		c-0.6,0.3-1.7-0.1-2.3-0.5c-0.8-0.5-1.4-1.2-2-1.9c-0.6-0.7-0.8-1.7-2.1-0.6c-0.9,0.8-2.3,1.1-3.5,1.6c-0.9,0.5-1.8,1.1-2.8,1.6
		c0.1,0.1,0.1,0.2,0.1,0.3c0.5-0.2,1-0.4,1.5-0.7c0.2,1.4-1,3.8-2.6,4.9c-3,2.1-6,1.9-8.9,0.4c-0.9,0.7-1.7,1.3-2.6,1.8
		c-3.3,1.9-6.7,3.8-10,5.7c-1.5,0.9-2.9,2-4.4,2.9c-4.6,3-9.3,5.9-13.9,8.8c-3.8,2.5-7.5,5.1-11.3,7.6c-8.6,5.7-17.6,10.9-26.7,15.7
		c-1.6,0.8-3,1.9-4.7,2.6c-1.4,0.6-3,0.9-4.4,1.3c-0.3,0.1-0.6,0.1-0.9,0.3c-1.5,0.8-3,0.7-4.6,0.2c-0.4-0.1-0.9-0.3-1.4-0.2
		c-1.5,0.1-2.7-0.6-3.4-1.9c-0.8-1.3-0.6-2.6,0.1-3.8c0.3-0.5,0.4-1.1,0.7-1.6c0.4-0.9,0.7-2,1.3-2.7c2.4-2.7,5.1-5,8.3-6.8
		c7.8-4.3,15.4-9.1,23.3-13.3c8.6-4.6,17.4-8.8,26.1-13.1c4.1-2.1,8.1-4.2,12.2-6.2C86.9,123,87.2,122.9,87.5,122.7
		C87.5,122.7,87.5,122.7,87.5,122.7z M181,154.1c0.5,0,1,0.1,1.7,0.1c-0.3,0.3-0.4,0.5-0.6,0.6c1,0.4,1.3,0,1-1.3
		c0.2,0.2,0.5,0.4,0.6,0.6c1.1-0.2,2.1-0.4,3-0.4c1,0,2.1,0.4,3.1,0.4c0.6,0,1.2-0.2,1.8-0.3c0-0.1,0-0.1-0.1-0.2
		c1.1,0.2,2.3,0.4,3.4,0.6c0.6-0.1,1.4-0.7,2-0.6c1.1,0.1,2.1,0.1,3.1,0.2c0.7,0.1,1.3,0,1.9-0.2c0.5-0.1,1.1-0.2,1.6-0.3
		c0.3-0.1,0.6-0.2,0.8-0.2c0.8-0.1,1.7-0.3,2.5-0.2c1.1,0.2,1.7-0.1,2.4-1.2c-0.6-0.2-1.1-0.6-1.7-0.6c-1.4,0-2.9,0.1-4.3,0.2
		c-2.6,0.1-5.2,0.2-7.8,0.4c-2.4,0.2-4.9,0.4-7.3,0.6c-0.9,0.1-1.9-0.1-2.8-0.1c-0.4,0-0.9,0.3-1.3,0.4c0,0.1,0,0.2,0,0.3
		c-0.5-0.2-1-0.5-1.5-0.7c-0.1,0.1-0.1,0.1-0.2,0.2c0.2,0.4,0.5,0.8,0.7,1.1c-0.5-0.3-1-0.6-1.6-1C180.6,152.9,180.6,153,181,154.1
		c-0.9-0.5-1.7-0.3-2.3,0.7c0.8,0,1.5,0,2.4,0C181.1,154.6,181.1,154.4,181,154.1z M142.1,95.4L142.1,95.4c-0.2-0.3-0.4-0.7-0.7-0.9
		c-1.3-0.9-2.1,0.7-3.4,0.6c0.4,0.3,0.6,0.4,0.8,0.6c-0.8,0-1.6,0-2.8,0c0.6-0.3,1-0.5,1.2-0.6c-0.3-0.4-0.6-0.7-0.8-1
		c-0.6-1-0.2-1.8,0.8-2.6c-0.6,0.1-0.9,0.1-1.2,0.1c0-0.1,0-0.1,0-0.2c0.5-0.3,1.1-0.6,1.6-0.8c-0.1-0.1-0.1-0.2-0.2-0.4
		c-0.5,0.1-1.1,0.3-1.5,0.4c-0.3-0.2-0.6-0.4-0.9-0.7c0.5-0.6,1-1.2,1.6-1.9c-0.3,0-0.8,0.1-1.1,0.1c-0.2-0.3-0.4-0.6-0.5-0.7
		c0.4-0.4,0.8-0.7,1.2-1.1c0.2,0,0.5,0.1,0.7,0.2c0-0.1-0.1-0.2-0.1-0.2c0.5-0.4,1-0.7,1.5-1.2c-1.3-1-2.3,0.7-3.6,0.2
		c1.1-0.8,2.2-1.5,3.5-2.3c-0.7,0.1-1.2,0.2-1.7,0.3c0-0.4,0-0.8-0.1-1.3c0.3,0.2,0.6,0.3,0.9,0.5c-0.1-0.5-0.2-0.8-0.3-1.1
		c-0.3,0-0.6,0.1-0.9,0.1c0-1,0-1.9,0-2.9c-0.2,0-0.5,0.1-0.8,0.1c0,0,0-0.1,0-0.1c0.4-0.2,0.8-0.3,1.3-0.5
		c-1.3,0.1-2.5-0.8-3.7,0.1c0,0-0.1,0-0.2-0.1c-1.5-1.2-2.9,0.3-4.4,0.1c-0.1,0-0.4,0.2-0.4,0.3c-0.5,1.1-1.2,2.1-1.5,3.2
		c-0.3,1.2,0.8,2.3,0.6,3.5c0,0.1,0.1,0.1,0.1,0.2c0.2,0.8,0.4,1.7,0.6,2.6c0,0.1-0.2,0.2-0.1,0.1c0.3,0.6,0.4,1,0.6,1.4
		c0.1,0.3,0.3,0.7,0.5,1c0.1,0.2,0.1,0.4,0.2,0.7c0.1,0.5,0.2,0.9,0.4,1.4c0.1,0.3,0.4,0.6,0.3,0.9c-0.3,0.8,0,1.2,0.4,1.4
		c0.2,0.7,0.3,1.1,0.5,1.6c0.2,0,0.5,0,0.7,0c-0.1,0.6-0.5,1.4-0.3,1.5c1.1,0.9,0.3,1.9,0.3,2.7c0.4,0.2,0.8,0.3,1.2,0.4
		c0,0.1,0,0.2,0,0.3c-1.4,0.5-2.1,1.3-2,2.8c0,0.1-0.1,0.2-0.2,0.2c0,0,0,0,0,0.1c-0.6-0.3-1.1-0.6-1.7-0.9
		c-0.1,0.1-0.2,0.2-0.3,0.3c0.6,0.8,1.2,1.7,1.9,2.5c-1.4,0.8-1.3-1.1-2.4-1c0.3,0.6,0.7,1.1,1,1.6c-1.4,1-2.8,2.1-4.2,3.1
		c0.6,0.7,1.5,0.7,2.2,0c1.3-1.4,3-1.8,4.6-2.4c0.4-0.2,0.7-0.6,1.1-0.8c-0.1-0.1-0.1-0.2-0.2-0.3c0.5,0,0.9,0,1.4,0
		c0,0.1,0.1,0.2,0.1,0.3c0.4-0.3,0.8-0.5,1-0.9c0.5-0.8,1.1-1.2,2-1.2c0.6,0,1.2,0.1,1.6-0.2c0.7-0.3,1.2-1,1.9-1.3
		c0.4-0.2,1-0.3,1.5-0.3c0.8-0.1,1.6,0,2.4-0.1c1.1-0.2,1.9-1.1,3.1-1c0.1,0,0.2-0.1,0.3-0.2c0.9-0.3,1.7-0.7,2.5-1
		c-0.6,0-1.4-0.1-2.1,0c-1.5,0.3-3,0.7-4.6,1c-1.1,0.2-2.1,0.3-3.2,0.4c0-0.1,0-0.2,0-0.3c0.2-0.2,0.4-0.4,0.7-0.6
		c-0.8-0.2-1.6-0.4-2.6-0.6c1.3-0.9-0.2-1.6,0.3-2.3c0.6,0.4,1.2,1.1,2,0c-1-0.4-2.3-0.7-1.6-2.2c0.1-0.1,0.1-0.3,0.2-0.5
		c0.5,1.8,0.9,2.2,1.8,2C141.8,97.1,142.2,96.3,142.1,95.4z M150.6,71.8c0.6,2,1.7,3.7,1.6,5.8c0,0.8,0.4,1.5,0.6,2.3
		c0.1,0.4,0.1,0.8,0.2,1.2c0.2,1.1,0.4,2.2,0.6,3.4c0.2,1.2,0.4,2.4,0.7,3.6c0.2,1.2,0.5,2.5,0.8,3.7c0.4,2.3,0.8,4.5,1.2,6.9
		c7.4-0.8,14.7-1.3,22.1-0.1c-0.1-0.6-0.2-1.1-0.3-1.6c-1.4-7.1-2.8-14.1-4.1-21.2c-0.3-1.7-1.1-2.7-2.6-3.4c-2.4-1.1-5-1.3-7.6-1.5
		C159.3,70.7,155,70.9,150.6,71.8z M149.5,161.3c0,0.1-0.1,0.2-0.1,0.3c-0.3,0-0.8,0.1-1-0.1c-1.2-0.9-2.6-0.9-3.9-1
		c-4.1-0.1-8.3-0.2-12.4-0.2c-3.2-0.1-6.4-0.1-9.7-0.2c-2.3,0-4.7,0-7.1-0.2c-3-0.2-6-0.5-8.9-0.8c-1.7-0.2-2.8,0.6-3.6,2
		c-0.5,0.8-0.3,1.2,0.7,1.4c1.5,0.2,3,0.7,4.6,0.3c0.6-0.1,1.2-0.1,1.8,0c0.8,0.1,1.6,0.5,2.4,0.6c0.7,0.1,1.4-0.2,2.1-0.2
		c1.5,0,3,0.2,4.6,0.2c1,0,2.1,0,3.1-0.1c0.2,0,0.4-0.3,0.7-0.5c1,1,1.9-0.3,3-0.3c-0.2,0.2-0.4,0.4-0.6,0.6
		c0.5,0.1,0.9,0.3,1.4,0.3c0.7,0.1,1.3,0.1,2,0.1c0.5,0,1.1-0.2,1.6-0.3c1.4-0.1,2.9-0.2,4.3-0.3c0.6-0.1,1.1-0.4,1.7-0.3
		c1.4,0.1,2.8,0.4,4.2,0.4c0.9-0.1,2.1,0.4,2.7-0.9c0,0,0.4,0,0.5,0.1c1.1,1.1,3.5,1.6,4.6,0.6c0.8-0.7,1.5-0.5,2.3-0.4
		c0.7,0.1,1.4,0.1,2.1,0.1c1.3,0,2.6,0,3.9-0.1c0.7,0,1.3-0.1,2-0.2c-0.6-1.5-0.8-1.7-2.2-1.6c-0.5,0-1,0-1.5,0c-2,0-3.9,0-6,0
		C149.1,160.8,149.3,161.1,149.5,161.3z M149,152.9c0,0,0-0.1,0-0.1c0.8-0.1,1.6-0.2,2.4-0.1c2.9,0.2,5.8-0.6,8.8,0
		c1,0.2,2.2-0.3,3.2-0.5c0.3-0.1,0.6-0.2,0.9-0.2c1.1,0,2.2,0,3.3,0c0-0.1,0-0.3,0.1-0.4c-0.8-0.2-1.6-0.4-2.5-0.6
		c0,0.1,0,0.1-0.1,0.2c0.2,0.1,0.5,0.2,0.8,0.3c-1-0.3-1.9,0.4-3-0.3c-0.8-0.5-2-0.2-3-0.3c-1.2,0-2.5,0-3.7,0c0,0,0,0.1,0,0.1
		c0.5,0,1,0.1,1.4,0.1c-0.2,0.2-0.4,0.2-0.6,0.2c-1.5-0.2-3.1-0.4-4.6-0.5c-1.5-0.1-3,0-4.5,0c-2.6,0-5.2,0-7.8,0
		c-0.6,0-1.2,0.4-1.8,0.4c-0.8,0-1.6-0.3-2.5-0.3c-0.7,0-1.5,0.2-2.2,0.1c-1.6-0.1-3.3-0.3-4.9-0.3c-2.3-0.1-4.7,0-7.1-0.1
		c-3.8-0.1-7.6-0.4-11.4-0.5c-1.5-0.1-2.4,0.9-3.5,1.7c-0.1,0.1-0.2,0.2-0.4,0.3c-0.5,0.3-0.6,1.4-0.1,1.5c0.7,0.2,1.4,0.3,2.1,0.4
		c0.9,0.1,1.8-0.2,2.8-0.2c1,0.1,1.9-0.3,2.9-0.4c1-0.1,2-0.1,3.1-0.1c0.6,0,1.1,0.3,1.6,0.2c1.1-0.2,2.1-0.6,3.1-0.8
		c0.4-0.1,0.9,0.3,1.3,0.4c0,0.1-0.1,0.1-0.1,0.2c2.4-0.3,4.9-0.6,7.4-0.9c-0.1,0.3-0.2,0.5-0.3,0.6c1.4,0.6,2.8,1,4.3,0.1
		c1.6,1.1,3.3,0.5,5,0c-0.1,0.3-0.2,0.5-0.3,0.9c0.3-0.2,0.4-0.3,0.6-0.4c1.1-0.2,2.3-0.3,3.4-0.5c0.1,0,0.2,0.1,0.3,0.1
		c0.5,0.1,1.1,0.4,1.6,0.4c2.6-0.1,5.2-0.2,7.9-0.4c1.1-0.1,2.3-0.2,3.4-0.3c0-0.1,0-0.1,0-0.2C154,152.9,151.5,152.9,149,152.9z
		 M188.9,163.2c0,0,0,0.1,0,0.1c0.5-0.1,0.9-0.2,1.4-0.2c0.4,0,0.8,0.1,1.2,0.1c0.4,0,0.8-0.2,1.1,0c1.5,0.7,2.9,1,4.1-0.5
		c0.1-0.1,0.5-0.1,0.7-0.1c0.9,0.2,1.7,0.5,2.5,0.5c1.6,0,3.2-0.2,4.8-0.4c0.1,0,0.2-0.1,0.3-0.1c0.9-0.2,1.7-0.6,2.6-0.7
		c1.7-0.2,3.4-0.4,5-0.6c0.2,0,0.6-0.5,0.6-0.8c-0.1-0.5-2.6-1.9-3.1-1.9c-2,0.2-4,0.4-6,0.5c-4.8,0.2-9.6,0.4-14.4,0.7
		c-0.1,0-0.2,0-0.3,0c0.1,0.3,0.2,0.5,0.3,0.8c0.9-0.8,3.8-0.7,4.2,0.1c-0.5,0.1-0.9,0.2-1.4,0.2c-1.1,0.1-2.1,0.1-3.1,0.6
		c-0.9,0.4-1.9-0.3-3.1,0.2c-1.1,0.5-2.7,0-3.9,0.4c-1.3,0.4-2.7,0.2-3.9,0.5c-0.4,0.1-0.8,0.1-1.4,0.2c1.5,0.8,2.8,0.5,4.1,0.1
		c0,0.3,0,0.5,0,0.7c0.3-0.2,0.5-0.6,0.8-0.6c1.1,0,2.3,0.1,3.4,0.1c0.6,0,1.3,0.1,1.9,0.1C187.8,163.4,188.4,163.3,188.9,163.2z
		 M143.9,122.1c0.4,0.1,0.8,0.1,1.1,0.1c0-0.9,0.9-0.8,1.3-0.7c0.8,0,1.4-0.9,2.3-0.3c0.1,0,0.2-0.1,0.4-0.2
		c0.5-0.3,0.9-0.8,1.4-0.8c0.6,0,1.6-0.7,1.8,0.4c0.5-0.3,0.9-0.7,1.5-1.2c0.2-1.1,0.6-1.3,1.3-0.8c1,0,1.7,0,2.4,0
		c0.4,0,1.2,0,1.3-0.2c0.7-1.3,1.2-0.6,1.7-0.1c0.3-0.6,0.6-1.1,1-1.7c-1.3,0.1-2.3,0.4-3.4,0.6c-1.6,0.3-3.3,0.5-4.9,0.8
		c-0.5,0.1-1.1-0.3-1.5,0.5c-0.1,0.2-0.7,0.3-0.8,0.2c-0.6-0.7-1.2,0-1.7,0.1c-1.5,0.4-3,1-4.5,1.4c-0.3,0.1-0.7-0.1-1,0.1
		c-1.6,0.6-3.2,1.2-4.8,1.9c-0.5,0.2-1,0-1.7,0.4c-1.5,1-3.3,1.5-5,2.2c-1,0.5-2,1.2-2.9,1.8c-0.2,0.2-0.2,0.7-0.3,1.1
		c1.1-0.3,2.1-0.6,3-0.9c0.3-0.1,0.6-0.1,0.8-0.3c0.9-0.9,2-1.2,3.1-0.6c0.1-0.3,0.3-0.6,0.4-0.9c0.2,0.3,0.4,0.6,0.5,0.7
		c0.7-0.2,1.1-0.4,1.6-0.5c0.6-0.2,1.2-0.4,0.9-1.2c0,0,0.1-0.1,0.1-0.1c0.2,0.2,0.3,0.3,0.5,0.6c0.1-0.5,0.3-0.9,0.4-1.3
		c1.4,0.4,2.3,0.1,3-1c0.2,0.2,0.4,0.4,0.6,0.7C143.8,122.5,143.9,122.2,143.9,122.1z M173.1,52.4c0.1,0,0.2-0.1,0.3-0.1
		c-0.6-1-1-2-1.7-2.9c-1.4-1.8-3.4-2.3-5.5-2.8c-1.7-0.4-1.6,0-1.7,1.3c1.5,0.6,3.1,1.2,4.5,1.9C170.4,50.5,171.7,51.5,173.1,52.4z
		 M154.5,56.6c4.8,0.3,9.6,0.5,13.8,3.1c-1.6-2.8-4.6-2.8-7.2-3.5c-0.3-0.1-0.6,0.2-0.9,0.3c-0.1-0.2-0.3-0.4-0.4-0.4
		c-1.1,0-2.1,0-3.2,0.1c-0.6,0-1.1,0.1-1.7,0.2C154.8,56.4,154.7,56.5,154.5,56.6z M176.4,99.3c2.3,0.8,4.3,1.5,6.4,2.2
		C181.6,99.8,178.1,98.6,176.4,99.3z M165.8,63.5c-0.6-1.3-6.4-2.7-7.4-1.9C160.8,62.2,163.3,62.9,165.8,63.5z M162.2,162.1
		c-0.9-1.6-1.8-1.9-3.4-1.1c0.7,0,1.1,0,1.6,0c0.1,0.2,0.1,0.4,0.2,0.7c-0.6,0.1-1.1,0.1-1.6,0.2c0,0.1,0,0.2,0,0.2
		C160.1,162.1,161.1,162.1,162.2,162.1z M152.1,148.4c0-0.1,0-0.1-0.1-0.2c-4.5,0-8.9,0-13.4,0c0,0.1,0,0.1,0,0.2
		C143.1,148.4,147.6,148.4,152.1,148.4z M162.2,44c0-0.2,0.1-0.3,0.1-0.5c-1.6-0.4-3.1-0.9-4.7-1.3c0,0.2-0.1,0.3-0.1,0.5
		C159,43.2,160.6,43.6,162.2,44z M117.2,116.2c1.3,0.8,1.8,0.3,2.4-2.5c-0.3,0.3-0.7,0.5-0.7,0.6
		C119.2,115.6,118.5,116.1,117.2,116.2z M157,47.4c-0.2-0.5-0.4-1.1-0.5-1.1c-0.5,0-1,0.2-1.5,0.4c0,0.2,0,0.3,0,0.4
		C155.6,47.2,156.1,47.2,157,47.4z M15.2,167.6c-0.2,1.7,0.4,3,1.2,2.9C16,169.6,15.7,168.8,15.2,167.6z M163.2,117
		c0,0.1,0.1,0.2,0.1,0.4c0.8-0.2,1.7-0.4,2.5-0.7C164.8,116,164,116.4,163.2,117z M172.3,163c0,0.1,0.1,0.2,0.1,0.3
		c0.5-0.3,1.1-0.5,1.6-0.9c0.2-0.1,0.2-0.5,0.2-0.8C173.5,162.2,172.9,162.6,172.3,163z M140.6,118.3c-0.1-0.1-0.1-0.2-0.2-0.4
		c-0.8,0.3-1.6,0.7-2.4,1c0,0.1,0.1,0.2,0.1,0.3C139,118.9,139.8,118.6,140.6,118.3z M142.6,94.2c0.2-0.1,0.4-0.2,0.6-0.3
		c-1.2-0.2-0.9-0.7-0.8-1.2c-0.3,0.3-0.6,0.7-0.5,1.1C141.9,93.9,142.4,94.1,142.6,94.2z"/>
	<path class="st1" d="M186.4,118.7c0.1,0.5,0.1,1.1,0.2,1.6c-0.9-0.3-1.7-0.5-2.5-0.8c0,0,0,0,0,0c-0.3-0.1-0.7-0.4-1-0.4
		c-1.1-0.1-2.1-0.2-3.2-0.2c-0.5,0-1,0.3-1.5,0.3c-0.5,0-1-0.2-1.5-0.3c-0.1,0-0.2,0.2-0.4,0.3c-0.1-0.2-0.1-0.3-0.1-0.3
		c-1.3,0.5-2.4,0.4-3.6-0.3c-0.6,0.9-0.6,0.9-1.2,0.2c-0.3,0-0.6,0-0.8,0.1c-0.2,0.1-0.4,0.3-0.6,0.3c-0.6,0-1.1,0-1.7-0.2
		c-0.4-0.1-0.8-0.5-1.2,0c-0.1,0.1-0.6-0.1-1-0.3c0.1-0.1-0.1,0.1-0.2,0.3c-0.1-0.6-0.4-1.2-0.2-1.6c0.2-0.5,0.8-1.2,1.3-1.2
		c1.3-0.1,2,0.6,2.5,1.9c-0.1-0.6-0.2-1.2-0.2-1.7c0.6,0.1,1.2,0.2,2,0.3c0.6-0.4,1.4-1,2.4-0.3c0.1,0.1,0.5-0.1,0.8-0.1
		c3.5-0.2,6.9,0.5,10.2,1.5C185.4,118,185.9,118.4,186.4,118.7C186.5,118.7,186.4,118.7,186.4,118.7z"/>
	<path class="st1" d="M87.5,122.7c2.4-1.4,4.9-2.8,7.3-4.3c0.1,0.1,0.1,0.1,0.1,0.2c-0.5,0.3-0.9,0.7-1.4,1
		c-1.6,0.9-3.2,1.9-4.9,2.8C88.3,122.7,87.9,122.6,87.5,122.7C87.5,122.7,87.5,122.7,87.5,122.7z"/>
	<path class="st1" d="M150.6,71.8c4.4-0.9,8.7-1.1,13.1-0.9c2.6,0.1,5.2,0.4,7.6,1.5c1.5,0.7,2.3,1.7,2.6,3.4
		c1.3,7.1,2.7,14.2,4.1,21.2c0.1,0.5,0.2,1,0.3,1.6c-7.4-1.2-14.7-0.7-22.1,0.1c-0.4-2.4-0.8-4.6-1.2-6.9c-0.2-1.2-0.5-2.5-0.8-3.7
		c-0.2-1.2-0.4-2.4-0.7-3.6c-0.2-1.1-0.4-2.2-0.6-3.4c-0.1-0.4-0.1-0.8-0.2-1.2c-0.2-0.8-0.6-1.5-0.6-2.3
		C152.3,75.5,151.2,73.8,150.6,71.8z"/>
	<path class="st1" d="M130,104.2c0.1-0.1,0.2-0.2,0.2-0.2c-0.1-1.4,0.6-2.3,2-2.8c0-0.1,0-0.2,0-0.3c-0.4-0.2-0.8-0.3-1.2-0.4
		c0-0.8,0.8-1.8-0.3-2.7c-0.2-0.2,0.2-1,0.3-1.5c-0.1,0-0.4,0-0.7,0c-0.1-0.5-0.3-0.9-0.5-1.6c-0.4-0.1-0.7-0.6-0.4-1.4
		c0.1-0.2-0.2-0.6-0.3-0.9c-0.1-0.5-0.3-0.9-0.4-1.4c-0.1-0.2-0.1-0.4-0.2-0.7c-0.1-0.3-0.3-0.7-0.5-1c-0.2-0.4-0.4-0.8-0.6-1.4
		c-0.1,0.1,0.1,0,0.1-0.1c-0.2-0.9-0.4-1.7-0.6-2.6c0-0.1-0.1-0.1-0.1-0.2c0.2-1.2-0.8-2.3-0.6-3.5c0.3-1.1,0.9-2.1,1.5-3.2
		c0.1-0.1,0.3-0.3,0.4-0.3c1.5,0.2,2.9-1.3,4.4-0.1c0.1,0,0.2,0.1,0.2,0.1c1.2-0.8,2.4,0,3.7-0.1c-0.4,0.2-0.8,0.3-1.3,0.5
		c0,0,0,0.1,0,0.1c0.3,0,0.6-0.1,0.8-0.1c0,1,0,1.9,0,2.9c0.4,0,0.6-0.1,0.9-0.1c0.1,0.3,0.2,0.6,0.3,1.1c-0.4-0.2-0.6-0.3-0.9-0.5
		c0,0.5,0,0.9,0.1,1.3c0.5-0.1,0.9-0.2,1.7-0.3c-1.3,0.9-2.3,1.6-3.5,2.3c1.3,0.5,2.3-1.2,3.6-0.2c-0.6,0.4-1.1,0.8-1.5,1.2
		c0,0.1,0.1,0.2,0.1,0.2c-0.3-0.1-0.5-0.1-0.7-0.2c-0.4,0.4-0.8,0.7-1.2,1.1c0.1,0.2,0.3,0.4,0.5,0.7c0.3,0,0.8-0.1,1.1-0.1
		c-0.6,0.7-1.1,1.3-1.6,1.9c0.4,0.3,0.6,0.5,0.9,0.7c0.5-0.1,1-0.2,1.5-0.4c0.1,0.1,0.1,0.2,0.2,0.4c-0.5,0.3-1.1,0.6-1.6,0.8
		c0,0.1,0,0.1,0,0.2c0.3,0,0.6-0.1,1.2-0.1c-1,0.8-1.3,1.6-0.8,2.6c0.2,0.4,0.5,0.7,0.8,1c-0.2,0.1-0.6,0.3-1.2,0.6
		c1.1,0,1.9,0,2.8,0h0c-0.8,1.6,0.6,1.8,1.6,2.2c-0.8,1-1.4,0.4-2,0c-0.5,0.8,1,1.4-0.3,2.3c1,0.2,1.8,0.4,2.6,0.6
		c-0.2,0.2-0.5,0.4-0.7,0.6c0,0.1,0,0.2,0,0.3c1.1-0.1,2.1-0.2,3.2-0.4c1.5-0.3,3-0.7,4.6-1c0.7-0.1,1.5,0,2.1,0
		c-0.8,0.3-1.7,0.7-2.5,1c-0.1,0-0.2,0.2-0.3,0.2c-1.2-0.1-2,0.9-3.1,1c-0.8,0.1-1.6,0-2.4,0.1c-0.5,0-1.1,0.1-1.5,0.3
		c-0.7,0.4-1.2,1-1.9,1.3c-0.5,0.2-1.1,0.2-1.6,0.2c-0.9,0-1.6,0.4-2,1.2c-0.2,0.4-0.7,0.6-1,0.9c0-0.1-0.1-0.2-0.1-0.3
		c-0.5,0-0.9,0-1.4,0c0.1,0.1,0.1,0.2,0.2,0.3c-0.4,0.3-0.7,0.7-1.1,0.8c-1.7,0.6-3.4,1-4.6,2.4c-0.7,0.7-1.5,0.7-2.2,0
		c1.4-1,2.8-2,4.2-3.1c-0.3-0.5-0.6-1-1-1.6c1.1-0.2,1,1.8,2.4,1c-0.7-0.9-1.3-1.7-1.9-2.5c0.1-0.1,0.2-0.2,0.3-0.3
		C128.9,103.6,129.4,103.9,130,104.2c-0.2,0.2-0.5,0.3-0.5,0.3c0.1,0.7,1,1,1.9,0.6C130.9,104.7,130.4,104.4,130,104.2z M136.2,98.9
		c0,0.9,0.6,0.9,1,0.7c0.2-0.1,0.5-0.7,0.4-0.8C137,97.9,136.7,99.1,136.2,98.9z"/>
	<path class="st1" d="M149.5,161.3c-0.2-0.2-0.4-0.4-0.7-0.7c2.1,0,4.1,0,6,0c0.5,0,1,0.1,1.5,0c1.4,0,1.6,0.2,2.2,1.6
		c-0.7,0.1-1.4,0.2-2,0.2c-1.3,0.1-2.6,0.1-3.9,0.1c-0.7,0-1.4,0-2.1-0.1c-0.8-0.1-1.5-0.3-2.3,0.4c-1.1,1-3.5,0.5-4.6-0.6
		c-0.1-0.1-0.5-0.1-0.5-0.1c-0.6,1.3-1.8,0.8-2.7,0.9c-1.4,0.1-2.8-0.3-4.2-0.4c-0.6,0-1.1,0.3-1.7,0.3c-1.4,0.1-2.9,0.2-4.3,0.3
		c-0.5,0-1.1,0.2-1.6,0.3c-0.7,0-1.3,0-2-0.1c-0.5-0.1-0.9-0.2-1.4-0.3c0.2-0.2,0.4-0.4,0.6-0.6c-1,0-1.9,1.3-3,0.3
		c-0.3,0.2-0.5,0.5-0.7,0.5c-1,0.1-2.1,0.1-3.1,0.1c-1.5,0-3-0.2-4.6-0.2c-0.7,0-1.4,0.2-2.1,0.2c-0.8-0.1-1.6-0.4-2.4-0.6
		c-0.6-0.1-1.2-0.1-1.8,0c-1.6,0.4-3.1-0.1-4.6-0.3c-1-0.1-1.1-0.6-0.7-1.4c0.8-1.4,1.9-2.2,3.6-2c3,0.3,6,0.6,8.9,0.8
		c2.3,0.1,4.7,0.1,7.1,0.2c3.2,0.1,6.4,0.1,9.7,0.2c4.1,0.1,8.3,0.1,12.4,0.2c1.3,0.1,2.7,0.1,3.9,1c0.2,0.2,0.7,0.1,1,0.1
		C149.4,161.4,149.4,161.4,149.5,161.3z"/>
	<path class="st1" d="M149,152.9c2.5,0,5,0,7.5,0c0,0.1,0,0.1,0,0.2c-1.1,0.1-2.3,0.2-3.4,0.3c-2.6,0.1-5.2,0.3-7.9,0.4
		c-0.5,0-1.1-0.3-1.6-0.4c-0.1,0-0.2-0.1-0.3-0.1c-1.1,0.1-2.3,0.3-3.4,0.5c-0.2,0-0.3,0.2-0.6,0.4c0.1-0.4,0.2-0.6,0.3-0.9
		c-1.7,0.4-3.4,1.1-5,0c-1.5,0.9-2.9,0.6-4.3-0.1c0.1-0.1,0.1-0.3,0.3-0.6c-2.5,0.3-5,0.6-7.4,0.9c0-0.1,0.1-0.1,0.1-0.2
		c-0.4-0.1-0.9-0.5-1.3-0.4c-1.1,0.2-2.1,0.6-3.1,0.8c-0.5,0.1-1.1-0.2-1.6-0.2c-1,0-2,0-3.1,0.1c-1,0.1-1.9,0.4-2.9,0.4
		c-1-0.1-1.9,0.3-2.8,0.2c-0.7-0.1-1.4-0.2-2.1-0.4c-0.5-0.1-0.4-1.2,0.1-1.5c0.1-0.1,0.3-0.2,0.4-0.3c1.1-0.8,2-1.8,3.5-1.7
		c3.8,0.2,7.6,0.4,11.4,0.5c2.3,0.1,4.7,0,7.1,0.1c1.6,0.1,3.3,0.3,4.9,0.3c0.7,0,1.5-0.2,2.2-0.1c0.8,0,1.6,0.3,2.5,0.3
		c0.6,0,1.2-0.3,1.8-0.4c2.6,0,5.2,0,7.8,0c1.5,0,3-0.1,4.5,0c1.6,0.1,3.1,0.3,4.6,0.5c0.2,0,0.4,0,0.6-0.2c-0.5,0-1-0.1-1.4-0.1
		c0,0,0-0.1,0-0.1c1.2,0,2.5,0,3.7,0c1,0,2.2-0.2,3,0.3c1,0.6,2,0,3,0.3c-0.2-0.1-0.5-0.2-0.8-0.3c0-0.1,0-0.1,0.1-0.2
		c0.8,0.2,1.6,0.4,2.5,0.6c0,0.1,0,0.3-0.1,0.4c-1.1,0-2.2,0-3.3,0c-0.3,0-0.6,0.1-0.9,0.2c-1.1,0.2-2.2,0.7-3.2,0.5
		c-2.9-0.7-5.9,0.1-8.8,0c-0.8-0.1-1.6,0.1-2.4,0.1C149,152.8,149,152.9,149,152.9z"/>
	<path class="st1" d="M188.9,163.2c-0.5,0.1-1.1,0.1-1.6,0.1c-0.6,0-1.3-0.1-1.9-0.1c-1.1-0.1-2.3-0.1-3.4-0.1
		c-0.2,0-0.5,0.4-0.8,0.6c0-0.2,0-0.4,0-0.7c-1.3,0.4-2.6,0.7-4.1-0.1c0.6-0.1,1-0.2,1.4-0.2c1.3-0.3,2.6,0,3.9-0.5
		c1.2-0.4,2.8,0.1,3.9-0.4c1.2-0.6,2.2,0.2,3.1-0.2c1.1-0.5,2.1-0.5,3.1-0.6c0.5-0.1,0.9-0.2,1.4-0.2c-0.4-0.9-3.3-0.9-4.2-0.1
		c-0.1-0.2-0.2-0.5-0.3-0.8c0.1,0,0.2,0,0.3,0c4.8-0.2,9.6-0.4,14.4-0.7c2-0.1,4-0.3,6-0.5c0.5,0,3.1,1.4,3.1,1.9
		c0,0.2-0.3,0.8-0.6,0.8c-1.7,0.2-3.4,0.3-5,0.6c-0.9,0.1-1.7,0.5-2.6,0.7c-0.1,0-0.2,0.1-0.3,0.1c-1.6,0.1-3.2,0.3-4.8,0.4
		c-0.8,0-1.7-0.4-2.5-0.5c-0.2,0-0.6-0.1-0.7,0.1c-1.2,1.6-2.6,1.3-4.1,0.5c-0.3-0.1-0.8,0-1.1,0c-0.4,0-0.8-0.1-1.2-0.1
		C189.8,163.1,189.4,163.2,188.9,163.2C188.9,163.3,188.9,163.3,188.9,163.2z"/>
	<path class="st1" d="M143.9,122.1c0,0.2-0.1,0.5-0.2,0.8c-0.2-0.3-0.4-0.5-0.6-0.7c-0.6,1.1-1.6,1.5-3,1c-0.1,0.4-0.2,0.8-0.4,1.3
		c-0.2-0.2-0.4-0.4-0.5-0.6c0,0-0.1,0.1-0.1,0.1c0.3,0.8-0.3,1.1-0.9,1.2c-0.4,0.1-0.9,0.3-1.6,0.5c-0.1-0.1-0.3-0.4-0.5-0.7
		c-0.1,0.3-0.2,0.6-0.4,0.9c-1.1-0.6-2.2-0.3-3.1,0.6c-0.2,0.2-0.5,0.2-0.8,0.3c-0.9,0.3-1.9,0.6-3,0.9c0.1-0.5,0.1-1,0.3-1.1
		c0.9-0.7,1.9-1.3,2.9-1.8c1.6-0.8,3.5-1.3,5-2.2c0.6-0.4,1.1-0.2,1.7-0.4c1.6-0.7,3.2-1.3,4.8-1.9c0.3-0.1,0.7,0,1-0.1
		c1.5-0.5,3-1.1,4.5-1.4c0.5-0.1,1.1-0.8,1.7-0.1c0.1,0.1,0.8,0,0.8-0.2c0.4-0.7,1-0.4,1.5-0.5c1.6-0.2,3.3-0.5,4.9-0.8
		c1.1-0.2,2.1-0.5,3.4-0.6c-0.3,0.6-0.6,1.1-1,1.7c-0.5-0.6-1-1.2-1.7,0.1c-0.1,0.2-0.9,0.2-1.3,0.2c-0.7,0-1.4,0-2.4,0
		c-0.6-0.6-1-0.4-1.3,0.8c-0.6,0.4-1.1,0.8-1.5,1.2c-0.2-1.2-1.2-0.4-1.8-0.4c-0.5,0-0.9,0.5-1.4,0.8c-0.1,0.1-0.3,0.2-0.4,0.2
		c-0.9-0.7-1.5,0.3-2.3,0.3c-0.5,0-1.3-0.2-1.3,0.7C144.7,122.2,144.3,122.1,143.9,122.1z"/>
	<path class="st1" d="M183.2,153.5c-0.2-0.4-0.5-0.8-0.7-1.1c0.1-0.1,0.1-0.1,0.2-0.2c0.5,0.2,1,0.5,1.5,0.7c0-0.1,0-0.2,0-0.3
		c0.4-0.1,0.9-0.4,1.3-0.4c0.9,0,1.9,0.1,2.8,0.1c2.4-0.1,4.9-0.4,7.3-0.6c2.6-0.2,5.2-0.3,7.8-0.4c1.4-0.1,2.9-0.2,4.3-0.2
		c0.5,0,1.1,0.3,1.7,0.6c-0.6,1.1-1.3,1.4-2.4,1.2c-0.8-0.1-1.6,0.1-2.5,0.2c-0.3,0-0.6,0.2-0.8,0.2c-0.5,0.1-1.1,0.1-1.6,0.3
		c-0.6,0.2-1.2,0.2-1.9,0.2c-1-0.1-2.1,0-3.1-0.2c-0.6-0.1-1.3,0.5-2,0.6c-1.1-0.2-2.3-0.4-3.4-0.6c0,0.1,0,0.1,0.1,0.2
		c-0.6,0.1-1.2,0.3-1.8,0.3c-1-0.1-2.1-0.4-3.1-0.4c-1,0-1.9,0.3-3,0.4C183.7,153.9,183.5,153.6,183.2,153.5
		C183.2,153.4,183.2,153.5,183.2,153.5z"/>
	<path class="st1" d="M173.1,52.4c-1.4-0.9-2.7-1.9-4.2-2.7c-1.4-0.8-3-1.3-4.5-1.9c0.2-1.3,0-1.7,1.7-1.3c2.1,0.5,4.2,1,5.5,2.8
		c0.7,0.9,1.1,2,1.7,2.9C173.3,52.3,173.2,52.4,173.1,52.4z"/>
	<path class="st1" d="M154.5,56.6c0.1-0.1,0.2-0.2,0.4-0.2c0.6-0.1,1.1-0.2,1.7-0.2c1.1,0,2.1-0.1,3.2-0.1c0.1,0,0.3,0.3,0.4,0.4
		c0.3-0.1,0.7-0.4,0.9-0.3c2.6,0.7,5.6,0.7,7.2,3.5C164.1,57.1,159.4,56.9,154.5,56.6z"/>
	<path class="st1" d="M176.4,99.3c1.8-0.7,5.2,0.5,6.4,2.2C180.7,100.8,178.6,100.1,176.4,99.3z"/>
	<path class="st1" d="M138.9,95.7c-0.2-0.1-0.4-0.2-0.8-0.6c1.4,0,2.1-1.5,3.4-0.6c0.3,0.2,0.5,0.6,0.7,0.9
		c-0.3-0.1-0.5-0.4-0.8-0.4c-0.4,0-0.9,0-1.1,0.2c-0.2,0.2,0,0.7,0,1.1c0.4,0,0.9,0.1,1.2-0.1c0.3-0.2,0.5-0.6,0.7-0.9
		c0.1,1-0.4,1.7-1.3,1.9c-0.9,0.2-1.3-0.2-1.8-2C138.9,95.4,138.9,95.6,138.9,95.7C138.9,95.7,138.9,95.7,138.9,95.7z"/>
	<path class="st1" d="M165.8,63.5c-2.5-0.7-5-1.3-7.4-1.9C159.4,60.8,165.2,62.2,165.8,63.5z"/>
	<path class="st1" d="M181.1,154.1c-0.5-1.1-0.5-1.2,0.6-1.6c0.6,0.4,1.1,0.7,1.6,1l0,0c0.2,1.4,0,1.7-1,1.3
		c0.1-0.1,0.3-0.3,0.6-0.6C182.1,154.1,181.6,154.1,181.1,154.1L181.1,154.1z"/>
	<path class="st1" d="M162.2,162.1c-1.1,0-2.1,0-3.1,0c0-0.1,0-0.2,0-0.2c0.5-0.1,1-0.1,1.6-0.2c-0.1-0.3-0.2-0.5-0.2-0.7
		c-0.5,0-0.9,0-1.6,0C160.4,160.3,161.3,160.6,162.2,162.1z"/>
	<path class="st1" d="M152.1,148.4c-4.5,0-8.9,0-13.4,0c0-0.1,0-0.1,0-0.2c4.5,0,8.9,0,13.4,0C152,148.3,152,148.4,152.1,148.4z"/>
	<path class="st1" d="M117.2,116.2c1.3-0.1,2-0.6,1.7-1.9c0-0.1,0.4-0.3,0.7-0.6C119,116.5,118.6,117,117.2,116.2z"/>
	<path class="st1" d="M157,47.4c-0.9-0.1-1.4-0.2-1.9-0.3c0-0.2,0-0.3,0-0.4c0.5-0.2,1-0.3,1.5-0.4C156.6,46.3,156.7,46.8,157,47.4z
		"/>
	<path class="st1" d="M181,154.1c0.1,0.3,0.1,0.6,0.1,0.7c-0.9,0-1.6,0-2.4,0C179.4,153.8,180.1,153.6,181,154.1
		C181.1,154.1,181,154.1,181,154.1z"/>
	<path class="st1" d="M15.2,167.6c0.5,1.1,0.8,2,1.2,2.9C15.5,170.6,14.9,169.3,15.2,167.6z"/>
	<path class="st1" d="M130,104.2c0.4,0.3,0.9,0.5,1.5,0.9c-0.9,0.4-1.8,0.1-1.9-0.6C129.5,104.4,129.9,104.3,130,104.2
		C130,104.2,130,104.2,130,104.2z"/>
	<path class="st1" d="M163.2,117c0.8-0.6,1.6-1,2.6-0.3c-0.8,0.2-1.7,0.4-2.5,0.7C163.3,117.2,163.2,117.1,163.2,117z"/>
	<path class="st1" d="M172.3,163c0.6-0.4,1.2-0.8,1.9-1.3c-0.1,0.2,0,0.6-0.2,0.8c-0.5,0.4-1.1,0.6-1.6,0.9
		C172.3,163.2,172.3,163.1,172.3,163z"/>
	<path class="st1" d="M140.6,118.3c-0.8,0.3-1.6,0.6-2.4,0.9c0-0.1-0.1-0.2-0.1-0.3c0.8-0.3,1.6-0.7,2.4-1
		C140.5,118.1,140.6,118.2,140.6,118.3z"/>
	<path class="st1" d="M142.6,94.2c-0.3-0.2-0.8-0.3-0.8-0.5c0-0.4,0.2-0.7,0.5-1.1c-0.1,0.6-0.4,1.1,0.8,1.2
		C143,94,142.8,94.1,142.6,94.2z"/>
	<path class="st1" d="M136.2,98.9c0.6,0.2,0.9-1,1.5-0.1c0.1,0.1-0.2,0.7-0.4,0.8C136.7,99.8,136.2,99.8,136.2,98.9z"/>
	<path class="st1" d="M142.1,95.4c-0.2,0.3-0.4,0.7-0.7,0.9c-0.3,0.2-0.8,0.1-1.2,0.1c0-0.4-0.2-0.9,0-1.1c0.2-0.2,0.7-0.3,1.1-0.2
		C141.6,95,141.9,95.3,142.1,95.4C142.2,95.4,142.1,95.4,142.1,95.4z"/>
</g>
</svg>
