<?xml version="1.0" encoding="utf-8"?>
<!-- Generator: Adobe Illustrator 23.0.1, SVG Export Plug-In . SVG Version: 6.00 Build 0)  -->
<svg version="1.1" id="Layer_1" xmlns="http://www.w3.org/2000/svg" xmlns:xlink="http://www.w3.org/1999/xlink" x="0px" y="0px"
	 viewBox="0 0 233 244" style="enable-background:new 0 0 233 244;" xml:space="preserve">
<style type="text/css">
	.st0{fill:none;}
	.st1{enable-background:new    ;}
	.st2{fill:#2C0085;}
	.st3{fill:#1A004D;}
	.st4{fill:#377D6B;}
	.st5{fill:#5FD8B9;}
	.st6{fill:#23006A;}
	.st7{fill:#4CAC93;}
	.st8{fill:#000033;}
	.st9{fill:#0E0E59;}
	.st10{fill:#4D3380;}
	.st11{fill:#6A46B0;}
	.st12{fill:#8558DD;}
</style>
<path class="st0" d="M316.9,58c2.6-0.4,2.3,1.3,2.1,2.6c-1.7,15.6-1.9,31.3-1.6,47c0,3.3,0.2,6.7,0.4,10c0.2,2.7-0.9,4.3-3.3,5.2
	c0.2-15,0.3-29.9,0.6-44.9c0.1-5.9,0.9-11.9,1.4-17.8C316.5,59.5,316.7,58.8,316.9,58z"/>
<g>
	<g class="st1">
		<g>
			<polygon class="st2" points="183.6,130.1 182.8,178.6 126.2,182.5 127,134.1 			"/>
		</g>
		<g>
			<polygon class="st3" points="199.3,141.3 198.5,189.8 182.8,178.6 183.6,130.1 			"/>
		</g>
		<g>
			<polygon class="st4" points="142.7,145.3 141.9,193.7 126.2,182.5 127,134.1 			"/>
		</g>
		<g>
			<polygon class="st5" points="199.3,141.3 198.5,189.8 141.9,193.7 142.7,145.3 			"/>
		</g>
		<g>
			<path class="st6" d="M124.4,133.7l60.4-4.2l17.1,12.1l-60.4,4.2L124.4,133.7z M199.3,141.3l-15.7-11.2l-56.6,4l15.7,11.2
				L199.3,141.3"/>
		</g>
		<g>
			<polygon class="st7" points="183.6,130.1 199.3,141.3 142.7,145.3 127,134.1 			"/>
		</g>
		<g>
			<polygon class="st8" points="141.5,145.9 140.7,194.3 123.6,182.2 124.4,133.7 			"/>
		</g>
		<g>
			<polygon class="st9" points="201.9,141.6 201,190.1 140.7,194.3 141.5,145.9 			"/>
		</g>
	</g>
</g>
<g>
	<g class="st1">
		<g>
			<polygon class="st2" points="101.9,43.2 99.4,188.6 42.9,192.6 45.4,47.2 			"/>
		</g>
		<g>
			<polygon class="st3" points="117.7,54.4 115.2,199.8 99.4,188.6 101.9,43.2 			"/>
		</g>
		<g>
			<polygon class="st10" points="61.1,58.3 58.6,203.8 42.9,192.6 45.4,47.2 			"/>
		</g>
		<g>
			<polygon class="st11" points="101.9,43.2 117.7,54.4 61.1,58.3 45.4,47.2 			"/>
		</g>
		<g>
			<polygon class="st12" points="117.7,54.4 115.2,199.8 58.6,203.8 61.1,58.3 			"/>
		</g>
		<g>
			<polygon class="st8" points="59.9,59 57.4,204.4 40.3,192.2 42.8,46.8 			"/>
		</g>
		<g>
			<polygon class="st9" points="120.2,54.7 117.7,200.2 57.4,204.4 59.9,59 			"/>
		</g>
		<g>
			<path class="st6" d="M42.8,46.8l60.4-4.2l17.1,12.1L59.9,59L42.8,46.8z M117.7,54.4L102,43.2l-56.6,4l15.7,11.2L117.7,54.4"/>
		</g>
	</g>
</g>
</svg>
