<?xml version="1.0" encoding="utf-8"?>
<!-- Generator: Adobe Illustrator 23.0.1, SVG Export Plug-In . SVG Version: 6.00 Build 0)  -->
<svg version="1.1" id="Layer_1" xmlns="http://www.w3.org/2000/svg" xmlns:xlink="http://www.w3.org/1999/xlink" x="0px" y="0px"
	 viewBox="0 0 233 244" style="enable-background:new 0 0 233 244;" xml:space="preserve">
<style type="text/css">
	.st0{fill:none;}
	.st1{fill:#000033;}
</style>
<path class="st0" d="M316.9,58c2.6-0.4,2.3,1.3,2.1,2.6c-1.7,15.6-1.9,31.3-1.6,47c0,3.3,0.2,6.7,0.4,10c0.2,2.7-0.9,4.3-3.3,5.2
	c0.2-15,0.3-29.9,0.6-44.9c0.1-5.9,0.9-11.9,1.4-17.8C316.5,59.5,316.7,58.8,316.9,58z"/>
<g>
	<path class="st1" d="M79.8,104.5c1.6,0.2,2.5-0.1,2.4-2.1c-0.3-7.7-0.6-15.3-0.4-23C82,68.5,83,57.8,89.9,48.6
		c0.6-0.8,1.3-1.6,2.1-2.3c-9.9,13.5-9.3,28.6-8.1,44c0.2,0,0.5,0.1,0.7,0.1c0-2.2,0-4.4,0-6.7c0.3,0,0.5,0,0.8-0.1
		c0.1,2.2,0.2,4.4,0.3,6.7c0.2,0,0.3,0,0.4-0.1c0-4.6,0-9.1,0-13.7c-0.2,0-0.5,0-0.8,0c0,1,0,2.1,0,3.1c-0.2,0-0.4,0-0.6,0
		c-0.1-1.1-0.3-2.1-0.2-3.2c0.3-3.4,0.8-6.9,1.2-10.3c0.2-1.5,0.6-2.5,2.3-0.4c1.4-6.7,5-11.7,8.6-16.8c3-4.3,7.4-5.2,11.5-7
		c16.6-6.9,34.9,1.9,39.8,19.3c1.5,5.4,1.6,11.1,2.6,16.7c0.4,2.3,0.2,4.4,0.2,6.7c0,2,0.9,3.9,1.3,5.9c0.3,0,0.6-0.1,0.9-0.1
		c-0.4-7.4-0.8-14.9-1.3-22.3c-0.5-7.7-3.9-14.4-8.6-20.5c0.3-0.2,0.7-0.4,1-0.7c1.2,1.7,2.6,3.3,3.6,5.1c3.7,6.3,5.4,13.3,5.7,20.6
		c0.3,9.6,0.4,19.2,0.6,28.8c0,1.4-0.1,2.9,2.4,2.3c0-3.2,0-6.5,0-9.8c0.2,0,0.4,0,0.6,0c0,3.2,0,6.4,0,10c2.6,0,4.9,0.1,7.2,0
		c2.6-0.2,3.3,0.7,3.3,3.3c0,25.4,0.1,50.7,0.2,76.1c0,2.8,0.2,5.6,0.2,8.5c0.1,3.5,0,3.8-3.7,3.8c-6.1,0.1-12.1,0.2-18.1,0.2
		c-23.1,0-46.2,0-69.3,0c-1.1,0-2.1,0-3.5,0c-0.1-1.2-0.2-2.2-0.2-3.3c-0.1-28-0.3-56-0.4-84c0-4.8-0.1-4.8,4.6-4.6
		C78.3,104.4,79,104.4,79.8,104.5c-0.8,0.5-1.7,1-3.2,1.8c1.4,0.6,2.5,1,3.6,1.5c1.6,0.6,4.1,0.8,4.5,1.9c0.9,2.1,2,1.4,3.3,1.2
		c2.7-0.3,5.5-0.5,8.2-0.4c0.8,0,1.6,1,2.5,1.6c1.1-1.1,2.4-2.5,3.8-3.9c-3.4-2-6.8-3.9-5.7-8.9c0.4-2,0.1-4.1,0.1-6.1
		c0.2,0,0.3,0,0.5,0c0,3.7,0,7.5,0,11.2c14.9,0,29.6,0,44.3,0c0-10.8,0-21.5,0-32.1c0.1,0,0.2,0,0.3,0c0.3,2,0.6,3.9,0.9,5.9
		c0.2,0,0.5-0.1,0.7-0.1c-0.2-3-0.5-6.1-0.7-9.1c0.1,0,0.3,0,0.4-0.1c0.3,1.4,0.7,2.8,1,4.2c0.3,0,0.6-0.1,0.9-0.1
		c-0.2-3.5,0.1-7.2-0.7-10.5c-4.6-19.2-27.7-26.3-42.6-13.4c-4.8,4.2-7.5,9.6-8.4,15.6c-0.7,4.6,0.1,9.4,0.2,14.1
		c0.2,8.1,0.3,16.3,0.4,24.4c0,0.7-0.5,1.4-0.8,2.2c-0.4-0.1-0.7-0.2-1.1-0.3c0-2,0-3.9,0-5.9c-0.7,1.2-0.9,2.4-0.6,3.5
		c0.6,2.5-1.1,2.7-2.4,2.2c-2.4-1-4.4,0-6.6,0.4C81.8,105.1,80.8,104.7,79.8,104.5z M98.7,155.7c-2.6-1.6-3.7-1.4-6.1,1.7
		C94.8,156.7,96.8,156.2,98.7,155.7c-0.4,0.4-0.8,1-1.1,1.4c5.3-0.3,10.6-0.6,16.3-1c-3.3-2.4-7.4,1.4-9.7-1.7
		C102.2,154.8,100.4,155.3,98.7,155.7z M111.9,110.7c2.4-2.2-1.2-1.8-1.2-2.8c0.4-0.5,0.7-0.8,1.3-1.5c-1.7,0.1-2.8,0.2-4.2,0.3
		C108.3,109,108.5,111.5,111.9,110.7c6.6,2.1,18.2,1.1,19.6-2c0.9,2.4,2.4,2.8,4.4,1.4c0.6-0.4,1.5-0.5,2.2-0.5
		c6.7-0.6,13.5-1.1,20.2-1.8c2.7-0.3,5.4-1,8.1-1.5c0-0.2,0-0.5,0-0.8c-1-0.1-2-0.3-3-0.3c-4.6-0.1-9.3-0.2-14-0.3
		c-2.1,0-3-0.9-2.8-3.1c0.2-2,0-4,0-6c-0.6,2.1-0.7,4.2-0.6,6.4c0.1,2.3-0.7,3.3-3.2,3.2c-1.4-0.1-2.8,0.4-4.2,0.8
		c-2,0.6-3.9,1.8-5.9,2.1c-3.6,0.4-7.3,0.2-11,0.3c-1.2,0-2.4,0-3.7,0.1c-1.4,0.1-2.7,0.3-4.6,0.5
		C113.4,109.2,112.7,109.9,111.9,110.7z M92.9,69.7c-0.1,0-0.2-0.1-0.2-0.1c-0.2,0.8-0.6,1.7-0.7,2.5c-0.3,8.4-0.6,16.8-0.8,25.3
		c0,0.3,0.8,0.7,1.7,1.5C92.9,88.7,92.9,79.2,92.9,69.7z M100.8,171.7c3-0.2,5.9-0.5,8.8-0.7c0-0.3,0-0.6-0.1-0.8
		c-1.1-0.1-2.2-0.1-2.6-0.1c-1.2-1.1-2.1-2.4-2.4-2.2C103,168.4,100.5,168.1,100.8,171.7z M119.8,134.9c-0.1-2-0.3-3.6-0.3-5.2
		c0-1.4,0.2-3-1.8-2.8c-1.2,0.1-2.3,0.8-3.5,1.3c0.1,0.2,0.2,0.4,0.3,0.6c1.2,0.2,2.4,0.5,4.1,0.9c-0.9,0.8-1.4,1.1-1.4,1.2
		C118.1,132.2,118.8,133.4,119.8,134.9z M112.5,157.8c-1.4,1.3-2.6,2.4-3.8,3.5c0.2,0.2,0.4,0.4,0.6,0.5c0.5-0.4,1-0.9,1.5-1.3
		c0.2,0.2,0.4,0.4,0.7,0.7c-0.9,0.9-1.8,1.9-2.9,3c0.5,1.1,1.2,2.5,1.8,3.9c0.3-0.1,0.5-0.1,0.8-0.2c-0.2-1.1-0.4-2.2-0.7-3.6
		c0.2-0.1,0.9-0.5,1.4-0.8C112.1,161.7,112.3,160,112.5,157.8z M107.5,159.6c-0.2-0.2-0.5-0.3-0.7-0.5c-3.3,1.6-5.6,5.4-10.1,4.5
		c4.2,3,6.4-1.6,9.6-2.2C106.7,161.3,107,160.2,107.5,159.6z M100.6,184.8c1,2.2,3.1,2.4,10.3,0
		C107.5,184.8,104.1,184.8,100.6,184.8z M97.8,186.1c-0.2-3.8-2.5-0.9-3.6-1.2c-1.6-0.4-3.3-0.1-5-0.1c0.5,0.9,1,1.9,1.6,3
		c0-0.3,0-0.6,0.1-0.9C93.1,186.7,95.3,186.4,97.8,186.1z M107.7,179.4c3.8-1.8,6.4-0.5,8.3,3.2c0.4-1.8,0.7-2.9,1-4.4
		c-0.7,0.5-1.2,0.9-1.6,1.3C112.3,176.4,109.8,176.2,107.7,179.4z M90.4,142.9c2.7-0.8,4.8-1.5,6.9-2.1c0-0.1,0-0.3,0-0.4
		c-1.3-0.1-2.7-0.3-4-0.4c0.2-0.7,0.3-1.1,0.5-2c-1.7,0.5-2.9,0.8-4.1,1.2c0,0.2,0.1,0.4,0.1,0.5c0.5,0.1,1,0.2,1.5,0.3
		C91,140.9,90.8,141.7,90.4,142.9z M110.9,142c0-0.4-0.1-0.7-0.1-1.1c-3.8,0.1-7.7-1.1-11.4,1.1C103.2,142,107,142,110.9,142z
		 M114.9,151.3c1.5,0,2.9,0.4,3.7-0.1c0.7-0.5,0.7-1.9,1-3c-0.2-0.1-0.4-0.1-0.7-0.1c-0.3,0.8-0.7,1.5-1.3,2.9
		c-0.2-1.4-0.3-2.1-0.5-3.1c-1.2,0.3-2.2,0.6-3.2,0.9C114.4,149.9,114.8,150.8,114.9,151.3z M90.4,163.1c-2.2,0-4,0-5.8,0
		c1,1.4,2.1,2.6,3.3,2.8C88.5,166,89.4,164.3,90.4,163.1z M85.2,148.1c-0.2,0.3-0.3,0.6-0.4,0.9c1.2,0.7,2.5,1.4,3.7,2.1
		c0.1-0.6,0.1-1.2,0.2-1.8c1.1-0.1,2.3-0.2,3.6-0.4c0-0.3,0-0.5,0-0.8C89.8,148.1,87.5,148.1,85.2,148.1z M96,177.7
		c0.4,0.8,0.6,1.7,0.8,1.7c2.8,0,5.7-0.2,8.5-0.3c0-0.3,0-0.6,0-0.8C102.4,178.1,99.5,177.9,96,177.7z M145.9,93.8
		c0.2,0,0.4-0.1,0.6-0.1c0-5.2,0-10.5,0-15.7c-0.2,0-0.4,0-0.6,0C145.9,83.3,145.9,88.6,145.9,93.8z M82.8,186
		c2.2-0.3,3.4-0.5,4.8-0.7c-0.7-1.3-1.3-2.3-2.4-4.3C84.2,182.9,83.6,184.2,82.8,186z M107.6,125.7c-1,0.1-1.7,0.2-2,0.2
		c-0.2,1.2-0.4,2.2-0.5,2.7c-1.1-0.8-1.9-1.4-2.8-2c-0.2,0.2-0.3,0.5-0.5,0.7C105.2,130.9,105.3,130.9,107.6,125.7z M83.8,122.8
		c0.7,2.7,3.2,1.6,4.9,2.2c0.3,0.1,1-1.1,1.7-1.8C87.9,123,85.9,122.9,83.8,122.8z M92.6,179.1c-0.8-1.7-6.7-2.6-9-0.8
		C86.8,178.6,89.6,178.8,92.6,179.1z M86.3,159.9c0,0.3,0.1,0.5,0.1,0.8c1.6-0.4,3.4-0.4,4.7-1.3c0.6-0.4,0.1-2.4,0.1-3.6
		c-0.3,0-0.5,0-0.8,0.1C90.3,158.3,90.3,158.3,86.3,159.9z M91.8,169.4c0,0.3-0.1,0.6-0.1,0.9c1.8,0.2,3.4,3.5,5.8-0.5
		C95.4,169.7,93.6,169.5,91.8,169.4z M99.1,160.4c0.1-0.3,0.1-0.5,0.2-0.8c-2.1-0.1-4.3-0.3-6.4-0.4c-0.1,0-0.3,0.8-0.6,1.5
		C94.8,160.6,97,160.5,99.1,160.4z M107.7,146.5c0.4-1.2,0.7-2.4,1.1-3.6c-1.4,0.8-4.1,0.5-3,3.6
		C106.7,146.5,107.4,146.5,107.7,146.5z M90,145.5c2,0.6,4,1.2,6,1.7C95.3,143.3,92.3,145.3,90,145.5z M152.1,98.7
		c0.1,0,0.3-0.1,0.4-0.1c0-2.3,0-4.6,0-6.9c-0.1,0-0.3,0-0.4,0C152.1,94,152.1,96.4,152.1,98.7z"/>
</g>
</svg>
