<?xml version="1.0" encoding="utf-8"?>
<!-- Generator: Adobe Illustrator 23.0.1, SVG Export Plug-In . SVG Version: 6.00 Build 0)  -->
<svg version="1.1" id="Layer_1" xmlns="http://www.w3.org/2000/svg" xmlns:xlink="http://www.w3.org/1999/xlink" x="0px" y="0px"
	 viewBox="0 0 233 244" style="enable-background:new 0 0 233 244;" xml:space="preserve">
<style type="text/css">
	.st0{enable-background:new    ;}
	.st1{fill:#000033;}
	.st2{fill:#24006C;}
	.st3{fill:#1A004D;}
</style>
<g>
	<g>
		<g class="st0">
			<g>
				<polygon class="st1" points="89.4,44.7 136.2,39 138.1,145.5 91.3,151.3 				"/>
			</g>
			<g>
				<polygon class="st2" points="91.3,151.3 138.1,145.5 198.3,189.2 151.6,195 				"/>
			</g>
			<g>
				<path class="st3" d="M89.1,43.5L150,87.8l1.9,108.5L91,152L89.1,43.5z M151.6,195l-1.9-106.6L89.4,44.7l1.9,106.6L151.6,195"/>
			</g>
			<g>
				<polygon class="st2" points="89.1,43.5 135.8,37.7 196.7,82 150,87.8 				"/>
			</g>
			<g>
				<polygon class="st1" points="150,87.8 196.7,82 198.7,190.5 151.9,196.2 				"/>
			</g>
		</g>
	</g>
</g>
<g>
	<g>
		<g class="st0">
			<g>
				<polygon class="st1" points="31.2,53.5 77.9,47.7 79.8,153.3 33,159.1 				"/>
			</g>
			<g>
				<polygon class="st2" points="33,159.1 79.8,153.3 139.6,196.8 92.9,202.5 				"/>
			</g>
			<g>
				<path class="st3" d="M30.4,51l61.3,44.5L93.6,205l-61.3-44.5L30.4,51z M92.9,202.5L91,97L31.1,53.5L33,159L92.9,202.5"/>
			</g>
			<g>
				<polygon class="st2" points="30.4,51 77.2,45.3 138.4,89.8 91.7,95.6 				"/>
			</g>
			<g>
				<polygon class="st1" points="91.7,95.6 138.4,89.8 140.4,199.2 93.7,205 				"/>
			</g>
		</g>
	</g>
</g>
</svg>
