<?xml version="1.0" encoding="utf-8"?>
<!-- Generator: Adobe Illustrator 23.0.1, SVG Export Plug-In . SVG Version: 6.00 Build 0)  -->
<svg version="1.1" id="Layer_1" xmlns="http://www.w3.org/2000/svg" xmlns:xlink="http://www.w3.org/1999/xlink" x="0px" y="0px"
	 viewBox="0 0 200 130" style="enable-background:new 0 0 200 130;" xml:space="preserve">
<style type="text/css">
	.st0{fill:#6649E2;}
	.st1{fill:#6E59EA;}
	.st2{fill:#4F42CE;}
	.st3{fill:#5B45D8;}
</style>
<g>
	<g>
		<path class="st0" d="M66,82.3c2.3,2.5,4.4,4.9,6.5,7.2c4.8-2.3,8.4-5.5,11.4-9.9c3.1,4.1,6.1,8.1,9,12
			c-11.6,15.1-34.9,19.5-51.8,9.3C49.3,94.8,57.4,88.7,66,82.3z"/>
		<path class="st0" d="M26.1,45.3c6.2,8.1,12.3,16.1,18.7,24.5c-2.5,2.2-4.9,4.4-7.3,6.5c2.4,5,5.6,8.6,10,11.6
			c-4.2,3.1-8.1,6.1-12,9C19.5,84.5,16.4,60.7,26.1,45.3z"/>
		<path class="st0" d="M38.7,50.6c-2.6-3.5-5.6-7.5-8.5-11.4C42.1,24.1,64.9,19.8,82.1,30c-8.3,6-16.6,11.9-25,18
			c-1.9-1.8-3.8-3.6-5.5-5.4c-0.8-0.9-1.6-1.1-2.5-0.3C45.6,44.9,42.2,47.7,38.7,50.6z"/>
		<path class="st0" d="M97.2,85.5c-6.1-8-12.1-16-18.6-24.6c1.8-1.6,3.6-3.3,5.5-4.8c1.5-1.2,1.5-2.4,0.4-3.7
			c-2.6-3.2-5.3-6.3-8.1-9.7c3.5-2.6,7.4-5.6,11.3-8.5C103.6,46.1,106.8,70.1,97.2,85.5z"/>
	</g>
	<polygon class="st0" points="160.5,20.9 160,22.8 160,78.4 160.5,78.9 186.3,63.7 	"/>
	<polygon class="st1" points="160.5,20.9 134.7,63.7 160.5,78.9 160.5,52 	"/>
	<polygon class="st0" points="160.5,83.8 160.2,84.2 160.2,104 160.5,104.9 186.3,68.6 	"/>
	<polygon class="st1" points="160.5,104.9 160.5,83.8 134.7,68.6 	"/>
	<polygon class="st2" points="160.5,78.9 186.3,63.7 160.5,52 	"/>
	<polygon class="st3" points="134.7,63.7 160.5,78.9 160.5,52 	"/>
</g>
</svg>
