<?xml version="1.0" encoding="utf-8"?>
<!-- Generator: Adobe Illustrator 23.0.1, SVG Export Plug-In . SVG Version: 6.00 Build 0)  -->
<svg version="1.1" id="Layer_1" xmlns="http://www.w3.org/2000/svg" xmlns:xlink="http://www.w3.org/1999/xlink" x="0px" y="0px"
	 viewBox="0 0 302.1 188.9" style="enable-background:new 0 0 302.1 188.9;" xml:space="preserve">
<style type="text/css">
	.st0{fill:#000033;stroke:#FFFFFF;stroke-miterlimit:10;}
	.st1{fill:#FFFFFF;}
</style>
<rect x="8.1" y="11.4" class="st0" width="21.9" height="21.9"/>
<rect x="8.1" y="33.3" class="st0" width="21.9" height="21.9"/>
<rect x="30" y="11.4" class="st0" width="21.9" height="21.9"/>
<rect x="30" y="33.3" class="st0" width="21.9" height="21.9"/>
<rect x="8.1" y="55.2" class="st0" width="21.9" height="21.9"/>
<rect x="8.1" y="77" class="st0" width="21.9" height="21.9"/>
<rect x="30" y="55.2" class="st0" width="21.9" height="21.9"/>
<rect x="30" y="77" class="st0" width="21.9" height="21.9"/>
<rect x="8.1" y="98.9" class="st0" width="21.9" height="21.9"/>
<rect x="8.1" y="120.8" class="st0" width="21.9" height="21.9"/>
<rect x="30" y="98.9" class="st0" width="21.9" height="21.9"/>
<rect x="30" y="120.8" class="st0" width="21.9" height="21.9"/>
<rect x="117.4" y="11.3" class="st0" width="21.9" height="21.9"/>
<rect x="117.4" y="33.2" class="st0" width="21.9" height="21.9"/>
<rect x="139.3" y="11.3" class="st0" width="21.9" height="21.9"/>
<rect x="117.4" y="55" class="st0" width="21.9" height="21.9"/>
<rect x="117.4" y="76.9" class="st0" width="21.9" height="21.9"/>
<rect x="139.3" y="55" class="st0" width="21.9" height="21.9"/>
<rect x="139.3" y="76.9" class="st0" width="21.9" height="21.9"/>
<rect x="117.4" y="98.8" class="st0" width="21.9" height="21.9"/>
<rect x="117.4" y="120.7" class="st0" width="21.9" height="21.9"/>
<rect x="139.3" y="98.8" class="st0" width="21.9" height="21.9"/>
<rect x="139.3" y="120.7" class="st0" width="21.9" height="21.9"/>
<rect x="139.8" y="11.4" class="st0" width="21.9" height="21.9"/>
<rect x="161.6" y="11.4" class="st0" width="21.9" height="21.9"/>
<rect x="161.6" y="33.3" class="st0" width="21.9" height="21.9"/>
<rect x="139.8" y="55.2" class="st0" width="21.9" height="21.9"/>
<rect x="139.8" y="77.1" class="st0" width="21.9" height="21.9"/>
<rect x="161.6" y="55.2" class="st0" width="21.9" height="21.9"/>
<rect x="161.6" y="77.1" class="st0" width="21.9" height="21.9"/>
<rect x="139.8" y="99" class="st0" width="21.9" height="21.9"/>
<rect x="139.8" y="120.9" class="st0" width="21.9" height="21.9"/>
<rect x="161.6" y="99" class="st0" width="21.9" height="21.9"/>
<rect x="161.6" y="120.9" class="st0" width="21.9" height="21.9"/>
<rect x="249.1" y="11.3" class="st0" width="21.9" height="21.9"/>
<rect x="249.1" y="33.2" class="st0" width="21.9" height="21.9"/>
<rect x="271" y="11.3" class="st0" width="21.9" height="21.9"/>
<rect x="249.1" y="55.1" class="st0" width="21.9" height="21.9"/>
<rect x="249.1" y="77" class="st0" width="21.9" height="21.9"/>
<rect x="271" y="55.1" class="st0" width="21.9" height="21.9"/>
<rect x="271" y="77" class="st0" width="21.9" height="21.9"/>
<rect x="249.1" y="98.9" class="st0" width="21.9" height="21.9"/>
<rect x="249.1" y="120.8" class="st0" width="21.9" height="21.9"/>
<rect x="271" y="98.9" class="st0" width="21.9" height="21.9"/>
<rect x="271" y="120.8" class="st0" width="21.9" height="21.9"/>
<rect x="271" y="33.2" class="st0" width="21.9" height="21.9"/>
<g>
	<g>
		<path class="st1" d="M10.1,173.9v-20.2h5.3l4.2,7.4c1.2,2.1,2.4,4.6,3.3,6.9l0.1,0c-0.3-2.7-0.4-5.4-0.4-8.4v-5.9h4.2v20.2H22
			l-4.3-7.8c-1.2-2.2-2.5-4.8-3.5-7.1l-0.1,0c0.1,2.7,0.2,5.5,0.2,8.8v6.1L10.1,173.9L10.1,173.9z"/>
		<path class="st1" d="M38.4,153.6v20.2h-4.6v-20.2H38.4z"/>
		<path class="st1" d="M60.2,173.3c-0.8,0.4-2.7,0.9-5.2,0.9c-7,0-10.6-4.4-10.6-10.1c0-6.9,4.9-10.7,11-10.7c2.4,0,4.2,0.5,5,0.9
			l-0.9,3.6c-0.9-0.4-2.2-0.8-3.8-0.8c-3.6,0-6.4,2.2-6.4,6.7c0,4.1,2.4,6.6,6.5,6.6c1.4,0,2.9-0.3,3.8-0.6L60.2,173.3z"/>
		<path class="st1" d="M70.8,153.6v7.8h7.5v-7.8h4.6v20.2h-4.6v-8.5h-7.5v8.5h-4.6v-20.2H70.8z"/>
		<path class="st1" d="M101.9,165.3h-7.4v4.8h8.3v3.8H89.9v-20.2h12.5v3.7h-7.9v4.2h7.4L101.9,165.3L101.9,165.3z"/>
		<path class="st1" d="M117.9,173.9v-20.2h5.3l4.2,7.4c1.2,2.1,2.4,4.6,3.3,6.9l0.1,0c-0.3-2.7-0.4-5.4-0.4-8.4v-5.9h4.2v20.2h-4.8
			l-4.3-7.8c-1.2-2.2-2.5-4.8-3.5-7.1l-0.1,0c0.1,2.7,0.2,5.5,0.2,8.8v6.1L117.9,173.9L117.9,173.9z"/>
		<path class="st1" d="M153.6,165.3h-7.4v4.8h8.3v3.8h-12.9v-20.2h12.5v3.7h-7.9v4.2h7.4L153.6,165.3L153.6,165.3z"/>
		<path class="st1" d="M164.6,157.5h-5.5v-3.8h15.6v3.8h-5.5v16.4h-4.6L164.6,157.5L164.6,157.5z"/>
		<path class="st1" d="M183.4,173.9l-4.8-20.2h4.9l1.5,8.3c0.4,2.4,0.9,5,1.2,7.1h0.1c0.3-2.2,0.8-4.6,1.3-7.1l1.7-8.3h4.9l1.6,8.5
			c0.4,2.4,0.8,4.5,1.1,6.8h0.1c0.3-2.2,0.7-4.6,1.2-7l1.6-8.3h4.6l-5.2,20.2h-4.9l-1.7-8.7c-0.4-2-0.7-3.9-1-6.2h-0.1
			c-0.3,2.3-0.7,4.2-1.1,6.2l-1.9,8.7L183.4,173.9L183.4,173.9z"/>
		<path class="st1" d="M228.2,163.6c0,6.6-4,10.6-9.9,10.6c-6,0-9.5-4.5-9.5-10.3c0-6,3.9-10.6,9.8-10.6
			C224.8,153.3,228.2,158,228.2,163.6z M213.6,163.8c0,4,1.9,6.8,4.9,6.8c3.1,0,4.9-2.9,4.9-6.9c0-3.6-1.7-6.8-4.9-6.8
			C215.4,156.9,213.6,159.9,213.6,163.8z"/>
		<path class="st1" d="M234.2,153.9c1.5-0.2,3.6-0.4,6.1-0.4c3,0,5.1,0.5,6.5,1.6c1.2,1,1.9,2.4,1.9,4.2c0,2.6-1.8,4.4-3.6,5v0.1
			c1.4,0.6,2.2,1.9,2.7,3.8c0.6,2.3,1.2,4.9,1.6,5.7h-4.7c-0.3-0.6-0.8-2.2-1.4-4.7c-0.6-2.5-1.4-3.2-3.3-3.2h-1.4v7.9h-4.5V153.9z
			 M238.8,162.6h1.8c2.3,0,3.6-1.2,3.6-2.9c0-1.9-1.3-2.8-3.4-2.8c-1.1,0-1.7,0.1-2.1,0.1L238.8,162.6L238.8,162.6z"/>
		<path class="st1" d="M255,153.6h4.5v8.9h0.1c0.4-0.8,0.9-1.5,1.4-2.2l4.6-6.7h5.6l-6.7,8.6l7,11.6h-5.3l-5-8.7l-1.7,2.1v6.6H255
			L255,153.6L255,153.6z"/>
		<path class="st1" d="M276.6,169.1c1.2,0.6,3.1,1.3,5.1,1.3c2.1,0,3.2-0.9,3.2-2.2c0-1.2-1-2-3.4-2.8c-3.4-1.2-5.6-3-5.6-6
			c0-3.4,2.9-6.1,7.6-6.1c2.3,0,4,0.5,5.2,1l-1,3.7c-0.8-0.4-2.3-1-4.2-1c-2,0-2.9,0.9-2.9,2c0,1.3,1.1,1.9,3.7,2.8
			c3.6,1.3,5.2,3.2,5.2,6.1c0,3.4-2.6,6.3-8.1,6.3c-2.3,0-4.6-0.6-5.7-1.3L276.6,169.1z"/>
	</g>
</g>
<polyline class="st0" points="52.2,11.4 117.8,98.8 117.8,142.6 52.2,55.2 "/>
<polyline class="st0" points="184.2,11.4 249.8,98.8 249.8,142.6 184.2,55.2 "/>
</svg>
