<?xml version="1.0" encoding="utf-8"?>
<!-- Generator: Adobe Illustrator 23.0.1, SVG Export Plug-In . SVG Version: 6.00 Build 0)  -->
<svg version="1.1" id="Layer_1" xmlns="http://www.w3.org/2000/svg" xmlns:xlink="http://www.w3.org/1999/xlink" x="0px" y="0px"
	 viewBox="0 0 197.2 50.4" style="enable-background:new 0 0 197.2 50.4;" xml:space="preserve">
<style type="text/css">
	.st0{fill:#FFFFFF;}
	.st1{fill:none;stroke:#330099;stroke-miterlimit:10;}
	.st2{enable-background:new    ;}
	.st3{fill:#FF3860;}
	.st4{fill:#330099;}
</style>
<title>logo</title>
<path class="st0" d="M15.5,0.5h166.2c8.3,0,15,6.7,15,15v19.4c0,8.3-6.7,15-15,15H15.5c-8.3,0-15-6.7-15-15V15.5
	C0.5,7.2,7.2,0.5,15.5,0.5z"/>
<path class="st1" d="M15.5,0.5h166.2c8.3,0,15,6.7,15,15v19.4c0,8.3-6.7,15-15,15H15.5c-8.3,0-15-6.7-15-15V15.5
	C0.5,7.2,7.2,0.5,15.5,0.5z"/>
<g class="st2">
	<path class="st3" d="M27.7,21c0.5-0.8,1.1-1.4,1.7-1.8c0.6-0.4,1.3-0.6,2.2-0.6c1.3,0,2.3,0.4,3.1,1.2c0.8,0.8,1.2,2,1.2,3.4v8.1
		H34v-7.8c0-1.1-0.2-1.9-0.7-2.4c-0.5-0.6-1.2-0.8-2.3-0.8c-0.8,0-1.5,0.3-2,0.9c-0.6,0.6-0.8,1.4-0.8,2.4v7.8h-1.9v-7.8
		c0-2.2-1-3.3-2.9-3.3c-0.9,0-1.6,0.3-2.2,1.1c-0.6,0.7-0.9,1.5-0.9,2.5v7.6h-1.9V19h1.9v1.7c0.9-1.3,2.1-2,3.5-2
		C25.7,18.7,27,19.5,27.7,21z"/>
	<path class="st3" d="M41.6,14.8c0.3,0.2,0.4,0.6,0.4,1c0,0.4-0.1,0.7-0.4,1c-0.3,0.3-0.6,0.4-1,0.4s-0.7-0.1-1-0.4
		c-0.3-0.3-0.4-0.6-0.4-1c0-0.4,0.1-0.8,0.4-1c0.3-0.3,0.6-0.4,1-0.4S41.3,14.5,41.6,14.8z M41.5,19v12.4h-1.9V19H41.5z"/>
	<path class="st3" d="M54.1,19.8c1,0.7,1.5,1.9,1.8,3.4H54c-0.2-1-0.6-1.7-1.2-2.2c-0.6-0.5-1.4-0.7-2.4-0.7c-1.2,0-2.2,0.5-2.9,1.4
		c-0.7,0.9-1,2.1-1,3.6c0,1.5,0.3,2.7,1,3.6c0.6,0.9,1.6,1.3,2.9,1.3c2.1,0,3.3-1.1,3.6-3.2H56c-0.3,1.6-0.9,2.8-1.8,3.6
		c-0.9,0.8-2.2,1.2-3.7,1.2c-1.9,0-3.3-0.6-4.3-1.9c-1-1.2-1.5-2.7-1.5-4.6c0-1.9,0.5-3.4,1.5-4.6c1.1-1.3,2.5-2,4.4-2
		C52,18.7,53.2,19.1,54.1,19.8z"/>
	<path class="st3" d="M65.4,19v1.9c-0.6-0.2-1.2-0.3-1.8-0.3c-1,0-1.8,0.4-2.4,1.3c-0.7,0.8-1,1.8-1,3v6.6h-1.9V19h1.9v2.2
		c0.3-0.7,0.8-1.3,1.3-1.7c0.6-0.5,1.4-0.8,2.3-0.8C64.3,18.7,64.9,18.8,65.4,19z"/>
	<path class="st3" d="M77,20.6c1.1,1.2,1.6,2.8,1.6,4.6c0,1.8-0.5,3.4-1.6,4.6c-1.1,1.3-2.6,1.9-4.5,1.9c-1.9,0-3.3-0.6-4.4-1.9
		c-1.1-1.2-1.6-2.7-1.6-4.6c0-1.9,0.5-3.4,1.6-4.6c1.1-1.3,2.6-1.9,4.4-1.9C74.4,18.7,75.9,19.3,77,20.6z M69.4,21.8
		c-0.7,0.9-1,2-1,3.4c0,1.4,0.3,2.5,1,3.4c0.7,1,1.8,1.5,3.1,1.5c1.3,0,2.3-0.5,3.1-1.5c0.6-0.9,1-2.1,1-3.4c0-1.4-0.3-2.5-1-3.4
		c-0.8-1-1.8-1.5-3.1-1.5C71.2,20.3,70.2,20.8,69.4,21.8z"/>
</g>
<g class="st2">
	<path class="st4" d="M90.5,22.6h-1.9c-0.2-0.8-0.5-1.3-1-1.7c-0.5-0.4-1.3-0.6-2.3-0.6c-0.9,0-1.5,0.1-2,0.5
		c-0.5,0.3-0.8,0.7-0.8,1.3c0,0.5,0.3,1,1.1,1.3c0.5,0.2,1.3,0.5,2.6,0.8c1.5,0.4,2.5,0.7,3.2,1.2c1,0.6,1.5,1.5,1.5,2.5
		c0,2.5-1.8,3.8-5.3,3.8c-3.3,0-5-1.4-5.3-4.3h1.9c0.1,1,0.5,1.7,1,2.1c0.5,0.4,1.3,0.6,2.4,0.6c2.2,0,3.3-0.7,3.3-2.1
		c0-0.7-0.4-1.2-1.2-1.6c-0.4-0.2-1.3-0.5-2.6-0.8c-1.5-0.4-2.5-0.7-3.1-1.1c-1-0.6-1.4-1.4-1.4-2.4c0-1.1,0.5-1.9,1.4-2.5
		c0.9-0.6,2-0.9,3.4-0.9C88.5,18.7,90.2,20,90.5,22.6z"/>
	<path class="st4" d="M103.3,20.7c0.9,1.2,1.4,2.7,1.4,4.6c0,1.8-0.5,3.3-1.4,4.5c-1,1.3-2.4,2-4.2,2c-1.8,0-3.1-0.9-4.1-2.6v7h-1.9
		V19H95v2c0.9-1.6,2.3-2.4,4.1-2.4C100.9,18.7,102.3,19.3,103.3,20.7z M95.9,21.7c-0.6,0.9-0.9,2-0.9,3.4v0.2c0,1.4,0.3,2.6,1.1,3.5
		c0.7,0.9,1.6,1.3,2.7,1.3c1.3,0,2.4-0.5,3-1.4c0.6-0.9,0.9-2,0.9-3.5c0-1.5-0.3-2.6-0.9-3.5c-0.7-1-1.7-1.5-3-1.5
		C97.6,20.3,96.6,20.8,95.9,21.7z"/>
	<path class="st4" d="M117.2,20.6c1.1,1.2,1.6,2.8,1.6,4.6c0,1.8-0.5,3.4-1.6,4.6c-1.1,1.3-2.6,1.9-4.5,1.9c-1.9,0-3.3-0.6-4.4-1.9
		c-1.1-1.2-1.6-2.7-1.6-4.6c0-1.9,0.5-3.4,1.6-4.6c1.1-1.3,2.6-1.9,4.4-1.9C114.6,18.7,116.1,19.3,117.2,20.6z M109.7,21.8
		c-0.7,0.9-1,2-1,3.4c0,1.4,0.3,2.5,1,3.4c0.7,1,1.8,1.5,3.1,1.5c1.3,0,2.3-0.5,3.1-1.5c0.6-0.9,1-2.1,1-3.4c0-1.4-0.3-2.5-1-3.4
		c-0.8-1-1.8-1.5-3.1-1.5C111.4,20.3,110.4,20.8,109.7,21.8z"/>
	<path class="st4" d="M131.7,23.8v7.6h-1.9V24c0-2.4-1.1-3.6-3.3-3.6c-0.9,0-1.6,0.3-2.2,0.9c-0.7,0.7-1,1.6-1.1,2.7v7.5h-1.9V19
		h1.9v1.8c0.4-0.7,1-1.2,1.7-1.6c0.7-0.4,1.4-0.6,2.2-0.6C130.2,18.7,131.7,20.4,131.7,23.8z"/>
	<path class="st4" d="M144.2,22.6h-1.9c-0.2-0.8-0.5-1.3-1-1.7c-0.5-0.4-1.3-0.6-2.3-0.6c-0.9,0-1.5,0.1-2,0.5
		c-0.5,0.3-0.8,0.7-0.8,1.3c0,0.5,0.3,1,1.1,1.3c0.5,0.2,1.3,0.5,2.6,0.8c1.5,0.4,2.5,0.7,3.2,1.2c1,0.6,1.5,1.5,1.5,2.5
		c0,2.5-1.8,3.8-5.3,3.8c-3.3,0-5-1.4-5.3-4.3h1.9c0.1,1,0.5,1.7,1,2.1c0.5,0.4,1.3,0.6,2.4,0.6c2.2,0,3.3-0.7,3.3-2.1
		c0-0.7-0.4-1.2-1.2-1.6c-0.4-0.2-1.3-0.5-2.6-0.8c-1.5-0.4-2.5-0.7-3.1-1.1c-1-0.6-1.4-1.4-1.4-2.4c0-1.1,0.5-1.9,1.4-2.5
		c0.9-0.6,2-0.9,3.4-0.9C142.2,18.7,143.8,20,144.2,22.6z"/>
	<path class="st4" d="M156.8,20.6c1.1,1.2,1.6,2.8,1.6,4.6c0,1.8-0.5,3.4-1.6,4.6c-1.1,1.3-2.6,1.9-4.5,1.9c-1.9,0-3.3-0.6-4.4-1.9
		c-1.1-1.2-1.6-2.7-1.6-4.6c0-1.9,0.5-3.4,1.6-4.6c1.1-1.3,2.6-1.9,4.4-1.9C154.2,18.7,155.7,19.3,156.8,20.6z M149.3,21.8
		c-0.7,0.9-1,2-1,3.4c0,1.4,0.3,2.5,1,3.4c0.7,1,1.8,1.5,3.1,1.5c1.3,0,2.3-0.5,3.1-1.5c0.6-0.9,1-2.1,1-3.4c0-1.4-0.3-2.5-1-3.4
		c-0.8-1-1.8-1.5-3.1-1.5C151,20.3,150,20.8,149.3,21.8z"/>
	<path class="st4" d="M168,19v1.9c-0.6-0.2-1.2-0.3-1.8-0.3c-1,0-1.8,0.4-2.4,1.3c-0.7,0.8-1,1.8-1,3v6.6h-1.9V19h1.9v2.2
		c0.3-0.7,0.8-1.3,1.3-1.7c0.6-0.5,1.4-0.8,2.3-0.8C167,18.7,167.6,18.8,168,19z"/>
	<path class="st4" d="M179.1,22.6h-1.9c-0.2-0.8-0.5-1.3-1-1.7c-0.5-0.4-1.3-0.6-2.3-0.6c-0.9,0-1.5,0.1-2,0.5
		c-0.5,0.3-0.8,0.7-0.8,1.3c0,0.5,0.3,1,1.1,1.3c0.5,0.2,1.3,0.5,2.6,0.8c1.5,0.4,2.5,0.7,3.2,1.2c1,0.6,1.5,1.5,1.5,2.5
		c0,2.5-1.8,3.8-5.3,3.8c-3.3,0-5-1.4-5.3-4.3h1.9c0.1,1,0.5,1.7,1,2.1c0.5,0.4,1.3,0.6,2.4,0.6c2.2,0,3.3-0.7,3.3-2.1
		c0-0.7-0.4-1.2-1.2-1.6c-0.4-0.2-1.3-0.5-2.6-0.8c-1.5-0.4-2.5-0.7-3.1-1.1c-1-0.6-1.4-1.4-1.4-2.4c0-1.1,0.5-1.9,1.4-2.5
		c0.9-0.6,2-0.9,3.4-0.9C177.1,18.7,178.8,20,179.1,22.6z"/>
</g>
</svg>
