<?xml version="1.0" encoding="utf-8"?>
<!-- Generator: Adobe Illustrator 23.0.1, SVG Export Plug-In . SVG Version: 6.00 Build 0)  -->
<svg version="1.1" id="Layer_1" xmlns="http://www.w3.org/2000/svg" xmlns:xlink="http://www.w3.org/1999/xlink" x="0px" y="0px"
	 viewBox="0 0 302.1 188.92" style="enable-background:new 0 0 302.1 188.92;" xml:space="preserve">
<style type="text/css">
	.st0{fill:#6666CC;stroke:#FFFFFF;stroke-miterlimit:10;}
	.st1{fill:#6666CC;}
</style>
<rect x="8.11" y="11.39" class="st0" width="21.88" height="21.88"/>
<rect x="8.11" y="33.27" class="st0" width="21.88" height="21.88"/>
<rect x="29.99" y="11.39" class="st0" width="21.88" height="21.88"/>
<rect x="29.99" y="33.27" class="st0" width="21.88" height="21.88"/>
<rect x="8.11" y="55.16" class="st0" width="21.88" height="21.88"/>
<rect x="8.11" y="77.04" class="st0" width="21.88" height="21.88"/>
<rect x="29.99" y="55.16" class="st0" width="21.88" height="21.88"/>
<rect x="29.99" y="77.04" class="st0" width="21.88" height="21.88"/>
<rect x="8.11" y="98.92" class="st0" width="21.88" height="21.88"/>
<rect x="8.11" y="120.81" class="st0" width="21.88" height="21.88"/>
<rect x="29.99" y="98.92" class="st0" width="21.88" height="21.88"/>
<rect x="29.99" y="120.81" class="st0" width="21.88" height="21.88"/>
<rect x="117.45" y="11.28" class="st0" width="21.88" height="21.88"/>
<rect x="117.45" y="33.16" class="st0" width="21.88" height="21.88"/>
<rect x="139.34" y="11.28" class="st0" width="21.88" height="21.88"/>
<rect x="117.45" y="55.05" class="st0" width="21.88" height="21.88"/>
<rect x="117.45" y="76.93" class="st0" width="21.88" height="21.88"/>
<rect x="139.34" y="55.05" class="st0" width="21.88" height="21.88"/>
<rect x="139.34" y="76.93" class="st0" width="21.88" height="21.88"/>
<rect x="117.45" y="98.81" class="st0" width="21.88" height="21.88"/>
<rect x="117.45" y="120.69" class="st0" width="21.88" height="21.88"/>
<rect x="139.34" y="98.81" class="st0" width="21.88" height="21.88"/>
<rect x="139.34" y="120.69" class="st0" width="21.88" height="21.88"/>
<rect x="139.75" y="11.45" class="st0" width="21.88" height="21.88"/>
<rect x="161.63" y="11.45" class="st0" width="21.88" height="21.88"/>
<rect x="161.63" y="33.33" class="st0" width="21.88" height="21.88"/>
<rect x="139.75" y="55.21" class="st0" width="21.88" height="21.88"/>
<rect x="139.75" y="77.1" class="st0" width="21.88" height="21.88"/>
<rect x="161.63" y="55.21" class="st0" width="21.88" height="21.88"/>
<rect x="161.63" y="77.1" class="st0" width="21.88" height="21.88"/>
<rect x="139.75" y="98.98" class="st0" width="21.88" height="21.88"/>
<rect x="139.75" y="120.86" class="st0" width="21.88" height="21.88"/>
<rect x="161.63" y="98.98" class="st0" width="21.88" height="21.88"/>
<rect x="161.63" y="120.86" class="st0" width="21.88" height="21.88"/>
<rect x="249.09" y="11.34" class="st0" width="21.88" height="21.88"/>
<rect x="249.09" y="33.22" class="st0" width="21.88" height="21.88"/>
<rect x="270.98" y="11.34" class="st0" width="21.88" height="21.88"/>
<rect x="249.09" y="55.1" class="st0" width="21.88" height="21.88"/>
<rect x="249.09" y="76.98" class="st0" width="21.88" height="21.88"/>
<rect x="270.98" y="55.1" class="st0" width="21.88" height="21.88"/>
<rect x="270.98" y="76.98" class="st0" width="21.88" height="21.88"/>
<rect x="249.09" y="98.87" class="st0" width="21.88" height="21.88"/>
<rect x="249.09" y="120.75" class="st0" width="21.88" height="21.88"/>
<rect x="270.98" y="98.87" class="st0" width="21.88" height="21.88"/>
<rect x="270.98" y="120.75" class="st0" width="21.88" height="21.88"/>
<rect x="270.98" y="33.16" class="st0" width="21.88" height="21.88"/>
<g>
	<g>
		<path class="st1" d="M10.09,173.86v-20.22h5.33l4.2,7.42c1.21,2.12,2.39,4.65,3.3,6.94l0.08-0.01c-0.28-2.67-0.37-5.39-0.37-8.45
			v-5.89h4.2v20.22h-4.79l-4.33-7.79c-1.21-2.18-2.53-4.77-3.51-7.14l-0.1,0.01c0.14,2.68,0.2,5.54,0.2,8.84v6.08H10.09z"/>
		<path class="st1" d="M38.37,153.65v20.22h-4.57v-20.22H38.37z"/>
		<path class="st1" d="M60.18,173.31c-0.82,0.4-2.73,0.87-5.17,0.87c-7,0-10.61-4.38-10.61-10.14c0-6.89,4.94-10.71,11.04-10.71
			c2.38,0,4.18,0.46,4.98,0.9l-0.93,3.62c-0.91-0.4-2.21-0.76-3.84-0.76c-3.61,0-6.43,2.2-6.43,6.69c0,4.05,2.39,6.6,6.46,6.6
			c1.4,0,2.92-0.28,3.82-0.65L60.18,173.31z"/>
		<path class="st1" d="M70.77,153.65v7.78h7.54v-7.78h4.57v20.22H78.3v-8.46h-7.54v8.46h-4.57v-20.22H70.77z"/>
		<path class="st1" d="M101.87,165.31h-7.44v4.81h8.32v3.75H89.86v-20.22h12.46v3.74h-7.88v4.21h7.44V165.31z"/>
		<path class="st1" d="M117.94,173.86v-20.22h5.33l4.2,7.42c1.21,2.12,2.39,4.65,3.3,6.94l0.08-0.01c-0.28-2.67-0.37-5.39-0.37-8.45
			v-5.89h4.2v20.22h-4.79l-4.33-7.79c-1.21-2.18-2.53-4.77-3.51-7.14l-0.1,0.01c0.14,2.68,0.2,5.54,0.2,8.84v6.08H117.94z"/>
		<path class="st1" d="M153.65,165.31h-7.44v4.81h8.32v3.75h-12.89v-20.22h12.46v3.74h-7.88v4.21h7.44V165.31z"/>
		<path class="st1" d="M164.57,157.48h-5.46v-3.84h15.56v3.84h-5.53v16.38h-4.57V157.48z"/>
		<path class="st1" d="M183.35,173.86l-4.79-20.22h4.9l1.53,8.33c0.43,2.41,0.85,5.03,1.18,7.07h0.06c0.32-2.2,0.81-4.62,1.32-7.13
			l1.73-8.27h4.86l1.62,8.53c0.43,2.36,0.77,4.52,1.07,6.76h0.06c0.32-2.25,0.74-4.6,1.19-7.02l1.64-8.27h4.65l-5.21,20.22h-4.94
			l-1.72-8.71c-0.4-2.02-0.72-3.93-0.97-6.22h-0.06c-0.34,2.28-0.67,4.2-1.15,6.24l-1.93,8.69H183.35z"/>
		<path class="st1" d="M228.23,163.55c0,6.63-4,10.64-9.92,10.64c-6,0-9.52-4.54-9.52-10.3c0-6.04,3.89-10.58,9.84-10.58
			C224.84,153.32,228.23,157.96,228.23,163.55z M213.63,163.81c0,3.96,1.87,6.75,4.92,6.75c3.09,0,4.86-2.92,4.86-6.85
			c0-3.64-1.72-6.76-4.87-6.76C215.44,156.95,213.63,159.87,213.63,163.81z"/>
		<path class="st1" d="M234.25,153.92c1.47-0.25,3.64-0.44,6.08-0.44c3,0,5.1,0.46,6.54,1.6c1.21,0.96,1.87,2.38,1.87,4.24
			c0,2.56-1.83,4.35-3.57,4.97v0.1c1.4,0.57,2.19,1.91,2.7,3.76c0.62,2.29,1.24,4.92,1.63,5.71h-4.68
			c-0.31-0.58-0.81-2.21-1.39-4.71c-0.56-2.53-1.41-3.2-3.29-3.23h-1.36v7.94h-4.53V153.92z M238.78,162.62h1.79
			c2.27,0,3.62-1.16,3.62-2.91c0-1.85-1.27-2.8-3.36-2.81c-1.09,0-1.74,0.07-2.06,0.15V162.62z"/>
		<path class="st1" d="M255.04,153.65h4.53v8.94h0.08c0.44-0.77,0.93-1.5,1.39-2.2l4.58-6.73h5.62l-6.69,8.6l7.04,11.61h-5.32
			l-4.98-8.72l-1.72,2.11v6.6h-4.53V153.65z"/>
		<path class="st1" d="M276.61,169.15c1.21,0.65,3.11,1.27,5.07,1.27c2.1,0,3.21-0.87,3.21-2.2c0-1.24-0.96-1.97-3.39-2.83
			c-3.37-1.2-5.58-3.03-5.58-5.99c0-3.45,2.89-6.07,7.65-6.07c2.31,0,3.97,0.46,5.16,1.02l-1.01,3.67c-0.8-0.38-2.26-0.96-4.22-0.96
			c-1.99,0-2.94,0.92-2.94,1.96c0,1.29,1.12,1.85,3.74,2.84c3.58,1.34,5.24,3.2,5.24,6.05c0,3.38-2.58,6.27-8.15,6.27
			c-2.29,0-4.58-0.62-5.71-1.26L276.61,169.15z"/>
	</g>
</g>
<polyline class="st0" points="52.17,11.39 117.75,98.81 117.75,142.58 52.17,55.16 "/>
<polyline class="st0" points="184.18,11.39 249.76,98.81 249.76,142.58 184.18,55.16 "/>
</svg>
