<svg id="Layer_1" data-name="Layer 1" xmlns="http://www.w3.org/2000/svg" xmlns:xlink="http://www.w3.org/1999/xlink" viewBox="0 0 959.72 577.96"><defs><style>.cls-1,.cls-2,.cls-4{stroke:#fff;stroke-miterlimit:10;stroke-width:2px;}.cls-1{fill:url(#linear-gradient);}.cls-2{fill:#96f;}.cls-3{fill:#fff;}.cls-4{fill:url(#linear-gradient-2);}</style><linearGradient id="linear-gradient" x1="590.94" y1="221.21" x2="809.6" y2="221.21" gradientUnits="userSpaceOnUse"><stop offset="0.04" stop-color="#96f"/><stop offset="0.5" stop-color="#309"/><stop offset="1" stop-color="#206"/></linearGradient><linearGradient id="linear-gradient-2" x1="148.19" y1="221.49" x2="368.35" y2="221.49" xlink:href="#linear-gradient"/></defs><title>logo-niche-networks</title><polyline class="cls-1" points="590.95 1 809.6 294.5 809.6 441.42 590.95 147.94"/><rect class="cls-2" x="811.53" y="1.19" width="73.6" height="73.6"/><rect class="cls-2" x="811.53" y="74.78" width="73.6" height="73.6"/><rect class="cls-2" x="885.13" y="1.19" width="73.6" height="73.6"/><rect class="cls-2" x="811.53" y="148.39" width="73.6" height="73.6"/><rect class="cls-2" x="811.53" y="221.99" width="73.6" height="73.6"/><rect class="cls-2" x="885.13" y="148.39" width="73.6" height="73.6"/><rect class="cls-2" x="885.13" y="221.99" width="73.6" height="73.6"/><rect class="cls-2" x="811.53" y="295.59" width="73.6" height="73.6"/><rect class="cls-2" x="811.53" y="369.19" width="73.6" height="73.6"/><rect class="cls-2" x="885.13" y="295.59" width="73.6" height="73.6"/><rect class="cls-2" x="885.13" y="369.19" width="73.6" height="73.6"/><rect class="cls-2" x="885.13" y="74.6" width="73.6" height="73.6"/><path class="cls-3" d="M132,691.12V612.26h20.77l16.37,28.93a226.41,226.41,0,0,1,12.89,27l.3,0a311.39,311.39,0,0,1-1.44-33v-23h16.37v78.86H178.59l-16.9-30.37A286.86,286.86,0,0,1,148,632.89l-.39,0c.55,10.45.77,21.61.77,34.49v23.7Z" transform="translate(-128.25 -114.45)"/><path class="cls-3" d="M231.73,612.26v78.86H213.9V612.26Z" transform="translate(-128.25 -114.45)"/><path class="cls-3" d="M306.27,689c-3.2,1.58-10.67,3.4-20.16,3.4-27.31,0-41.39-17.07-41.39-39.55C244.72,625.91,264,611,287.8,611c9.27,0,16.32,1.81,19.41,3.5l-3.63,14.1a37.44,37.44,0,0,0-15-3c-14.07,0-25.1,8.57-25.1,26.1,0,15.81,9.32,25.74,25.2,25.74A42.84,42.84,0,0,0,303.61,675Z" transform="translate(-128.25 -114.45)"/><path class="cls-3" d="M337,612.26v30.33h29.4V612.26h17.83v78.86H366.43v-33H337v33H319.2V612.26Z" transform="translate(-128.25 -114.45)"/><path class="cls-3" d="M447.83,657.76h-29v18.75h32.44v14.61H401V612.26h48.58v14.61H418.81v16.42h29Z" transform="translate(-128.25 -114.45)"/><path class="cls-3" d="M489.43,691.12V612.26h20.78l16.37,28.93a226.41,226.41,0,0,1,12.89,27l.3,0a311.39,311.39,0,0,1-1.44-33v-23H554.7v78.86H536l-16.9-30.37a286.86,286.86,0,0,1-13.7-27.86l-.39,0c.55,10.45.77,21.61.77,34.49v23.7Z" transform="translate(-128.25 -114.45)"/><path class="cls-3" d="M618.18,657.76h-29v18.75H621.6v14.61H571.33V612.26h48.59v14.61H589.16v16.42h29Z" transform="translate(-128.25 -114.45)"/><path class="cls-3" d="M650.79,627.23H629.51v-15H690.2v15H668.62v63.89H650.79Z" transform="translate(-128.25 -114.45)"/><path class="cls-3" d="M716.81,691.12l-18.68-78.86h19.1l6,32.47c1.69,9.39,3.33,19.63,4.59,27.59H728c1.27-8.57,3.16-18,5.15-27.81l6.75-32.25h18.95l6.3,33.28c1.69,9.21,3,17.63,4.16,26.36h.24c1.23-8.79,2.9-17.94,4.64-27.39l6.38-32.25h18.12l-20.34,78.86H759.13l-6.71-34c-1.57-7.88-2.81-15.32-3.8-24.26h-.24c-1.33,8.88-2.6,16.36-4.49,24.32l-7.53,33.9Z" transform="translate(-128.25 -114.45)"/><path class="cls-3" d="M880.38,650.9c0,25.87-15.62,41.51-38.68,41.51-23.38,0-37.14-17.69-37.14-40.18,0-23.58,15.16-41.26,38.39-41.26C867.15,611,880.38,629.08,880.38,650.9Zm-57,1c0,15.45,7.28,26.34,19.17,26.34,12.06,0,18.95-11.39,18.95-26.73,0-14.21-6.72-26.35-19-26.35C830.46,625.15,823.41,636.55,823.41,651.89Z" transform="translate(-128.25 -114.45)"/><path class="cls-3" d="M893.31,613.34a150.48,150.48,0,0,1,23.7-1.7c11.7,0,19.89,1.79,25.52,6.25,4.71,3.74,7.3,9.28,7.3,16.53,0,10-7.14,17-13.92,19.39v.37c5.47,2.21,8.55,7.44,10.53,14.68,2.44,8.93,4.82,19.21,6.37,22.26H934.55c-1.21-2.28-3.18-8.62-5.42-18.38s-5.51-12.49-12.85-12.58H911v31H893.31ZM911,647.25h7c8.85,0,14.14-4.5,14.14-11.36,0-7.22-5-10.91-13.09-11a36.83,36.83,0,0,0-8,.6Z" transform="translate(-128.25 -114.45)"/><path class="cls-3" d="M963.86,612.26h17.67v34.86h.29c1.73-3,3.62-5.84,5.42-8.6l17.85-26.26H1027l-26.08,33.56,27.46,45.3h-20.75l-19.41-34-6.69,8.25v25.75H963.86Z" transform="translate(-128.25 -114.45)"/><path class="cls-3" d="M1037.45,672.71a44,44,0,0,0,19.77,5c8.19,0,12.53-3.4,12.53-8.59,0-4.85-3.76-7.7-13.21-11-13.15-4.66-21.75-11.83-21.75-23.35,0-13.45,11.29-23.67,29.83-23.67,9,0,15.49,1.79,20.14,4l-3.94,14.3a37.89,37.89,0,0,0-16.46-3.75c-7.77,0-11.47,3.6-11.47,7.63,0,5,4.36,7.23,14.59,11.09,14,5.22,20.43,12.46,20.43,23.61,0,13.17-10.08,24.47-31.79,24.47-8.94,0-17.88-2.43-22.28-4.9Z" transform="translate(-128.25 -114.45)"/><rect class="cls-2" x="1" y="1.38" width="73.6" height="73.6"/><rect class="cls-2" x="1" y="74.97" width="73.6" height="73.6"/><rect class="cls-2" x="1" y="148.58" width="73.6" height="73.6"/><rect class="cls-2" x="1" y="222.17" width="73.6" height="73.6"/><rect class="cls-2" x="74.6" y="222.17" width="73.6" height="73.6"/><rect class="cls-2" x="1" y="295.78" width="73.6" height="73.6"/><rect class="cls-2" x="1" y="369.38" width="73.6" height="73.6"/><rect class="cls-2" x="74.6" y="295.78" width="73.6" height="73.6"/><rect class="cls-2" x="74.6" y="369.38" width="73.6" height="73.6"/><rect class="cls-2" x="369.78" y="1" width="73.6" height="73.6"/><rect class="cls-2" x="369.78" y="74.6" width="73.6" height="73.6"/><rect class="cls-2" x="442.37" y="1" width="73.6" height="73.6"/><rect class="cls-2" x="369.78" y="148.2" width="73.6" height="73.6"/><rect class="cls-2" x="369.78" y="221.8" width="73.6" height="73.6"/><rect class="cls-2" x="442.37" y="148.2" width="73.6" height="73.6"/><rect class="cls-2" x="442.37" y="221.8" width="73.6" height="73.6"/><rect class="cls-2" x="369.78" y="295.4" width="73.6" height="73.6"/><rect class="cls-2" x="369.78" y="369" width="73.6" height="73.6"/><rect class="cls-2" x="442.37" y="295.4" width="73.6" height="73.6"/><rect class="cls-2" x="442.37" y="369" width="73.6" height="73.6"/><rect class="cls-2" x="443.75" y="1.57" width="73.6" height="73.6"/><rect class="cls-2" x="517.35" y="1.57" width="73.6" height="73.6"/><rect class="cls-2" x="517.35" y="75.16" width="73.6" height="73.6"/><rect class="cls-2" x="443.75" y="148.77" width="73.6" height="73.6"/><rect class="cls-2" x="443.75" y="222.36" width="73.6" height="73.6"/><rect class="cls-2" x="517.35" y="148.77" width="73.6" height="73.6"/><rect class="cls-2" x="517.35" y="222.36" width="73.6" height="73.6"/><rect class="cls-2" x="443.75" y="295.97" width="73.6" height="73.6"/><rect class="cls-2" x="443.75" y="369.57" width="73.6" height="73.6"/><rect class="cls-2" x="517.35" y="295.97" width="73.6" height="73.6"/><rect class="cls-2" x="517.35" y="369.57" width="73.6" height="73.6"/><polyline class="cls-4" points="148.19 1.56 368.35 294.69 368.35 441.42 148.19 148.31"/><rect class="cls-2" x="74.6" y="1.38" width="73.6" height="73.6"/><rect class="cls-2" x="74.6" y="74.97" width="73.6" height="73.6"/><rect class="cls-2" x="74.6" y="148.58" width="73.6" height="73.6"/></svg>